<svg width="315" height="150" viewBox="0 0 315 150" fill="none" xmlns="http://www.w3.org/2000/svg">
<g clip-path="url(#clip0_19_51)">
<mask id="mask0_19_51" style="mask-type:luminance" maskUnits="userSpaceOnUse" x="0" y="0" width="315" height="150">
<path d="M314.279 0H0V149.603H314.279V0Z" fill="white"/>
</mask>
<g mask="url(#mask0_19_51)">
<mask id="mask1_19_51" style="mask-type:luminance" maskUnits="userSpaceOnUse" x="0" y="0" width="315" height="150">
<path d="M314.279 0H0V149.603H314.279V0Z" fill="white"/>
</mask>
<g mask="url(#mask1_19_51)">
<path d="M63.8599 100.069C63.9639 100.058 64.0653 100.03 64.1599 99.986C64.2548 99.9424 64.3561 99.9144 64.4599 99.903C64.6644 99.8197 64.8778 99.7603 65.0959 99.726C65.3143 99.6963 65.528 99.6389 65.7319 99.555C67.4139 98.9831 69.0333 98.2413 70.5649 97.341C71.3292 96.907 72.0528 96.4049 72.7269 95.841C73.3756 95.293 74.0116 94.7477 74.6349 94.205C75.8091 93.028 76.8602 91.7343 77.7719 90.344C78.5619 89.083 79.2421 87.7565 79.8049 86.379C80.0839 85.7251 80.3102 85.0499 80.4819 84.36C80.6529 83.682 80.7929 83.019 80.9079 82.375C80.9621 82.0444 80.9905 81.71 80.9929 81.375V80.389C80.9929 80.105 80.9789 79.81 80.9509 79.497C80.9229 79.184 80.8789 78.897 80.8239 78.615C80.6254 77.4008 80.2833 76.2145 79.8049 75.081C79.6319 74.8122 79.4763 74.5326 79.3389 74.244C79.1935 73.9465 79.0081 73.6703 78.7879 73.423C78.6179 73.162 78.4189 72.892 78.1939 72.608C77.9689 72.324 77.7419 72.058 77.5159 71.803C77.3818 71.6862 77.2543 71.562 77.1339 71.431C77.0002 71.2842 76.8427 71.1611 76.6679 71.067C76.5339 70.9483 76.4063 70.8225 76.2859 70.69C76.1522 70.5441 75.9946 70.422 75.8199 70.329C75.5287 70.0748 75.2166 69.8457 74.8869 69.644C74.5479 69.434 74.2089 69.239 73.8699 69.057C72.3968 68.2338 70.8307 67.5893 69.2049 67.137C67.4579 66.6806 65.667 66.4124 63.8629 66.337C62.9002 66.3577 61.9669 66.388 61.0629 66.428C60.1589 66.468 59.2256 66.5543 58.2629 66.687C58.061 66.7255 57.8529 66.7177 57.6544 66.6642C57.456 66.6107 57.2722 66.5129 57.1169 66.3781C56.9617 66.2434 56.839 66.0752 56.7581 65.8862C56.6772 65.6972 56.6402 65.4923 56.6499 65.287C56.6563 64.8375 56.8219 64.4049 57.1173 64.066C57.4126 63.7271 57.8185 63.5039 58.2629 63.436C59.1089 63.318 59.9569 63.1573 60.8069 62.954C61.6569 62.7507 62.5049 62.5323 63.3509 62.299C64.998 61.7405 66.6117 61.0878 68.1839 60.344C68.9689 59.9506 69.7329 59.5167 70.4729 59.044C71.2059 58.571 71.9429 58.053 72.6729 57.496C74.045 56.4651 75.3218 55.3132 76.4879 54.054C77.6053 52.8794 78.5998 51.5937 79.4559 50.217C80.2979 48.9814 81.0339 47.6767 81.6559 46.317C82.2209 45.0394 82.6749 43.7155 83.0129 42.36C83.1262 41.716 83.2392 41.1017 83.3519 40.517C83.4676 39.9104 83.5523 39.2982 83.6059 38.683V36.883L83.3519 35.12C83.249 34.5438 83.093 33.9784 82.8859 33.431C82.6759 32.8946 82.4352 32.3707 82.1649 31.862C81.624 30.7691 80.9117 29.7698 80.0549 28.902C79.6009 28.508 79.1549 28.102 78.6979 27.677C78.2037 27.2258 77.6638 26.8273 77.0869 26.488C74.6915 24.9796 72.0523 23.8988 69.2869 23.294C68.9397 23.1663 68.5855 23.0588 68.2259 22.972C67.8586 22.8793 67.4776 22.8033 67.0829 22.744C66.6829 22.686 66.3059 22.623 65.9369 22.56C65.5679 22.497 65.1879 22.438 64.7939 22.378C63.2679 22.1927 61.6566 22.0743 59.9599 22.023C59.1686 22.023 58.3636 22.0203 57.5449 22.015C56.7262 22.0097 55.8929 22.0117 55.0449 22.021L52.4999 22.203C51.6519 22.2657 50.8039 22.3557 49.9559 22.473C46.5349 22.8985 43.1584 23.6263 39.8659 24.648C36.4935 25.6219 33.2898 27.1057 30.3659 29.048C29.5805 29.4956 28.8294 30.001 28.1189 30.56C27.4109 31.114 26.7186 31.666 26.0419 32.216C25.7502 32.5492 25.4386 32.8644 25.1089 33.16C24.7785 33.4552 24.4666 33.7704 24.1749 34.104C23.8438 34.4273 23.5329 34.7706 23.2439 35.132C22.9599 35.484 22.6769 35.824 22.3949 36.148C21.8781 36.8607 21.3975 37.599 20.9549 38.36C20.4993 39.1433 20.1028 39.9596 19.7689 40.802C19.0829 42.3499 18.6533 43.9991 18.4969 45.685C18.4951 45.8738 18.4804 46.0622 18.4529 46.249C18.4242 46.4635 18.4101 46.6796 18.4109 46.896V47.411C18.4716 47.6006 18.5006 47.7989 18.4969 47.998C18.4931 48.4092 18.5208 48.8201 18.5799 49.227C18.6332 49.579 18.7182 49.9254 18.8339 50.262C19.1367 51.7062 19.6209 53.1063 20.2749 54.429C20.6064 55.054 20.9737 55.6593 21.3749 56.242C21.7632 56.8091 22.1881 57.3502 22.6469 57.862C23.0432 58.4399 23.5298 58.9504 24.0879 59.374C24.3689 59.621 24.6389 59.839 24.8929 60.032C25.1469 60.225 25.4139 60.417 25.6929 60.604C25.9531 60.8371 26.2374 61.0419 26.5409 61.215C26.8249 61.377 27.1059 61.551 27.3899 61.738C27.7221 61.8614 28.0475 62.0023 28.3649 62.16C28.6742 62.3187 28.9709 62.463 29.2549 62.593C29.5942 62.7157 29.9329 62.8257 30.2709 62.923C30.6089 63.0203 30.9486 63.1297 31.2899 63.251C31.4273 63.2994 31.5685 63.3365 31.7119 63.362C31.8829 63.395 32.0529 63.431 32.2219 63.462C32.3819 63.5311 32.5547 63.5652 32.7289 63.562L33.3289 63.651C33.9435 63.7667 34.5233 64.0224 35.0232 64.3982C35.5231 64.774 35.9299 65.2598 36.2119 65.818C36.5197 66.4004 36.7014 67.0412 36.7451 67.6985C36.7889 68.3558 36.6938 69.0149 36.4659 69.633C36.243 70.2829 35.9135 70.8912 35.4909 71.433C35.0706 71.9744 34.5698 72.4482 34.0059 72.838C33.4572 73.224 32.8388 73.4998 32.1849 73.65C31.5295 73.7985 30.85 73.805 30.1919 73.669C30.0167 73.6762 29.8423 73.6419 29.6829 73.569L29.6049 73.502L29.2659 73.466L29.0959 73.402L28.9259 73.342C28.8325 73.2531 28.7143 73.1945 28.5869 73.174C28.4594 73.1552 28.3409 73.0972 28.2479 73.008C28.0016 72.9462 27.7606 72.8653 27.5269 72.766C27.3269 72.68 27.1159 72.595 26.8909 72.508C26.4369 72.29 25.9989 72.065 25.5769 71.839C25.1549 71.613 24.7129 71.359 24.2609 71.079C23.8254 70.8671 23.4137 70.6093 23.0329 70.31C22.6642 70.018 22.2826 69.728 21.8879 69.44C21.0974 68.8674 20.3592 68.2258 19.6819 67.523C19.0068 66.8192 18.3705 66.0791 17.7759 65.306C17.1858 64.5387 16.6607 63.7235 16.2059 62.869C15.6977 62.0289 15.2718 61.1418 14.9339 60.22C14.7019 59.7819 14.5172 59.3203 14.3829 58.843C14.2416 58.3483 14.1142 57.8517 14.0009 57.353C13.5499 55.3812 13.4069 53.3515 13.5769 51.336C13.5765 50.8315 13.6049 50.3273 13.6619 49.826C13.7189 49.335 13.8029 48.826 13.9159 48.294C13.9835 48.1883 14.0134 48.0628 14.0009 47.938L14.0869 47.757V47.584C14.0781 47.5082 14.0923 47.4315 14.1279 47.364C14.1642 47.2967 14.1789 47.2199 14.1699 47.144L14.2549 46.789C14.3528 46.5451 14.4239 46.2913 14.4669 46.032C14.5104 45.7728 14.5814 45.519 14.6789 45.275C15.3554 43.3606 16.1775 41.5009 17.1379 39.712C17.5899 38.85 18.0849 38.01 18.6229 37.192C19.1609 36.374 19.7402 35.5517 20.3609 34.725C20.6422 34.3417 20.9386 33.958 21.2499 33.574C21.5612 33.19 21.8869 32.8023 22.2269 32.411C22.5649 32.02 22.9049 31.646 23.2439 31.285C23.5829 30.924 23.9209 30.577 24.2599 30.242C25.6646 28.843 27.1685 27.5473 28.7599 26.365C31.9007 24.029 35.2835 22.0372 38.8499 20.424C40.5925 19.614 42.3755 18.894 44.1919 18.267C46.0006 17.645 47.8092 17.065 49.6179 16.527C50.5179 16.227 51.4129 15.977 52.2899 15.77C53.1669 15.563 54.0829 15.337 55.0459 15.087C56.0052 14.897 56.9386 14.7243 57.8459 14.569C58.7532 14.4137 59.6866 14.2703 60.6459 14.139C62.5126 13.877 64.3926 13.6863 66.2859 13.567C68.1931 13.4459 70.1071 13.4794 72.0089 13.667C73.9276 13.8376 75.8283 14.1722 77.6899 14.667C78.1419 14.778 78.6089 14.898 79.0899 15.03C79.5709 15.162 80.0369 15.316 80.4899 15.479C81.3959 15.809 82.3292 16.1927 83.2899 16.63C85.0746 17.5513 86.7515 18.6678 88.2899 19.959C89.858 21.3764 91.2271 22.9995 92.3599 24.784C93.5501 26.6762 94.4104 28.7568 94.9039 30.937C95.4188 33.215 95.5907 35.5572 95.4139 37.886C95.2971 39.0622 95.1132 40.2308 94.8629 41.386C94.6126 42.549 94.2574 43.687 93.8019 44.786C93.3643 45.9019 92.8545 46.9882 92.2759 48.038C91.7099 49.0612 91.0851 50.0509 90.4049 51.002C89.0352 52.8626 87.4714 54.5723 85.7399 56.102C84.076 57.5076 82.288 58.7594 80.3979 59.842C78.8358 60.8139 77.1899 61.6442 75.4799 62.323L76.4969 62.439C77.5831 62.5563 78.6598 62.7497 79.7189 63.018C80.0016 63.0933 80.2556 63.1723 80.4809 63.255C80.7069 63.337 80.9609 63.414 81.2459 63.489C81.7968 63.662 82.3351 63.8728 82.8569 64.12C83.3759 64.2843 83.8631 64.5355 84.2979 64.863C84.5672 64.9868 84.8235 65.1372 85.0629 65.312C85.2805 65.4775 85.5065 65.6317 85.7399 65.774C86.7141 66.4502 87.5973 67.2487 88.3679 68.15C89.2016 69.0699 89.9144 70.0925 90.4889 71.193C90.7702 71.7837 91.0242 72.362 91.2509 72.928C91.4782 73.4999 91.6487 74.0927 91.7599 74.698C92.0972 75.9592 92.2802 77.2567 92.3049 78.562C92.3304 79.8948 92.2299 81.2271 92.0049 82.541C91.842 83.8509 91.5441 85.1404 91.1159 86.389C90.6864 87.6276 90.1618 88.8312 89.5469 89.989C88.9476 91.1799 88.2544 92.3212 87.4739 93.402C86.7134 94.4473 85.8779 95.436 84.9739 96.36C83.26 98.1902 81.2894 99.762 79.1239 101.026C78.1204 101.673 77.072 102.248 75.9869 102.747C74.9116 103.238 73.8376 103.702 72.7649 104.137C71.6814 104.51 70.5772 104.821 69.4579 105.067C68.3826 105.304 67.3082 105.497 66.2349 105.645C65.9519 105.683 65.6839 105.723 65.4349 105.758C65.1682 105.794 64.8985 105.803 64.6299 105.785L63.8669 105.89L63.4429 105.863L63.0189 105.923C61.945 106.005 60.8656 105.983 59.7959 105.857C57.6517 105.668 55.5722 105.025 53.6959 103.97C52.8377 103.393 52.0165 102.763 51.2369 102.084C50.494 101.368 49.8363 100.569 49.2769 99.702C48.9909 99.286 48.7259 98.851 48.4699 98.402C48.2158 97.9521 48.003 97.4802 47.8339 96.992L47.3249 95.522C47.2303 95.2825 47.1729 95.0299 47.1549 94.773C47.0982 94.7257 47.0699 94.5873 47.0699 94.358L46.9849 94.198V93.944C46.926 93.7429 46.9146 93.5309 46.9513 93.3246C46.9881 93.1183 47.0722 92.9234 47.1969 92.755C47.4331 92.4202 47.7774 92.1769 48.1719 92.066C48.3355 91.9824 48.5159 91.9372 48.6996 91.9337C48.8833 91.9303 49.0653 91.9687 49.2319 92.046C49.5152 92.1736 49.7417 92.4011 49.8679 92.685L49.9529 93.016V93.102L50.0379 93.259C50.0356 93.2818 50.0382 93.3048 50.0454 93.3265C50.0526 93.3482 50.0644 93.3682 50.0799 93.385C50.0952 93.4012 50.1069 93.4204 50.1141 93.4415C50.1214 93.4625 50.124 93.4848 50.1219 93.507C50.1709 93.5975 50.2134 93.6914 50.2489 93.788C50.2841 93.8854 50.3265 93.98 50.3759 94.071C50.474 94.252 50.5589 94.4398 50.6299 94.633C50.6999 94.8282 50.7848 95.0178 50.8839 95.2C51.1099 95.567 51.3359 95.9 51.5639 96.217C51.7992 96.5393 52.0537 96.8472 52.3259 97.139C53.3124 98.3368 54.6002 99.2502 56.0569 99.785C56.4134 99.9447 56.7811 100.078 57.1569 100.185C57.5465 100.291 57.9442 100.365 58.3459 100.406C58.724 100.467 59.106 100.5 59.4889 100.506C59.8562 100.514 60.2666 100.514 60.7199 100.506C61.5511 100.505 62.3783 100.391 63.1789 100.167L63.5179 100.118L63.6859 100.094L63.7719 100.083L63.8599 100.069ZM37.5749 105.183C37.3214 105.477 37.0527 105.758 36.7699 106.025C36.4859 106.289 36.2172 106.568 35.9649 106.862C35.6809 107.129 35.3842 107.385 35.0749 107.631C34.7629 107.873 34.4389 108.131 34.0999 108.408C32.7636 109.361 31.3104 110.138 29.7759 110.721C29.4067 110.881 29.0234 111.007 28.6309 111.096C28.2619 111.173 27.8799 111.27 27.4859 111.382L26.3859 111.537C26.1891 111.568 25.9887 111.568 25.7919 111.537L25.5379 111.572L25.4519 111.583L25.3689 111.597L25.2829 111.61C24.8829 111.61 24.5059 111.602 24.1399 111.594C23.7841 111.592 23.4293 111.556 23.0799 111.489C22.314 111.476 21.5613 111.288 20.8799 110.938C20.5147 110.834 20.1599 110.697 19.8199 110.528C19.5072 110.371 19.1816 110.202 18.8429 110.022C18.5602 109.775 18.2919 109.527 18.0379 109.276C17.7849 109.028 17.5149 108.776 17.2379 108.535C16.3073 107.475 15.6132 106.229 15.2019 104.88C14.8744 103.556 14.7317 102.194 14.7779 100.831C14.8996 99.466 15.2137 98.1251 15.7109 96.848C15.8239 96.548 15.9509 96.248 16.0939 95.937C16.2369 95.626 16.3939 95.326 16.5589 95.017C16.9081 94.4444 17.3052 93.9025 17.7459 93.397C17.8115 93.294 17.8988 93.2065 18.0016 93.1406C18.1044 93.0746 18.2203 93.0318 18.3412 93.0151C18.4622 92.9983 18.5854 93.0081 18.7022 93.0436C18.819 93.0792 18.9268 93.1397 19.0179 93.221C19.1505 93.3244 19.2467 93.4675 19.2924 93.6294C19.3381 93.7913 19.3309 93.9635 19.2719 94.121V94.209C19.1629 94.4393 19.0778 94.6803 19.0179 94.928C18.9498 95.2013 18.865 95.4701 18.7639 95.733C18.7625 95.8644 18.7485 95.9953 18.7219 96.124C18.6955 96.2534 18.6814 96.385 18.6799 96.517C18.6081 96.743 18.5793 96.9804 18.5949 97.217C18.532 98.1827 18.6177 99.1523 18.8489 100.092C18.9901 100.917 19.3402 101.693 19.8659 102.345C20.2172 102.984 20.7485 103.506 21.3939 103.845C21.5575 103.933 21.7277 104.009 21.9029 104.071C22.057 104.126 22.2004 104.207 22.3269 104.311L23.3439 104.429C23.684 104.447 24.0251 104.428 24.3609 104.371L25.4609 104.219L25.5469 104.208V104.122L25.6319 104.109L25.7149 104.098L26.0559 104.049C26.1321 103.994 26.2179 103.954 26.3089 103.93C26.4004 103.906 26.4866 103.865 26.5629 103.809C26.7329 103.729 26.9039 103.649 27.0729 103.567C27.2419 103.485 27.4119 103.405 27.5799 103.324C27.8639 103.115 28.1449 102.905 28.4289 102.693C28.7386 102.457 29.0228 102.188 29.2769 101.893C29.3902 101.76 29.5316 101.612 29.7009 101.45C29.8709 101.282 30.0099 101.134 30.1249 101.004C30.2359 100.819 30.3499 100.644 30.4639 100.486C30.5779 100.328 30.6889 100.155 30.8029 99.969C31.3396 99.1952 31.8211 98.3845 32.2439 97.543C32.3549 97.296 32.4689 97.067 32.5829 96.851C32.6969 96.635 32.8089 96.407 32.9219 96.163C33.0349 95.919 33.1339 95.692 33.2219 95.477C33.3099 95.262 33.4039 95.014 33.5219 94.711C33.8612 93.8063 34.2002 92.817 34.5389 91.743C34.9329 90.719 35.2719 89.688 35.5559 88.65C35.8399 87.612 36.1226 86.5583 36.4039 85.489C36.5732 84.9557 36.7286 84.4223 36.8699 83.889C37.0099 83.354 37.1369 82.824 37.2519 82.295C37.3669 81.766 37.4919 81.234 37.6339 80.695C37.7759 80.156 37.9009 79.604 38.0159 79.015C38.0726 78.723 38.1292 78.4587 38.1859 78.222C38.2429 77.986 38.2989 77.722 38.3559 77.422C38.4129 77.122 38.4689 76.852 38.5259 76.585C38.5829 76.318 38.6389 76.042 38.6959 75.751L39.0349 74.076L39.3549 72.402L40.7119 65.624C40.9946 64.5 41.2489 63.38 41.4749 62.264C41.7009 61.148 41.9552 59.9997 42.2379 58.819C42.5206 57.6383 42.8172 56.4697 43.1279 55.313C43.4386 54.1563 43.7919 52.9797 44.1879 51.783C44.5839 50.5883 44.9936 49.3903 45.4169 48.189C45.8402 46.9877 46.3362 45.778 46.9049 44.56C47.0749 44.2986 47.217 44.0201 47.3289 43.729C47.4823 43.4117 47.6522 43.1026 47.8379 42.803C47.9378 42.6421 48.0228 42.4724 48.0919 42.296C48.1489 42.148 48.2049 42.012 48.2619 41.888C48.3837 41.7471 48.4847 41.5895 48.5619 41.42C48.6382 41.2491 48.7393 41.0904 48.8619 40.949L49.3709 40.109C49.5239 39.7697 49.7238 39.4536 49.9649 39.17C50.1265 38.8736 50.3107 38.5901 50.5159 38.322C50.7159 38.068 50.9259 37.78 51.1519 37.463C51.4346 37.1397 51.6749 36.8493 51.8729 36.592C52.093 36.3131 52.334 36.0513 52.5939 35.809C52.8769 35.484 53.1309 35.209 53.3569 34.974C53.5829 34.739 53.8369 34.495 54.1199 34.227C55.1906 33.2813 56.3235 32.4083 57.5109 31.614C58.6511 30.8821 59.8701 30.281 61.1449 29.822C62.3566 29.3903 63.606 29.0733 64.8769 28.875C65.054 28.8433 65.2358 28.8485 65.4108 28.8903C65.5858 28.9321 65.7503 29.0096 65.8939 29.118C66.0335 29.2271 66.1449 29.3682 66.2187 29.5293C66.2925 29.6905 66.3265 29.867 66.3179 30.044C66.3216 30.2884 66.2701 30.5306 66.1672 30.7523C66.0644 30.9741 65.9128 31.1699 65.7239 31.325C65.2699 31.73 64.8339 32.125 64.4079 32.492C63.9819 32.859 63.5459 33.254 63.0949 33.659C62.3616 34.447 61.6546 35.2593 60.9739 36.096C59.8374 37.6921 58.8724 39.4035 58.0949 41.202C57.6985 42.1135 57.3588 43.0486 57.0779 44.002C56.7939 44.9553 56.5109 45.9367 56.2289 46.946C55.9469 47.9553 55.7066 48.9887 55.5079 50.046C55.3079 51.1013 55.0959 52.158 54.8719 53.216C54.7026 54.3247 54.5192 55.4197 54.3219 56.501C54.1246 57.5823 53.9122 58.6823 53.6849 59.801C53.4589 60.9157 53.2469 62.03 53.0489 63.144C52.8509 64.258 52.6106 65.4043 52.3279 66.583L51.5659 70.026L50.8049 73.467C50.7212 74.0416 50.5792 74.6062 50.3809 75.152L49.9569 76.923C49.9002 77.2183 49.8436 77.512 49.7869 77.804C49.7275 78.1073 49.6425 78.405 49.5329 78.694C49.4231 78.9835 49.3384 79.2819 49.2799 79.586C49.219 79.8899 49.1341 80.1885 49.0259 80.479C48.7399 81.6597 48.4009 82.819 48.0089 83.957C47.8376 84.5523 47.6676 85.1327 47.4989 85.698C47.3302 86.2633 47.1322 86.8463 46.9049 87.447L45.6329 90.966C45.3502 91.5753 45.0959 92.1813 44.8699 92.784C44.6493 93.375 44.3945 93.9526 44.1069 94.514C43.5881 95.7462 42.9922 96.9446 42.3229 98.102C42.0512 98.7278 41.7097 99.3209 41.3049 99.87C40.9969 100.498 40.6285 101.094 40.2049 101.651C40.0376 101.957 39.8536 102.254 39.6539 102.54C39.4539 102.826 39.2439 103.127 39.0179 103.44C38.7339 103.767 38.4939 104.055 38.2969 104.31C38.0999 104.565 37.8589 104.855 37.5759 105.18" fill="white"/>
<path d="M137.494 58.203C137.594 58.2499 137.681 58.3215 137.746 58.411C137.811 58.5006 137.852 58.6052 137.866 58.715C137.908 58.9497 137.887 59.1916 137.803 59.415C137.679 59.6952 137.534 59.9659 137.37 60.225L136.999 61.089C136.875 61.356 136.688 61.736 136.442 62.23C136.196 62.724 135.987 63.125 135.823 63.439C135.532 63.979 135.253 64.518 134.986 65.056C134.716 65.593 134.44 66.156 134.151 66.736C133.818 67.2807 133.498 67.825 133.192 68.369C132.881 68.911 132.562 69.435 132.231 69.939C131.901 70.4857 131.561 71.0337 131.21 71.583C130.86 72.131 130.497 72.66 130.127 73.169C129.92 73.448 129.727 73.717 129.54 73.969C129.353 74.221 129.157 74.492 128.951 74.769C128.745 75.0043 128.518 75.2547 128.27 75.52C128.023 75.782 127.777 76.035 127.527 76.28C127.005 76.8313 126.446 77.3475 125.856 77.825C125.69 77.93 125.525 78.048 125.356 78.175C125.18 78.3093 124.994 78.4291 124.799 78.533C124.377 78.7912 123.918 78.9818 123.438 79.098L123.316 79.177L123.253 79.186L123.068 79.213C123.012 79.2131 122.958 79.2314 122.913 79.265C122.868 79.2983 122.814 79.3168 122.759 79.318L122.076 79.412C121.584 79.4819 121.085 79.4883 120.591 79.431C120.052 79.3613 119.529 79.2021 119.043 78.96C118.569 78.7591 118.146 78.4542 117.806 78.068C117.416 77.7821 117.115 77.3913 116.939 76.941C116.682 76.5888 116.493 76.1916 116.382 75.77C116.22 75.4269 116.106 75.0637 116.041 74.69C115.98 74.324 115.907 73.9593 115.824 73.596L115.639 71.56V71.436C115.433 71.882 115.215 72.326 114.989 72.775C114.763 73.224 114.524 73.675 114.276 74.124C114.07 74.4867 113.843 74.862 113.596 75.25C113.349 75.638 113.101 76.0163 112.853 76.385C112.564 76.757 112.275 77.1097 111.986 77.443C111.697 77.773 111.386 78.11 111.058 78.443C110.377 79.1748 109.583 79.792 108.706 80.271C107.803 80.8217 106.821 81.2314 105.795 81.486C105.665 81.4983 105.538 81.5374 105.424 81.601L105.363 81.61L105.3 81.618L105.237 81.627L105.052 81.654L104.311 81.754C103.736 81.8404 103.15 81.8377 102.576 81.746C101.967 81.7097 101.375 81.5357 100.843 81.237C100.287 80.9573 99.7847 80.5826 99.3579 80.13C98.933 79.6942 98.5782 79.1953 98.3059 78.651C98.1791 78.4133 98.0653 78.169 97.9649 77.919C97.8649 77.66 97.7699 77.413 97.6859 77.175C97.53 76.6918 97.4166 76.1959 97.3469 75.693C97.2842 75.2217 97.2326 74.7597 97.1919 74.307V72.939C97.1919 72.481 97.2139 72.019 97.2549 71.556C97.2959 71.132 97.3269 70.713 97.3479 70.292C97.3695 69.8649 97.421 69.4399 97.5019 69.02C97.5439 68.806 97.5759 68.602 97.5949 68.414C97.6218 68.2036 97.6739 67.9971 97.7499 67.799C97.8329 67.287 97.9149 66.86 97.9979 66.515C98.0812 66.129 98.1636 65.7323 98.2449 65.325C98.3299 64.917 98.4109 64.52 98.4929 64.132C98.6169 63.7413 98.7306 63.3413 98.8339 62.932C98.9339 62.522 99.0509 62.122 99.1729 61.732C99.2559 61.347 99.3599 60.956 99.4839 60.564C99.6079 60.172 99.7309 59.78 99.8559 59.39C99.9779 59.04 100.112 58.665 100.256 58.27C100.4 57.875 100.534 57.482 100.656 57.089C100.778 56.696 100.912 56.313 101.056 55.94C101.2 55.567 101.335 55.182 101.456 54.789C101.786 54.037 102.095 53.283 102.384 52.534C102.673 51.785 102.984 51.034 103.312 50.281C103.446 49.9102 103.613 49.5524 103.812 49.212C103.952 48.8235 104.119 48.4453 104.312 48.08C104.382 47.8868 104.464 47.6984 104.559 47.516C104.652 47.3314 104.735 47.1418 104.807 46.948L105.116 46.405L105.238 46.14L105.364 45.812C105.94 44.6426 106.917 43.7196 108.118 43.212C108.663 42.9544 109.256 42.8141 109.859 42.8003C110.462 42.7866 111.061 42.8996 111.618 43.132C112.138 43.3363 112.604 43.6577 112.979 44.0714C113.355 44.485 113.63 44.9797 113.783 45.517C114.154 46.6926 114.043 47.9673 113.474 49.061L113.413 49.133L112.98 50.067L112.48 51.135L111.994 52.128L111.494 53.128C111.164 53.842 110.853 54.528 110.568 55.196C110.283 55.864 109.968 56.551 109.638 57.264C109.019 58.6413 108.419 60.0163 107.838 61.389C107.257 62.7617 106.72 64.149 106.229 65.551C106.107 65.901 105.992 66.239 105.89 66.567C105.788 66.895 105.672 67.233 105.549 67.584C105.473 67.7379 105.421 67.9024 105.394 68.072C105.366 68.2423 105.314 68.4077 105.239 68.563C105.164 68.7179 105.112 68.883 105.085 69.053C105.057 69.2228 105.004 69.3878 104.93 69.543C104.847 69.887 104.776 70.22 104.715 70.543C104.654 70.866 104.58 71.179 104.497 71.48C104.419 71.7979 104.358 72.1197 104.313 72.444C104.269 72.744 104.228 73.044 104.187 73.336C104.102 73.8116 104.102 74.2984 104.187 74.774C104.179 74.9608 104.2 75.1478 104.25 75.328V75.64C104.291 75.7142 104.312 75.7974 104.313 75.882C104.378 75.9881 104.462 76.0816 104.56 76.158C104.613 76.2208 104.679 76.2706 104.754 76.3035C104.829 76.3365 104.911 76.3517 104.993 76.348C105.041 76.3711 105.093 76.385 105.147 76.389C105.2 76.3949 105.253 76.4087 105.302 76.43L105.365 76.421L105.426 76.415L105.487 76.406V76.469L105.672 76.444C106.181 76.458 106.687 76.366 107.159 76.174C107.72 76.0171 108.246 75.7525 108.707 75.395C108.954 75.238 109.207 75.054 109.48 74.85C109.752 74.6439 110.011 74.4204 110.254 74.181C110.502 73.936 110.754 73.681 110.997 73.419C111.251 73.1488 111.479 72.8555 111.678 72.543C112.142 71.9662 112.576 71.3654 112.978 70.743C113.391 70.101 113.783 69.463 114.154 68.829C114.525 68.152 114.867 67.469 115.175 66.78C115.483 66.091 115.805 65.39 116.134 64.68C116.134 64.639 116.145 64.616 116.167 64.612C116.189 64.608 116.197 64.587 116.197 64.544C116.279 64.118 116.352 63.712 116.414 63.327C116.476 62.942 116.549 62.537 116.631 62.11C116.837 60.8307 117.085 59.6307 117.374 58.51C117.498 57.91 117.631 57.3187 117.774 56.736C117.918 56.152 118.074 55.56 118.239 54.952C118.404 54.344 118.569 53.752 118.734 53.164C118.899 52.576 119.064 51.983 119.234 51.376L120.349 47.846C120.431 47.584 120.523 47.312 120.627 47.026C120.731 46.74 120.822 46.447 120.906 46.142L121.215 45.223C121.296 45.093 121.348 44.9475 121.369 44.796C121.39 44.6444 121.443 44.499 121.524 44.369C121.956 43.2086 122.776 42.2334 123.845 41.609C124.33 41.295 124.875 41.0861 125.446 40.996C126.017 40.906 126.6 40.9366 127.158 41.086C127.686 41.2173 128.177 41.4659 128.595 41.8134C129.013 42.1609 129.347 42.5983 129.573 43.093C129.818 43.6131 129.95 44.1792 129.96 44.7541C129.971 45.3289 129.859 45.8994 129.633 46.428C129.598 46.464 129.577 46.5111 129.573 46.561L129.51 46.57L129.201 47.363L128.892 48.156C128.768 48.467 128.655 48.756 128.551 49.016C128.447 49.276 128.351 49.542 128.272 49.804C128.065 50.3313 127.849 50.8727 127.624 51.428C127.399 51.9833 127.183 52.524 126.974 53.05C126.765 53.618 126.574 54.177 126.384 54.724C126.194 55.271 126.004 55.811 125.797 56.338C125.591 56.908 125.405 57.465 125.24 58.009C125.075 58.553 124.889 59.0893 124.683 59.618C124.477 60.188 124.302 60.7433 124.157 61.284C124.012 61.8267 123.836 62.3609 123.631 62.884C123.466 63.449 123.323 64 123.198 64.537C123.073 65.074 122.95 65.605 122.827 66.121C122.662 66.685 122.529 67.2247 122.427 67.74C122.325 68.2553 122.232 68.7683 122.147 69.279L121.962 70.805C121.962 71.014 121.951 71.235 121.929 71.466C121.907 71.697 121.899 71.917 121.899 72.125C121.939 72.3178 121.96 72.5141 121.962 72.711C121.96 72.8867 121.981 73.0618 122.025 73.232C122.064 73.351 122.085 73.4756 122.085 73.601C122.086 73.6236 122.093 73.6456 122.104 73.6654C122.115 73.6853 122.13 73.7026 122.148 73.716V73.779C122.189 73.815 122.189 73.836 122.148 73.842V73.905C122.224 73.9453 122.312 73.955 122.395 73.932C122.395 73.974 122.437 73.99 122.521 73.978L122.643 73.961L122.706 73.952L123.015 73.91C123.089 73.8593 123.174 73.8252 123.263 73.81C123.362 73.789 123.45 73.7324 123.51 73.651C123.675 73.544 123.851 73.437 124.036 73.328C124.239 73.2078 124.436 73.0763 124.625 72.934C124.831 72.739 125.025 72.563 125.214 72.416C125.425 72.2383 125.622 72.0433 125.801 71.833C126.008 71.638 126.212 71.451 126.421 71.277C126.642 71.0878 126.849 70.8815 127.038 70.66C127.41 70.2327 127.792 69.8047 128.184 69.376C128.575 68.946 128.958 68.498 129.33 68.029C129.702 67.56 130.073 67.093 130.443 66.624L131.558 65.224C131.888 64.718 132.238 64.233 132.61 63.764C132.982 63.295 133.332 62.811 133.664 62.305C133.938 61.964 134.177 61.5953 134.375 61.205C134.573 60.8144 134.811 60.4458 135.086 60.105L135.586 59.35C135.678 59.241 135.761 59.1243 135.834 59.001C135.916 58.866 135.997 58.728 136.08 58.593C136.143 58.4695 136.232 58.3606 136.34 58.2732C136.448 58.1858 136.572 58.1218 136.706 58.0853C136.84 58.0488 136.98 58.0406 137.118 58.0612C137.255 58.0818 137.387 58.1308 137.504 58.205" fill="white"/>
<path d="M167.769 53.867C168.304 54.084 168.43 54.467 168.141 55.002V55.065C167.645 56.051 167.15 57.026 166.656 57.99C166.162 58.954 165.666 59.9093 165.169 60.856C164.634 61.845 164.095 62.817 163.561 63.765C163.027 64.713 162.467 65.665 161.889 66.621C161.806 66.759 161.733 66.8847 161.672 66.998C161.611 67.109 161.538 67.2133 161.455 67.309C161.372 67.446 161.29 67.573 161.207 67.686C161.124 67.799 161.042 67.928 160.961 68.064C160.796 68.298 160.641 68.526 160.496 68.755C160.337 69.0011 160.161 69.235 159.968 69.455C159.805 69.6857 159.63 69.908 159.444 70.121C159.259 70.335 159.061 70.559 158.855 70.798C158.492 71.2984 158.054 71.739 157.555 72.104C157.095 72.6034 156.55 73.0175 155.946 73.327C155.617 73.5261 155.264 73.6802 154.894 73.785C154.496 73.9241 154.075 73.9829 153.655 73.958C153.235 73.945 152.819 73.8778 152.416 73.758C152.024 73.6742 151.661 73.4883 151.364 73.219C151.076 73.0087 150.807 72.7745 150.559 72.519C150.485 72.3739 150.391 72.2393 150.281 72.119C150.171 71.9986 150.077 71.8641 150.003 71.719C149.688 71.2033 149.438 70.6504 149.26 70.073C149.177 69.792 149.095 69.523 149.012 69.263C148.929 69.003 148.846 68.712 148.764 68.392C148.685 68.1236 148.633 67.8479 148.609 67.569C148.589 67.302 148.557 67.024 148.516 66.738L148.331 65.075C148.209 62.8364 148.271 60.5915 148.516 58.363C148.683 57.0897 148.931 55.723 149.26 54.263C148.407 54.5062 147.538 54.6899 146.66 54.813C145.316 55.0831 143.947 55.2111 142.576 55.195C141.537 55.1494 140.502 55.0429 139.476 54.876C139.439 54.9171 139.407 54.9632 139.383 55.013C139.359 55.0631 139.327 55.1096 139.29 55.151C139.081 55.7348 138.813 56.2957 138.49 56.825C138.373 57.1222 138.239 57.4127 138.09 57.695C137.945 57.965 137.79 58.2367 137.625 58.51C137.503 58.775 137.367 59.044 137.225 59.315C137.083 59.586 136.925 59.857 136.76 60.13C136.678 60.267 136.597 60.403 136.512 60.538C136.427 60.673 136.349 60.811 136.265 60.949C136.117 61.2334 135.95 61.5074 135.765 61.769C135.725 61.8558 135.665 61.9319 135.59 61.9908C135.515 62.0498 135.427 62.09 135.333 62.108C135.15 62.1599 134.956 62.1543 134.776 62.092C134.633 61.9818 134.53 61.8268 134.485 61.6518C134.44 61.4767 134.455 61.2916 134.528 61.126C134.688 60.8648 134.832 60.5947 134.961 60.317C135.085 60.049 135.208 59.782 135.333 59.517C135.458 59.252 135.589 58.98 135.733 58.71C135.877 58.44 136.011 58.171 136.133 57.905C136.255 57.596 136.38 57.305 136.502 57.04C136.624 56.775 136.75 56.506 136.874 56.24C137.122 55.664 137.349 55.112 137.555 54.584C137.59 54.5481 137.612 54.5011 137.616 54.451C137.081 54.234 136.542 53.997 136.007 53.737C135.458 53.4699 134.939 53.144 134.46 52.765C133.829 52.3403 133.283 51.8022 132.849 51.178C132.342 50.5145 131.964 49.7613 131.736 48.958C131.487 48.0933 131.424 47.186 131.549 46.295C131.637 45.3081 131.933 44.351 132.416 43.486C132.579 43.292 132.723 43.0838 132.849 42.864C132.926 42.7739 133.01 42.6894 133.099 42.611C133.186 42.531 133.269 42.4462 133.347 42.357C133.501 42.1777 133.666 42.0087 133.842 41.851C134.007 41.7017 134.192 41.5503 134.399 41.397C134.743 41.1521 135.117 40.9531 135.512 40.805C135.884 40.668 136.255 40.535 136.627 40.4L137.184 40.323L137.431 40.288L137.494 40.279L137.555 40.271L137.679 40.255L138.174 40.184C138.359 40.1616 138.545 40.1562 138.731 40.168C138.897 40.1875 139.064 40.1958 139.231 40.193C139.419 40.1945 139.606 40.2204 139.788 40.27C139.966 40.3176 140.142 40.3774 140.312 40.449C140.456 40.513 140.631 40.592 140.84 40.688C140.998 40.7855 141.143 40.9021 141.273 41.035C141.397 41.164 141.52 41.303 141.644 41.451C141.76 41.5897 141.854 41.7455 141.923 41.913C141.984 42.072 142.056 42.247 142.14 42.445C142.22 42.5941 142.272 42.7563 142.294 42.924C142.314 43.0876 142.346 43.2497 142.388 43.409C142.385 43.5858 142.395 43.7626 142.418 43.938C142.439 44.0914 142.45 44.2461 142.449 44.401C142.451 44.5805 142.44 44.7599 142.418 44.938C142.396 45.0941 142.386 45.2515 142.388 45.409C142.348 45.5649 142.327 45.7251 142.325 45.886C142.323 46.0476 142.301 46.2083 142.262 46.365C142.221 46.5377 142.16 46.8377 142.077 47.265L143.314 47.092C145.247 46.8077 147.139 46.292 148.949 45.556C149.454 45.4018 149.95 45.2182 150.434 45.006C150.929 44.7907 151.424 44.586 151.919 44.392C152.414 44.158 152.899 43.923 153.375 43.692C153.851 43.461 154.355 43.223 154.892 42.981L156.315 42.471C156.8 42.2714 157.324 42.1806 157.848 42.2049C158.372 42.2293 158.885 42.3682 159.35 42.612C159.81 42.844 160.211 43.1777 160.522 43.5879C160.833 43.998 161.047 44.4738 161.147 44.979C161.311 45.7451 161.257 46.5418 160.992 47.279C160.736 48.0257 160.3 48.6981 159.723 49.237C159.124 49.8397 158.566 50.4811 158.052 51.157C157.804 51.5243 157.556 51.9023 157.308 52.291C157.06 52.68 156.834 53.076 156.627 53.48C155.715 55.2069 154.949 57.0072 154.338 58.862C154.212 59.338 154.09 59.803 153.966 60.262C153.842 60.721 153.718 61.182 153.595 61.656C153.553 61.871 153.512 62.105 153.471 62.363C153.43 62.621 153.388 62.853 153.347 63.063C153.303 63.2944 153.272 63.5281 153.254 63.763C153.235 63.9979 153.204 64.2315 153.16 64.463C153.079 64.923 153.039 65.389 153.038 65.856V67.231C153.079 67.4338 153.099 67.6401 153.099 67.847C153.099 68.0542 153.119 68.2609 153.16 68.464C153.203 68.8398 153.308 69.2058 153.471 69.547C153.555 69.7994 153.68 70.036 153.842 70.247C153.889 70.3334 153.953 70.4098 154.029 70.472C154.07 70.507 154.1 70.525 154.122 70.522C154.144 70.519 154.172 70.536 154.213 70.569C154.256 70.564 154.299 70.5695 154.339 70.585C154.378 70.5996 154.42 70.6044 154.461 70.599C154.536 70.5894 154.61 70.5689 154.679 70.538C154.747 70.5054 154.821 70.4841 154.896 70.475C155.07 70.4076 155.236 70.3218 155.391 70.219C155.556 70.114 155.74 70.005 155.948 69.891C156.359 69.6435 156.733 69.3407 157.061 68.991C157.441 68.6818 157.793 68.3398 158.113 67.969L159.167 66.76C159.255 66.6593 159.338 66.5538 159.414 66.444C159.499 66.329 159.58 66.224 159.662 66.128C159.813 65.9059 159.98 65.6954 160.162 65.498C161.441 63.7947 162.598 62.004 163.627 60.139C163.916 59.6837 164.184 59.2293 164.432 58.776C164.68 58.3227 164.928 57.851 165.175 57.361C165.423 56.8677 165.671 56.385 165.918 55.913C166.168 55.44 166.394 54.962 166.601 54.475C166.645 54.3621 166.712 54.2592 166.796 54.1723C166.881 54.0854 166.982 54.0163 167.094 53.969C167.301 53.8546 167.543 53.8191 167.775 53.869M136.012 44.598C136.086 44.8633 136.213 45.1111 136.384 45.327C136.549 45.5384 136.736 45.7324 136.941 45.906L137.684 46.366C137.832 46.4194 137.977 46.4822 138.117 46.554C138.256 46.6281 138.401 46.6916 138.55 46.744C138.802 46.8803 139.071 46.9813 139.35 47.044C139.657 47.1114 139.967 47.1619 140.28 47.195C140.362 46.768 140.424 46.466 140.465 46.295C140.464 46.1474 140.474 46 140.496 45.854C140.516 45.7283 140.526 45.6013 140.526 45.474C140.569 45.3395 140.59 45.1991 140.589 45.058V44.651C140.613 44.1915 140.528 43.7328 140.342 43.312C140.254 43.1496 140.15 42.9964 140.031 42.855C139.922 42.7492 139.796 42.6617 139.659 42.596C139.283 42.4606 138.877 42.4301 138.485 42.508C138.379 42.5248 138.275 42.5498 138.174 42.583C138.053 42.62 137.929 42.6475 137.803 42.665V42.728L137.747 42.733L137.686 42.741L137.623 42.749C137.574 42.7607 137.531 42.789 137.501 42.829C137.436 42.8367 137.372 42.856 137.314 42.886C137.278 42.9128 137.236 42.9297 137.192 42.935C136.821 43.1301 136.503 43.4104 136.262 43.753C136.146 43.8794 136.08 44.0442 136.077 44.216C136.03 44.338 136.008 44.4684 136.014 44.599" fill="white"/>
<path d="M180.646 84.325C180.359 84.906 180.068 85.479 179.779 86.041C179.49 86.603 179.179 87.175 178.851 87.763C178.523 88.351 178.179 88.928 177.829 89.498C177.479 90.068 177.097 90.632 176.684 91.189C176.482 91.4997 176.266 91.8 176.034 92.089C175.808 92.368 175.59 92.65 175.384 92.929C175.136 93.2117 174.888 93.496 174.641 93.782C174.394 94.068 174.125 94.3553 173.836 94.644C173.547 94.892 173.247 95.1527 172.936 95.426C172.625 95.696 172.306 95.96 171.975 96.216L171.853 96.295L171.727 96.438C171.671 96.4785 171.609 96.5083 171.542 96.526C171.493 96.5368 171.449 96.5653 171.42 96.606C171.337 96.6997 171.23 96.7689 171.111 96.806C170.991 96.8412 170.883 96.9107 170.802 97.006C170.595 97.119 170.387 97.221 170.182 97.314C169.977 97.407 169.769 97.506 169.563 97.614C169.108 97.762 168.676 97.893 168.263 98.014C167.839 98.135 167.403 98.2061 166.963 98.226C166.099 98.3532 165.219 98.3279 164.363 98.151C163.506 98.0049 162.686 97.6945 161.947 97.237C161.161 96.7607 160.503 96.1012 160.028 95.315C159.743 94.9449 159.514 94.5348 159.348 94.098C159.185 93.6684 159.06 93.2254 158.974 92.774C158.848 91.8766 158.869 90.9646 159.037 90.074C159.133 89.2495 159.342 88.442 159.657 87.674C159.939 86.9405 160.269 86.2266 160.646 85.537C160.723 85.3695 160.816 85.2101 160.925 85.061C161.034 84.9111 161.127 84.7507 161.203 84.582C161.316 84.4287 161.42 84.2688 161.514 84.103L161.636 83.903L161.699 83.768L161.76 83.697L161.821 83.688C161.945 83.506 162.06 83.344 162.163 83.203C162.266 83.062 162.378 82.903 162.502 82.719C162.626 82.576 162.75 82.435 162.873 82.292C162.987 82.1604 163.112 82.0386 163.247 81.928C163.72 81.3772 164.239 80.8677 164.799 80.405C165.047 80.163 165.294 79.94 165.542 79.741L166.285 79.141C166.78 78.6963 167.286 78.2823 167.803 77.899C168.32 77.5157 168.825 77.143 169.318 76.781C169.818 76.381 170.318 76.007 170.835 75.665C171.352 75.323 171.857 74.965 172.352 74.608C173.343 73.928 174.354 73.246 175.386 72.562L178.173 70.673C178.255 70.373 178.347 70.064 178.451 69.759C178.555 69.454 178.646 69.148 178.729 68.845C179.429 66.5383 180.048 64.305 180.586 62.145C180.747 61.6764 180.88 61.199 180.986 60.715C181.086 60.242 181.203 59.768 181.327 59.292C181.203 59.559 181.068 59.82 180.927 60.068C180.786 60.316 180.627 60.558 180.462 60.789C180.074 61.4621 179.64 62.1074 179.162 62.72C178.915 63.003 178.667 63.299 178.419 63.604C178.155 63.927 177.865 64.2279 177.552 64.504C176.935 65.1149 176.25 65.6519 175.509 66.104C175.302 66.217 175.096 66.319 174.889 66.404C174.682 66.489 174.478 66.597 174.272 66.71C174.077 66.8104 173.868 66.8811 173.652 66.92C173.587 66.926 173.524 66.9454 173.467 66.977C173.41 67.0103 173.346 67.0308 173.28 67.037L173.095 67.061L173.034 67.07L172.973 67.079C172.731 67.1536 172.481 67.1982 172.229 67.212C171.981 67.228 171.729 67.229 171.486 67.223C171.279 67.209 171.043 67.179 170.773 67.134C170.503 67.089 170.249 67.041 170 66.991C169.794 66.891 169.576 66.791 169.35 66.675C169.125 66.5635 168.908 66.4373 168.7 66.297C168.307 65.9957 167.953 65.6467 167.646 65.258C167.371 64.9029 167.142 64.5141 166.966 64.101C166.883 63.901 166.812 63.716 166.749 63.537C166.686 63.358 166.614 63.173 166.532 62.975C166.308 62.1985 166.163 61.4015 166.099 60.596C166.058 60.2254 166.038 59.8528 166.038 59.48V58.358C166.038 57.983 166.047 57.606 166.069 57.229C166.091 56.852 166.121 56.493 166.162 56.153C166.243 55.4323 166.356 54.708 166.501 53.98C166.646 53.252 166.821 52.5187 167.027 51.78C167.234 51.042 167.44 50.328 167.646 49.632C167.852 48.936 168.101 48.232 168.39 47.532C168.64 46.8199 168.93 46.1222 169.257 45.442C169.587 44.7493 169.917 44.0673 170.248 43.396C171.011 41.9462 171.901 40.5674 172.909 39.276C173.404 38.6653 173.961 38.0253 174.58 37.356C175.171 36.6911 175.836 36.0953 176.561 35.58C176.932 35.2781 177.325 35.004 177.737 34.76C178.15 34.5153 178.583 34.2567 179.037 33.984C179.938 33.5354 180.896 33.2131 181.885 33.026C182.885 32.8429 183.902 32.7639 184.919 32.79C185.843 32.888 186.754 33.0752 187.642 33.349C188.055 33.4997 188.457 33.6623 188.849 33.837C189.222 34.0012 189.584 34.1906 189.932 34.404C190.139 34.542 190.314 34.665 190.46 34.768C190.606 34.871 190.76 34.977 190.925 35.079C191.101 35.1859 191.267 35.3088 191.42 35.446L191.605 35.609L191.851 35.763C192.272 36.1007 192.613 36.528 192.849 37.0138C193.085 37.4997 193.21 38.032 193.214 38.572C193.251 39.7456 192.854 40.8917 192.099 41.791C191.339 42.6999 190.29 43.3201 189.127 43.548C188.599 43.6683 188.051 43.6646 187.525 43.537C186.998 43.4095 186.509 43.1616 186.095 42.813L185.847 42.598L185.784 42.483L185.724 42.428L185.598 42.318L185.351 42.104C185.268 42.033 185.185 41.961 185.103 41.887C185.021 41.813 184.938 41.744 184.855 41.672C184.69 41.572 184.535 41.466 184.39 41.363C184.089 41.1919 183.78 41.0364 183.464 40.897C183.325 40.8587 183.191 40.8051 183.064 40.737C182.899 40.718 182.755 40.707 182.629 40.701C182.484 40.6999 182.34 40.7099 182.197 40.731C181.879 40.7396 181.564 40.805 181.269 40.924C180.905 41.0701 180.554 41.2439 180.217 41.444C179.809 41.6897 179.425 41.9737 179.071 42.292C178.678 42.6387 178.297 43.0053 177.926 43.392C177.113 44.2516 176.387 45.1895 175.759 46.192C175.426 46.6973 175.116 47.2093 174.829 47.728C174.542 48.2467 174.253 48.7973 173.962 49.38C173.673 49.92 173.407 50.4783 173.162 51.055C172.914 51.63 172.686 52.204 172.481 52.774C172.274 53.3847 172.088 53.973 171.925 54.539C171.759 55.104 171.614 55.685 171.49 56.288C171.248 57.3925 171.124 58.5194 171.119 59.65V60.405C171.118 60.6545 171.159 60.9023 171.241 61.138C171.284 61.5132 171.388 61.8788 171.55 62.22C171.598 62.3387 171.685 62.437 171.798 62.498C171.815 62.5537 171.847 62.6034 171.891 62.6418C171.935 62.6801 171.989 62.7055 172.046 62.715C172.088 62.7507 172.138 62.7764 172.191 62.7902C172.245 62.8041 172.301 62.8057 172.355 62.795C172.512 62.8558 172.683 62.8758 172.85 62.853L172.913 62.844L172.976 62.836L173.037 62.827L173.161 62.81L173.408 62.775C173.515 62.7215 173.63 62.6844 173.749 62.665C173.848 62.6533 173.944 62.6191 174.028 62.565C174.234 62.455 174.451 62.3313 174.678 62.194C174.904 62.059 175.141 61.91 175.389 61.751C175.595 61.597 175.813 61.421 176.039 61.223C176.27 61.02 176.487 60.8022 176.689 60.571C176.895 60.332 177.102 60.095 177.308 59.857C177.514 59.619 177.721 59.386 177.928 59.146C178.738 58.1123 179.482 57.0285 180.156 55.901C180.486 55.3137 180.806 54.7373 181.115 54.172C181.424 53.6067 181.744 53.0107 182.074 52.384C182.239 52.068 182.394 51.767 182.537 51.476C182.68 51.185 182.818 50.884 182.937 50.576C183.019 50.4 183.091 50.242 183.154 50.108C183.217 49.974 183.287 49.821 183.372 49.643L183.556 49.178L183.68 48.978L183.741 48.719L183.867 48.452C184.151 47.2947 184.829 46.2722 185.784 45.56C186.689 44.8239 187.841 44.4622 189.004 44.549C189.551 44.5666 190.085 44.7136 190.564 44.9781C191.043 45.2425 191.452 45.6167 191.758 46.07C192.075 46.5323 192.291 47.0561 192.393 47.6074C192.494 48.1587 192.478 48.7251 192.347 49.27C192.348 49.2789 192.347 49.288 192.344 49.2966C192.342 49.3051 192.337 49.3131 192.331 49.3198C192.325 49.3266 192.318 49.3321 192.31 49.3359C192.302 49.3397 192.293 49.3418 192.284 49.342L192.099 50.242L191.914 51.142C191.831 51.442 191.759 51.742 191.697 52.017C191.635 52.292 191.564 52.589 191.48 52.892C191.315 53.4993 191.161 54.094 191.017 54.676C190.873 55.258 190.718 55.852 190.552 56.458C190.219 57.5913 189.909 58.6863 189.622 59.743C189.335 60.7997 189.028 61.8913 188.699 63.018C188.895 62.8312 189.101 62.6562 189.318 62.494C189.534 62.3314 189.741 62.1565 189.937 61.97C190.391 61.574 190.845 61.1773 191.298 60.78C191.751 60.3827 192.206 59.9863 192.661 59.591C193.107 59.2017 193.531 58.788 193.931 58.352C194.322 57.922 194.724 57.4907 195.137 57.058C195.963 56.1913 196.747 55.2913 197.489 54.358C197.872 53.9164 198.223 53.4486 198.541 52.958C198.878 52.5386 199.188 52.0988 199.471 51.641C199.882 51 200.171 50.564 200.338 50.333V50.27C200.457 50.0905 200.633 49.956 200.838 49.888C201.041 49.8191 201.264 49.8331 201.457 49.927C201.541 49.9697 201.615 50.0299 201.674 50.1035C201.733 50.1772 201.776 50.2626 201.799 50.354C201.823 50.4455 201.826 50.5409 201.81 50.6338C201.793 50.7268 201.757 50.8151 201.704 50.893C201.537 51.2415 201.351 51.5807 201.147 51.909C200.9 52.319 200.653 52.7393 200.404 53.17C200.157 53.599 199.909 54.01 199.661 54.396C199.413 54.782 199.207 55.115 199.042 55.388C198.712 55.9347 198.361 56.4627 197.988 56.972L196.866 58.505C196.453 59.02 196.051 59.515 195.659 59.984C195.267 60.453 194.844 60.932 194.39 61.413C193.564 62.3617 192.718 63.2707 191.851 64.14C191.027 64.9627 190.192 65.7557 189.345 66.519C188.498 67.2823 187.662 68.0553 186.837 68.838L186.28 70.416C186.073 71.0287 185.866 71.609 185.661 72.157C185.455 72.708 185.248 73.288 185.042 73.9C184.587 75.1293 184.132 76.296 183.679 77.4C183.225 78.546 182.751 79.6947 182.256 80.846C181.761 81.9973 181.224 83.1557 180.645 84.321M174.083 81.921C174.578 80.8503 175.011 79.79 175.383 78.74C175.464 78.6044 175.527 78.4588 175.57 78.307C175.61 78.1547 175.672 78.0092 175.755 77.875C175.604 77.9691 175.46 78.0723 175.322 78.184C175.183 78.2957 175.038 78.3995 174.887 78.495C174.433 78.891 173.979 79.2773 173.526 79.654C173.073 80.0307 172.619 80.417 172.165 80.813C171.215 81.613 170.328 82.3823 169.504 83.121C169.089 83.5117 168.708 83.908 168.359 84.31C168.01 84.712 167.669 85.104 167.335 85.486C167.252 85.58 167.17 85.674 167.087 85.77C167.004 85.866 166.922 85.957 166.84 86.054C166.694 86.2072 166.588 86.3936 166.531 86.597L166.283 86.88C166.259 86.9404 166.227 86.9978 166.19 87.051C166.152 87.1029 166.121 87.1594 166.097 87.219C166.015 87.4312 165.912 87.6343 165.788 87.825C165.623 88.1797 165.457 88.5773 165.288 89.018C165.214 89.2067 165.162 89.4033 165.134 89.604C165.116 89.7568 165.085 89.9077 165.041 90.055C165.028 90.3033 165.049 90.5521 165.102 90.795C165.095 90.8902 165.117 90.9853 165.165 91.068C165.21 91.1316 165.251 91.1985 165.287 91.268C165.397 91.3734 165.523 91.4617 165.659 91.53C165.85 91.6409 166.06 91.7174 166.278 91.756C166.526 91.7703 166.776 91.7562 167.021 91.714C167.297 91.6656 167.567 91.5865 167.826 91.478L168.197 91.238C168.267 91.2323 168.334 91.2018 168.384 91.152L168.445 91.08L168.508 91.071V91.008C168.669 90.9047 168.815 90.7795 168.941 90.636C169.076 90.4825 169.22 90.3372 169.373 90.201C169.704 89.8632 170.005 89.4972 170.273 89.107C170.54 88.7163 170.819 88.2923 171.11 87.835C171.397 87.378 171.667 86.913 171.915 86.441C172.163 85.969 172.428 85.483 172.715 84.985C172.963 84.4917 173.2 83.9917 173.426 83.485C173.652 82.9783 173.869 82.4587 174.076 81.926" fill="white"/>
<path d="M234.568 49.694C234.196 50.206 233.824 50.715 233.453 51.225L232.338 52.756C231.555 53.7387 230.75 54.7153 229.923 55.686C229.096 56.6567 228.21 57.603 227.263 58.525C226.806 59.005 226.343 59.464 225.863 59.905C225.383 60.346 224.883 60.792 224.348 61.243C223.346 62.1381 222.292 62.9729 221.192 63.743C220.078 64.6026 218.898 65.3717 217.662 66.043C217.332 66.216 217.001 66.385 216.671 66.558C216.348 66.7242 216.018 66.8741 215.68 67.007C215.349 67.137 215.01 67.257 214.659 67.367C214.308 67.477 213.946 67.603 213.576 67.738C213.237 67.8695 212.883 67.9601 212.522 68.008C212.151 68.0613 211.78 68.113 211.407 68.163C210.629 68.2809 209.84 68.3074 209.056 68.242C208.253 68.2367 207.458 68.0933 206.704 67.818C206.302 67.7138 205.908 67.5802 205.526 67.418C205.155 67.2627 204.784 67.0853 204.411 66.886C203.706 66.4814 203.061 65.9821 202.492 65.402C202.207 65.1128 201.94 64.8066 201.692 64.485C201.444 64.165 201.216 63.854 201.011 63.548C200.799 63.2356 200.613 62.9066 200.455 62.564C200.291 62.217 200.146 61.8615 200.02 61.499C199.775 60.7912 199.589 60.0644 199.463 59.326C199.3 58.6416 199.206 57.9423 199.185 57.239C199.164 56.5357 199.175 55.8253 199.216 55.108C199.257 54.3907 199.33 53.6937 199.433 53.017C199.533 52.337 199.672 51.671 199.833 51.024C200.502 48.4079 201.478 45.8802 202.742 43.494C203.031 42.871 203.342 42.277 203.67 41.709C203.998 41.141 204.351 40.583 204.722 40.031C205.093 39.479 205.465 38.94 205.837 38.407C206.221 37.8598 206.634 37.333 207.074 36.829C207.286 36.5443 207.514 36.2722 207.757 36.014C208.005 35.75 208.231 35.501 208.438 35.263C208.685 35.021 208.933 34.787 209.179 34.563C209.425 34.339 209.679 34.109 209.922 33.863C210.459 33.373 211.006 32.9113 211.563 32.478C212.128 32.0409 212.717 31.6356 213.328 31.264C213.865 30.9407 214.504 30.5807 215.247 30.184C215.577 30.055 215.917 29.923 216.269 29.791C216.621 29.659 216.98 29.526 217.352 29.391C217.725 29.2558 218.108 29.1502 218.498 29.075C218.895 29.0002 219.3 28.975 219.704 29C220.115 28.986 220.541 28.991 220.973 29.011C221.426 29.0402 221.874 29.1251 222.306 29.264C223.192 29.5171 224.015 29.9566 224.718 30.553C225.452 31.122 226.046 31.8521 226.453 32.687C226.84 33.4408 227.131 34.2405 227.318 35.067C227.439 35.8865 227.502 36.7136 227.505 37.542C227.508 38.3276 227.447 39.1121 227.324 39.888C227.242 40.276 227.148 40.654 227.046 41.023C226.944 41.392 226.846 41.747 226.768 42.092C226.519 42.8347 226.24 43.5607 225.931 44.27C225.611 45.0018 225.228 45.7045 224.786 46.37C224.385 47.0892 223.907 47.7631 223.362 48.38C222.845 49.1013 222.219 49.7376 221.506 50.266C221.173 50.5613 220.801 50.8613 220.391 51.166C220.28 51.207 220.176 51.2636 220.082 51.334L219.895 51.422C219.864 51.4624 219.82 51.4907 219.771 51.502C219.61 51.5959 219.445 51.6817 219.276 51.759C218.643 52.1003 217.98 52.3806 217.294 52.596C215.925 53.115 214.485 53.4206 213.023 53.502L211.91 53.471C211.733 53.4622 211.557 53.4445 211.382 53.418C211.205 53.3916 211.03 53.3538 210.858 53.305C210.169 53.1785 209.502 52.956 208.875 52.644C208.714 52.586 208.559 52.5134 208.412 52.427C208.269 52.3447 208.135 52.2478 208.012 52.138C207.874 52.0726 207.748 51.9844 207.64 51.877C207.484 51.7897 207.339 51.685 207.207 51.565C207 51.342 206.794 51.121 206.587 50.901C206.38 50.681 206.174 50.436 205.967 50.174C205.949 50.1598 205.934 50.1419 205.924 50.1215C205.914 50.1011 205.908 50.0788 205.907 50.056C205.906 50.0333 205.9 50.0111 205.889 49.9911C205.878 49.9712 205.863 49.954 205.844 49.941V50.941C205.842 51.4485 205.873 51.9556 205.938 52.459C205.999 52.93 206.071 53.39 206.155 53.836C206.234 54.2774 206.348 54.712 206.494 55.136C206.629 55.5291 206.784 55.915 206.959 56.292C207.205 56.9371 207.584 57.5229 208.072 58.011C208.247 58.2415 208.456 58.4439 208.692 58.611C208.899 58.749 209.126 58.884 209.372 59.016C209.59 59.1594 209.831 59.2631 210.085 59.322C210.381 59.3942 210.682 59.4473 210.985 59.481C211.33 59.561 211.683 59.6056 212.037 59.614C212.409 59.625 212.82 59.641 213.274 59.661C213.481 59.631 213.698 59.612 213.924 59.601C214.15 59.59 214.368 59.57 214.574 59.541C215.036 59.5606 215.498 59.4962 215.937 59.351C216.947 59.1665 217.94 58.903 218.909 58.563C219.404 58.3697 219.899 58.1557 220.394 57.921C220.889 57.6863 221.384 57.4293 221.878 57.15C222.378 56.874 222.858 56.575 223.334 56.26C223.81 55.945 224.273 55.63 224.727 55.315C225.677 54.643 226.616 53.9297 227.545 53.175C228.474 52.4203 229.371 51.628 230.236 50.798C230.443 50.605 230.66 50.407 230.888 50.208C231.12 50.0059 231.337 49.7876 231.538 49.555C231.738 49.362 231.96 49.145 232.188 48.903C232.416 48.661 232.631 48.426 232.838 48.187C233.045 47.948 233.353 47.628 233.768 47.215C234.183 46.802 234.487 46.48 234.694 46.242C234.887 46.0136 235.094 45.7975 235.314 45.595L235.56 45.246L235.869 44.891C235.934 44.7849 236.021 44.6937 236.123 44.6231C236.226 44.5525 236.342 44.5041 236.465 44.481C236.587 44.4579 236.713 44.4607 236.834 44.4891C236.956 44.5175 237.069 44.571 237.169 44.646C237.256 44.7134 237.329 44.7978 237.383 44.894C237.436 44.9902 237.47 45.0964 237.482 45.206C237.493 45.3156 237.482 45.4265 237.45 45.5318C237.418 45.6372 237.364 45.7349 237.293 45.819L237.169 46.019L237.045 46.219L236.736 46.638C236.653 46.775 236.571 46.9 236.489 47.016C236.407 47.132 236.323 47.258 236.241 47.393C236.075 47.666 235.808 48.048 235.436 48.538C235.064 49.028 234.775 49.411 234.571 49.689M207.824 41.603C207.576 42.0988 207.359 42.6094 207.174 43.132C206.989 43.658 206.811 44.182 206.648 44.705C206.34 45.6677 206.132 46.6596 206.028 47.665L206.091 47.72C206.586 47.985 207.061 48.21 207.515 48.398C207.965 48.5996 208.447 48.7224 208.939 48.761C208.988 48.7843 209.04 48.7982 209.094 48.802C209.147 48.8081 209.199 48.8219 209.248 48.843C209.309 48.8296 209.372 48.8296 209.433 48.843C209.493 48.8609 209.557 48.8637 209.618 48.851C209.73 48.8746 209.845 48.879 209.959 48.864C210.073 48.8509 210.188 48.8563 210.3 48.88C211.198 48.844 212.08 48.6366 212.9 48.269C213.311 48.087 213.715 47.886 214.107 47.663C214.499 47.44 214.901 47.198 215.314 46.931C215.518 46.779 215.714 46.6267 215.903 46.474C216.088 46.325 216.285 46.174 216.49 46.019C216.526 45.9766 216.568 45.9392 216.614 45.908C216.66 45.8769 216.702 45.8399 216.738 45.798L216.799 45.727L216.862 45.655C216.925 45.6207 216.978 45.5695 217.014 45.507C217.058 45.4321 217.11 45.3621 217.169 45.298C217.271 45.1778 217.365 45.0501 217.448 44.916C217.548 44.756 217.643 44.608 217.726 44.47C217.982 44.1294 218.171 43.7432 218.283 43.332C218.493 42.9646 218.661 42.5744 218.783 42.169C218.907 41.756 219.008 41.335 219.092 40.908C219.133 40.693 219.174 40.489 219.216 40.296C219.256 40.0986 219.277 39.8975 219.277 39.696C219.314 39.5082 219.335 39.3174 219.338 39.126V38.562C219.377 38.3865 219.387 38.2058 219.369 38.027C219.347 37.8737 219.337 37.7189 219.338 37.564C219.339 37.4185 219.329 37.273 219.308 37.129C219.289 37.0274 219.279 36.9243 219.277 36.821C219.238 36.7132 219.217 36.5996 219.216 36.485C219.217 36.3906 219.196 36.2972 219.153 36.213C219.136 36.0413 219.072 35.8776 218.968 35.74C218.88 35.6621 218.796 35.5793 218.718 35.492C218.615 35.3867 218.489 35.3081 218.349 35.263C218.022 35.0811 217.665 34.9614 217.295 34.91C217.083 34.8545 216.864 34.8322 216.645 34.844C216.428 34.855 216.211 34.855 215.995 34.844C215.534 34.8245 215.073 34.8882 214.634 35.032C213.645 35.3094 212.72 35.7779 211.911 36.411C211.457 36.7336 211.042 37.1059 210.671 37.521C210.3 37.907 209.95 38.309 209.619 38.732C208.927 39.628 208.326 40.5904 207.824 41.605" fill="white"/>
<path d="M267.75 39.95C268.285 40.168 268.41 40.55 268.122 41.087V41.148C267.626 42.1353 267.131 43.1103 266.637 44.073C266.143 45.0357 265.647 45.991 265.15 46.939C264.616 47.93 264.078 48.902 263.542 49.848C263.006 50.794 262.448 51.748 261.87 52.706C261.788 52.844 261.716 52.968 261.653 53.083C261.593 53.1936 261.521 53.2973 261.438 53.392C261.353 53.53 261.273 53.656 261.19 53.77C261.107 53.884 261.024 54.012 260.943 54.147C260.777 54.381 260.623 54.609 260.478 54.838C260.32 55.0846 260.144 55.3187 259.95 55.538C259.784 55.77 259.609 55.992 259.424 56.205C259.239 56.418 259.042 56.643 258.837 56.88C258.474 57.38 258.035 57.8206 257.537 58.186C257.076 58.6855 256.531 59.0996 255.926 59.409C255.597 59.6084 255.244 59.7631 254.874 59.869C254.477 60.0072 254.057 60.0653 253.637 60.04C253.217 60.0277 252.801 59.9605 252.398 59.84C252.006 59.7551 251.642 59.5689 251.344 59.3C251.058 59.09 250.79 58.8558 250.544 58.6C250.469 58.4551 250.376 58.3207 250.266 58.2C250.156 58.0794 250.063 57.9449 249.988 57.8C249.673 57.284 249.423 56.7307 249.244 56.153C249.163 55.8737 249.08 55.604 248.996 55.344C248.914 55.083 248.831 54.793 248.749 54.471C248.668 54.2029 248.616 53.9271 248.592 53.648C248.573 53.381 248.542 53.103 248.501 52.819L248.316 51.156C248.194 48.9174 248.256 46.6725 248.501 44.444C248.666 43.1707 248.913 41.802 249.244 40.338C248.392 40.5829 247.523 40.7667 246.644 40.888C245.3 41.1588 243.93 41.2869 242.559 41.27C241.522 41.2251 240.488 41.1186 239.464 40.951C239.427 40.9927 239.396 41.0387 239.37 41.088C239.347 41.1389 239.316 41.186 239.279 41.228C239.069 41.8121 238.799 42.373 238.474 42.902C238.357 43.1991 238.223 43.4895 238.074 43.772C237.929 44.042 237.774 44.3137 237.609 44.587C237.485 44.852 237.35 45.121 237.209 45.387C237.068 45.653 236.909 45.929 236.744 46.202C236.662 46.34 236.579 46.475 236.496 46.612C236.413 46.749 236.333 46.885 236.248 47.022C236.103 47.3071 235.938 47.5812 235.753 47.842C235.713 47.9293 235.653 48.0058 235.578 48.0652C235.503 48.1245 235.414 48.1649 235.32 48.183C235.137 48.2341 234.943 48.2285 234.763 48.167C234.62 48.0566 234.518 47.9015 234.473 47.7265C234.429 47.5515 234.444 47.3665 234.516 47.201C234.675 46.9393 234.819 46.6689 234.948 46.391L235.32 45.591C235.444 45.321 235.576 45.052 235.72 44.782C235.864 44.512 235.999 44.245 236.12 43.982C236.243 43.6727 236.366 43.3843 236.491 43.117C236.617 42.85 236.739 42.582 236.863 42.317C237.111 41.742 237.337 41.188 237.543 40.661C237.58 40.6265 237.602 40.5794 237.606 40.529C237.071 40.311 236.532 40.074 235.997 39.815C235.448 39.5473 234.929 39.2211 234.449 38.842C233.819 38.4173 233.273 37.8791 232.84 37.255C232.331 36.5926 231.953 35.8391 231.727 35.035C231.477 34.1706 231.413 33.2629 231.54 32.372C231.628 31.3857 231.924 30.4291 232.407 29.565C232.569 29.3699 232.714 29.1615 232.84 28.942C232.917 28.8526 233 28.7688 233.088 28.691C233.176 28.6107 233.259 28.5252 233.336 28.435C233.49 28.2561 233.656 28.0871 233.831 27.929C233.997 27.78 234.183 27.629 234.39 27.477C234.733 27.2303 235.107 27.0312 235.503 26.885C235.874 26.748 236.244 26.613 236.618 26.478L237.174 26.403L237.422 26.368L237.483 26.359L237.544 26.35L237.668 26.334C237.833 26.31 237.998 26.287 238.168 26.265C238.353 26.241 238.539 26.2356 238.725 26.249C238.889 26.2683 239.055 26.2767 239.22 26.274C239.408 26.2755 239.596 26.3014 239.777 26.351C239.956 26.397 240.132 26.4562 240.303 26.528C240.447 26.592 240.622 26.671 240.829 26.767C240.987 26.865 241.133 26.9815 241.264 27.114C241.388 27.244 241.51 27.384 241.635 27.53C241.751 27.6689 241.845 27.8247 241.913 27.992C241.976 28.1507 242.048 28.328 242.13 28.524C242.21 28.6731 242.262 28.8353 242.285 29.003C242.304 29.1674 242.336 29.3302 242.379 29.49C242.376 29.6664 242.386 29.8428 242.407 30.018C242.43 30.1713 242.441 30.3261 242.44 30.481C242.442 30.6606 242.431 30.84 242.407 31.018C242.387 31.1749 242.378 31.3329 242.379 31.491C242.338 31.6467 242.317 31.807 242.315 31.968C242.314 32.129 242.292 32.2892 242.252 32.445C242.213 32.619 242.152 32.919 242.068 33.345L243.305 33.174C245.238 32.8897 247.129 32.374 248.939 31.638C249.445 31.4835 249.942 31.2995 250.426 31.087C250.921 30.8737 251.416 30.6697 251.911 30.475C252.406 30.241 252.889 30.006 253.367 29.775C253.845 29.544 254.345 29.306 254.882 29.064L256.306 28.554C256.791 28.3542 257.314 28.2632 257.839 28.2873C258.363 28.3115 258.875 28.4503 259.34 28.694C259.801 28.9264 260.203 29.2611 260.515 29.6725C260.827 30.084 261.041 30.5613 261.14 31.068C261.303 31.8342 261.249 32.6306 260.985 33.368C260.728 34.1151 260.293 34.788 259.716 35.328C259.117 35.9303 258.559 36.5714 258.044 37.247C257.797 37.616 257.549 37.993 257.301 38.382C257.053 38.771 256.827 39.167 256.62 39.571C255.707 41.2975 254.941 43.0975 254.329 44.952C254.205 45.429 254.082 45.894 253.958 46.352C253.834 46.81 253.708 47.274 253.586 47.752C253.544 47.967 253.504 48.201 253.462 48.452C253.42 48.703 253.379 48.943 253.34 49.152C253.296 49.3834 253.264 49.6171 253.246 49.852C253.228 50.0869 253.197 50.3206 253.153 50.552C253.072 51.0122 253.031 51.4787 253.031 51.946V53.32C253.071 53.5233 253.091 53.7299 253.092 53.937C253.092 54.1439 253.112 54.3502 253.153 54.553C253.193 54.9245 253.293 55.2869 253.45 55.626C253.535 55.878 253.661 56.1144 253.822 56.326C253.869 56.412 253.932 56.4884 254.007 56.551C254.048 56.586 254.079 56.603 254.1 56.6C254.121 56.597 254.152 56.616 254.193 56.649C254.235 56.6426 254.278 56.6481 254.317 56.665C254.357 56.6801 254.399 56.6846 254.441 56.678C254.516 56.669 254.589 56.6488 254.658 56.618C254.726 56.5849 254.8 56.5636 254.875 56.555C255.05 56.4865 255.218 56.4 255.375 56.297C255.538 56.192 255.724 56.083 255.931 55.969C256.343 55.7228 256.717 55.4198 257.044 55.069C257.425 54.761 257.778 54.4193 258.098 54.048L259.15 52.837C259.239 52.7374 259.322 52.6326 259.398 52.523C259.481 52.407 259.564 52.303 259.646 52.206C259.797 51.9837 259.964 51.7732 260.146 51.576C261.424 49.873 262.582 48.083 263.611 46.219C263.9 45.7637 264.168 45.3093 264.416 44.856C264.664 44.4027 264.911 43.9307 265.157 43.44C265.407 42.949 265.657 42.465 265.901 41.994C266.145 41.523 266.377 41.043 266.582 40.554C266.627 40.4412 266.694 40.3383 266.779 40.2515C266.864 40.1646 266.965 40.0955 267.077 40.048C267.285 39.9351 267.526 39.8997 267.758 39.948M235.99 30.683C236.064 30.9481 236.191 31.1958 236.361 31.412C236.528 31.6224 236.715 31.816 236.92 31.99L237.661 32.45C237.81 32.5035 237.954 32.567 238.094 32.64C238.235 32.7124 238.38 32.7752 238.529 32.828C238.78 32.9661 239.049 33.0672 239.329 33.128C239.636 33.1958 239.946 33.2466 240.259 33.28C240.339 32.853 240.403 32.551 240.444 32.38C240.443 32.2325 240.453 32.0851 240.474 31.939C240.494 31.8134 240.505 31.6863 240.505 31.559C240.547 31.4248 240.569 31.2848 240.568 31.144V30.737C240.591 30.2768 240.506 29.8175 240.32 29.396C240.232 29.2338 240.129 29.0808 240.011 28.939C239.901 28.8346 239.775 28.7473 239.639 28.68C239.262 28.5449 238.856 28.5151 238.463 28.594C238.358 28.6105 238.255 28.6353 238.154 28.668C238.032 28.7055 237.908 28.7332 237.782 28.751V28.814L237.721 28.822L237.658 28.83L237.597 28.839C237.547 28.8496 237.503 28.8781 237.473 28.919C237.408 28.9257 237.344 28.9451 237.286 28.976C237.25 29.0025 237.208 29.0193 237.164 29.025C236.794 29.2198 236.475 29.4995 236.234 29.841C236.118 29.9674 236.052 30.1322 236.049 30.304C236.004 30.4271 235.983 30.5579 235.988 30.689" fill="white"/>
<path d="M227.827 99.939C227.368 100.706 226.844 101.432 226.262 102.11C225.717 102.837 225.134 103.544 224.513 104.233C223.871 104.942 223.188 105.615 222.469 106.246C222.119 106.546 221.758 106.846 221.387 107.146C221.018 107.446 220.605 107.757 220.159 108.068C219.333 108.66 218.432 109.139 217.48 109.494C216.538 109.933 215.534 110.225 214.503 110.359L214.131 110.411L213.015 112.369C212.102 113.957 211.083 115.48 209.963 116.929C209.374 117.705 208.74 118.445 208.063 119.146C207.392 119.84 206.685 120.515 205.942 121.17C205.542 121.47 205.149 121.781 204.75 122.087C204.351 122.393 203.932 122.703 203.488 123.015C203.237 123.148 203.013 123.267 202.818 123.371C202.623 123.475 202.399 123.593 202.148 123.726C201.707 124.024 201.232 124.267 200.733 124.451C200.51 124.574 200.272 124.67 200.026 124.735C199.803 124.792 199.568 124.862 199.319 124.947C199.069 125.032 198.819 125.102 198.576 125.164C198.333 125.226 198.076 125.296 197.829 125.381L197.457 125.433L197.236 125.463L197.161 125.474L197.084 125.485C196.845 125.572 196.596 125.632 196.343 125.662C196.082 125.648 195.82 125.66 195.561 125.697C195.277 125.735 194.991 125.75 194.705 125.741C193.598 125.741 192.496 125.59 191.43 125.294C190.886 125.121 190.362 124.892 189.866 124.609C189.374 124.33 188.902 124.02 188.451 123.679C187.566 123.012 186.831 122.167 186.292 121.198C186.018 120.733 185.769 120.253 185.548 119.761C185.341 119.285 185.167 118.795 185.028 118.294C184.712 117.347 184.488 116.371 184.362 115.38C184.264 114.905 184.214 114.422 184.213 113.937C184.213 113.451 184.188 112.965 184.138 112.481C184.136 110.598 184.286 108.717 184.587 106.858C184.734 105.935 184.908 105.021 185.107 104.118C185.306 103.215 185.529 102.32 185.776 101.433C186.271 99.7104 186.866 97.948 187.561 96.146C188.25 94.3613 189.046 92.6201 189.946 90.932C190.38 90.0373 190.864 89.1673 191.395 88.326C191.916 87.502 192.499 86.6444 193.144 85.753C193.44 85.3128 193.764 84.8916 194.113 84.492C194.458 84.092 194.83 83.6897 195.229 83.285C196.008 82.4034 196.854 81.5823 197.758 80.829C198.749 79.9603 199.85 79.2254 201.033 78.643C201.325 78.4546 201.636 78.2977 201.961 78.175C202.286 78.056 202.62 77.922 202.969 77.775L204.085 77.395L204.677 77.312C204.72 77.3093 204.761 77.2908 204.792 77.26C204.846 77.2194 204.911 77.197 204.979 77.196L205.128 77.174L205.199 77.165C206.208 76.9559 207.255 77.0452 208.214 77.422C209.101 77.7679 209.866 78.3675 210.414 79.146C211.288 78.8673 212.185 78.6665 213.094 78.546C213.394 78.555 213.694 78.546 213.987 78.535C214.31 78.521 214.633 78.5388 214.953 78.588C215.568 78.7156 216.168 78.9094 216.741 79.166C217.304 79.4543 217.829 79.8103 218.305 80.226C218.686 80.6514 219.033 81.1054 219.344 81.584C219.632 82.0239 219.87 82.4953 220.051 82.989C220.224 83.4595 220.361 83.9426 220.461 84.434C220.562 84.9207 220.637 85.3874 220.686 85.834C220.736 86.3043 220.761 86.777 220.76 87.25C220.81 88.1411 220.798 89.0345 220.725 89.924C220.648 90.8114 220.536 91.6907 220.387 92.562C220.108 94.2866 219.735 95.9947 219.271 97.679C219.023 98.5663 218.775 99.4147 218.527 100.224C218.279 101.033 217.981 101.863 217.634 102.714C217.534 103.028 217.422 103.336 217.301 103.626C217.18 103.916 217.064 104.226 216.965 104.537C217.213 104.452 217.46 104.382 217.711 104.32C217.97 104.255 218.22 104.158 218.455 104.03C218.755 103.887 219.061 103.73 219.383 103.562C219.705 103.394 220.042 103.207 220.383 103.008C221.043 102.609 221.677 102.169 222.283 101.692C222.905 101.205 223.513 100.695 224.106 100.161C224.406 99.871 224.692 99.58 224.962 99.29C225.232 99 225.521 98.712 225.819 98.42C226.122 98.1214 226.408 97.8059 226.675 97.475C226.947 97.136 227.207 96.825 227.457 96.539C227.665 96.2794 227.952 96.0941 228.275 96.011C228.42 95.978 228.57 95.9813 228.713 96.0206C228.856 96.0598 228.987 96.1338 229.095 96.236C229.209 96.3161 229.305 96.4185 229.378 96.5369C229.452 96.6553 229.5 96.7872 229.521 96.9249C229.542 97.0625 229.535 97.203 229.5 97.3377C229.465 97.4725 229.403 97.5988 229.318 97.709C229.069 98.0937 228.821 98.4664 228.574 98.827C228.327 99.1877 228.079 99.5597 227.83 99.943M208.103 112.153C208.612 111.566 209.084 110.948 209.516 110.302C209.527 110.302 209.537 110.3 209.547 110.295C209.557 110.291 209.565 110.284 209.572 110.276C209.58 110.268 209.585 110.259 209.588 110.249C209.591 110.238 209.592 110.228 209.591 110.217C209.375 110.163 209.163 110.092 208.958 110.005C208.753 109.919 208.543 109.848 208.328 109.793C207.828 109.612 207.358 109.413 206.91 109.199C206.475 108.993 206.053 108.764 205.644 108.511C204.07 107.396 202.709 106.007 201.626 104.411C201.459 104.247 201.31 104.066 201.18 103.871L201.105 103.657L201.031 103.666V103.517C200.986 103.48 200.948 103.434 200.92 103.382C200.891 103.331 200.854 103.286 200.81 103.247C200.71 103.01 200.595 102.776 200.472 102.542C200.349 102.308 200.238 102.076 200.138 101.842C199.746 100.914 199.446 99.9486 199.245 98.961C199.036 97.9361 198.936 96.892 198.945 95.846V94.946C198.898 94.9948 198.86 95.0504 198.83 95.111C198.802 95.1718 198.764 95.2278 198.719 95.277C197.885 96.5299 197.14 97.8394 196.488 99.196C195.152 101.825 194.104 104.591 193.362 107.446C193.213 108.168 193.075 108.864 192.952 109.533C192.825 110.215 192.739 110.904 192.693 111.596C192.535 112.793 192.56 114.007 192.765 115.196C192.827 115.694 192.952 116.183 193.137 116.65C193.237 116.835 193.337 117.011 193.437 117.171C193.537 117.331 193.637 117.482 193.737 117.618L194.145 117.974C194.289 118.094 194.453 118.186 194.63 118.246C195.035 118.415 195.46 118.532 195.894 118.595C196.163 118.654 196.439 118.666 196.712 118.633C196.836 118.61 196.963 118.618 197.083 118.657L197.308 118.626L197.533 118.593L198.428 118.469C198.579 118.449 198.727 118.416 198.872 118.369C199.019 118.326 199.168 118.292 199.319 118.269C200.614 117.922 201.845 117.37 202.966 116.634C204.203 115.814 205.374 114.898 206.466 113.893C206.766 113.603 207.052 113.312 207.323 113.023C207.594 112.734 207.857 112.448 208.105 112.163M213.018 84.802C212.551 84.9079 212.114 85.1186 211.74 85.4181C211.366 85.7176 211.064 86.0982 210.859 86.531C210.694 86.7409 210.544 86.9628 210.412 87.195C210.365 87.302 210.312 87.423 210.263 87.553C210.22 87.6756 210.17 87.7958 210.114 87.913C209.884 88.4339 209.734 88.9864 209.668 89.552C209.568 90.119 209.468 90.657 209.368 91.172C209.266 91.7038 209.191 92.2405 209.144 92.78C209.092 93.0589 209.055 93.3403 209.033 93.623C209.006 93.923 208.995 94.204 208.995 94.454C208.946 94.7157 208.934 94.983 208.959 95.248C208.983 95.521 208.995 95.807 208.995 96.107C209.046 96.3635 209.071 96.6245 209.07 96.886C209.072 97.1734 209.122 97.4584 209.219 97.729C209.229 97.9795 209.279 98.2267 209.368 98.461V98.68C209.368 98.73 209.392 98.752 209.445 98.744V98.893C209.483 98.959 209.507 99.0322 209.516 99.108C209.524 99.1851 209.55 99.2593 209.591 99.325C209.919 100.398 210.395 101.419 211.006 102.36C211.146 102.578 211.308 102.781 211.49 102.966C211.666 103.145 211.848 103.343 212.047 103.566C212.231 103.735 212.432 103.883 212.647 104.009C212.762 104.086 212.888 104.144 213.021 104.183C213.169 103.762 213.329 103.351 213.505 102.95C213.681 102.549 213.839 102.141 213.989 101.717C214.234 100.984 214.473 100.235 214.696 99.478C214.919 98.721 215.131 97.953 215.329 97.178C215.527 96.4407 215.677 95.6911 215.776 94.934C215.876 94.169 215.976 93.403 216.076 92.634C216.126 91.8945 216.139 91.1529 216.114 90.412C216.089 89.7036 216.027 88.997 215.929 88.295C215.882 87.6691 215.731 87.0555 215.48 86.48C215.335 85.9883 215.081 85.5355 214.737 85.155C214.604 85.0293 214.454 84.9235 214.291 84.841C214.252 84.7787 214.196 84.7292 214.129 84.6984C214.063 84.6677 213.989 84.6571 213.916 84.668C213.867 84.6761 213.816 84.6705 213.77 84.652C213.697 84.6316 213.62 84.6289 213.545 84.644C213.365 84.6673 213.19 84.7172 213.025 84.792" fill="white"/>
<path d="M264.562 87.145C264.685 87.258 264.769 87.4069 264.802 87.5705C264.836 87.7341 264.816 87.904 264.747 88.056C264.631 88.2944 264.528 88.5387 264.438 88.788L264.067 89.528C263.997 89.7215 263.914 89.9102 263.819 90.093C263.695 90.34 263.56 90.593 263.419 90.867C263.278 91.141 263.128 91.398 262.984 91.646C262.873 91.8266 262.78 92.0175 262.706 92.216C262.503 92.6966 262.277 93.1665 262.026 93.624C261.779 94.075 261.526 94.547 261.283 95.04C260.994 95.54 260.726 96.012 260.478 96.466C260.23 96.92 259.96 97.366 259.678 97.827C259.52 98.046 259.375 98.274 259.243 98.51C259.112 98.7469 258.968 98.9759 258.81 99.196C258.645 99.4287 258.49 99.659 258.345 99.887C258.2 100.115 258.045 100.345 257.882 100.576C257.549 101.039 257.229 101.49 256.923 101.928C256.617 102.366 256.276 102.82 255.901 103.289C255.159 104.23 254.33 105.098 253.425 105.883C253.178 106.126 252.93 106.346 252.684 106.549C252.438 106.752 252.166 106.954 251.879 107.161C251.589 107.327 251.279 107.505 250.949 107.696C250.613 107.89 250.26 108.054 249.895 108.187C249.689 108.255 249.484 108.327 249.278 108.397C249.076 108.466 248.869 108.516 248.658 108.546L247.978 108.64C247.855 108.657 247.73 108.663 247.606 108.66C247.482 108.66 247.336 108.644 247.173 108.627C247.041 108.601 246.907 108.588 246.773 108.588C246.634 108.588 246.496 108.553 246.373 108.488C246.21 108.427 246.054 108.375 245.908 108.334C245.762 108.293 245.608 108.24 245.443 108.179C245.182 108.003 244.935 107.808 244.702 107.596C244.569 107.52 244.453 107.418 244.361 107.296C244.261 107.166 244.161 107.043 244.083 106.93C243.794 106.517 243.565 106.065 243.402 105.588C243.329 105.381 243.266 105.17 243.215 104.957C243.176 104.775 243.133 104.583 243.091 104.381C243.015 104.016 242.974 103.645 242.969 103.272V102.272C243.01 101.958 243.031 101.641 243.032 101.324C243.032 101.029 243.052 100.735 243.092 100.443C243.134 100.143 243.177 99.857 243.216 99.579C243.255 99.301 243.299 99.037 243.342 98.779C243.423 98.1857 243.516 97.631 243.62 97.115C243.72 96.602 243.837 96.085 243.961 95.568L244.704 92.468C244.951 91.474 245.209 90.479 245.478 89.483C245.747 88.487 246.005 87.493 246.251 86.501C246.375 86.025 246.488 85.553 246.592 85.078C246.696 84.603 246.81 84.131 246.934 83.654C247.058 83.177 247.171 82.717 247.273 82.264C247.375 81.811 247.473 81.372 247.551 80.944C247.593 80.73 247.651 80.451 247.738 80.106C247.682 80.1073 247.629 80.1258 247.584 80.159C247.559 80.184 247.526 80.1995 247.49 80.203C247.293 80.2908 247.107 80.4005 246.934 80.53C246.738 80.6345 246.551 80.7553 246.375 80.891C246.2 81.0256 246.014 81.1447 245.819 81.247C245.445 81.508 245.076 81.79 244.704 82.092C244.324 82.4008 243.972 82.7425 243.652 83.113C243.475 83.2709 243.308 83.4403 243.152 83.62C242.987 83.808 242.821 83.998 242.657 84.188C242.493 84.378 242.337 84.565 242.192 84.752C242.047 84.939 241.892 85.129 241.729 85.317C241.15 86.107 240.584 86.923 240.029 87.773C239.474 88.623 238.924 89.48 238.388 90.345C238.146 90.8131 237.879 91.268 237.588 91.708L237.214 92.385C237.09 92.611 236.967 92.836 236.842 93.06C236.636 93.5073 236.409 93.9453 236.162 94.374C235.908 94.8181 235.681 95.2773 235.482 95.749C235.027 96.6877 234.582 97.6247 234.149 98.56C233.716 99.4953 233.314 100.426 232.943 101.353C232.736 101.841 232.55 102.315 232.386 102.776C232.221 103.236 232.034 103.712 231.83 104.195C231.745 104.418 231.664 104.657 231.58 104.919C231.496 105.181 231.417 105.419 231.333 105.64C231.246 105.875 231.173 106.114 231.115 106.358C231.058 106.602 230.986 106.842 230.9 107.077C230.891 107.077 230.882 107.079 230.874 107.083C230.866 107.086 230.859 107.092 230.853 107.099C230.848 107.105 230.843 107.113 230.841 107.122C230.838 107.13 230.838 107.139 230.839 107.148L230.715 107.789C230.523 109 229.895 110.1 228.95 110.881C228.057 111.675 226.892 112.095 225.698 112.052C225.154 112.054 224.617 111.925 224.133 111.677C223.649 111.429 223.231 111.069 222.914 110.626C222.585 110.165 222.355 109.641 222.238 109.088C222.121 108.534 222.119 107.962 222.233 107.407C222.228 107.277 222.248 107.147 222.294 107.025L230.467 75.947C230.661 75.1436 231.147 74.441 231.83 73.976C232.469 73.5003 233.267 73.2884 234.058 73.384C234.404 73.4243 234.738 73.538 235.036 73.7175C235.335 73.897 235.592 74.1382 235.79 74.425C235.995 74.7174 236.139 75.048 236.213 75.397C236.287 75.7461 236.291 76.1066 236.223 76.457L233.006 94.721C233.169 94.2817 233.334 93.8413 233.499 93.4C233.665 92.962 233.829 92.5 233.994 92.018C234.079 91.8 234.171 91.556 234.275 91.293C234.379 91.03 234.468 90.787 234.553 90.568C234.636 90.306 234.739 90.0508 234.862 89.805C234.985 89.5598 235.089 89.3049 235.171 89.043C235.582 88.07 236.008 87.094 236.44 86.118C236.872 85.142 237.34 84.158 237.834 83.172C237.929 82.9299 238.043 82.6958 238.175 82.472C238.318 82.224 238.451 81.965 238.575 81.698L239.318 80.22C239.607 79.72 239.883 79.214 240.153 78.697C240.423 78.18 240.72 77.65 241.053 77.097C241.218 76.868 241.383 76.615 241.548 76.342C241.713 76.069 241.879 75.796 242.043 75.524C242.248 75.2867 242.455 75.0287 242.663 74.75C242.87 74.472 243.074 74.215 243.282 73.976C243.751 73.4437 244.247 72.9364 244.769 72.456C245.301 71.9177 245.904 71.4551 246.562 71.081C246.892 70.871 247.232 70.666 247.586 70.472C247.933 70.2781 248.295 70.1126 248.668 69.977C248.875 69.906 249.068 69.837 249.255 69.77L249.844 69.563C250.056 69.5417 250.265 69.492 250.464 69.415L250.773 69.373L250.895 69.356L251.082 69.329L251.204 69.312L251.328 69.295L251.578 69.26C251.742 69.2325 251.909 69.2298 252.073 69.252C252.268 69.2247 252.464 69.219 252.66 69.235C252.845 69.251 253.042 69.265 253.247 69.277C253.677 69.3494 254.094 69.4809 254.487 69.668C254.903 69.8358 255.297 70.0534 255.661 70.316C255.851 70.4396 256.028 70.5827 256.189 70.743C256.333 70.889 256.489 71.033 256.652 71.178C256.776 71.37 256.889 71.541 256.994 71.693C257.102 71.8589 257.195 72.0339 257.272 72.216C257.465 72.4931 257.611 72.8003 257.704 73.125C257.787 73.425 257.87 73.719 257.952 73.996C258.066 74.4794 258.129 74.9734 258.139 75.47C258.221 75.8827 258.221 76.3073 258.139 76.72C258.143 77.4204 258.081 78.1195 257.952 78.808C257.872 79.1038 257.81 79.4044 257.767 79.708C257.725 80.0117 257.663 80.3124 257.582 80.608C257.499 80.908 257.416 81.194 257.335 81.454C257.254 81.714 257.169 81.999 257.085 82.302L256.59 83.871C256.425 84.395 256.238 84.899 256.034 85.386C255.825 85.915 255.634 86.422 255.444 86.906C255.254 87.39 255.062 87.876 254.857 88.362C254.444 89.381 254.041 90.351 253.65 91.282C253.259 92.213 252.878 93.138 252.505 94.066L251.392 96.847C251.059 97.6837 250.728 98.5837 250.4 99.547C250.203 100.063 250.088 100.606 250.059 101.158C250.081 101.447 250.203 101.563 250.431 101.511C250.774 101.404 251.099 101.243 251.392 101.035C251.802 100.768 252.257 100.498 252.752 100.219C252.951 100.073 253.137 99.9115 253.309 99.735C253.474 99.567 253.64 99.409 253.809 99.261L254.924 98.168C255.624 97.444 256.304 96.703 256.965 95.945C257.626 95.187 258.287 94.4077 258.948 93.607C259.276 93.229 259.596 92.83 259.904 92.407C260.212 91.984 260.535 91.57 260.865 91.151C261.16 90.7681 261.427 90.3647 261.665 89.944C262.039 89.328 262.306 88.908 262.47 88.675L262.97 88.044L263.402 87.422L263.465 87.413C263.503 87.3055 263.567 87.209 263.651 87.1322C263.735 87.0554 263.837 87.0007 263.947 86.973C264.058 86.9454 264.174 86.9456 264.284 86.9737C264.394 87.0018 264.496 87.0569 264.58 87.134" fill="white"/>
<path d="M297.798 87.393L296.684 88.92C296.312 89.43 295.943 89.939 295.569 90.451C294.786 91.4337 293.981 92.4097 293.154 93.379C292.327 94.3483 291.441 95.2953 290.494 96.22C290.039 96.7 289.575 97.159 289.1 97.6C288.625 98.041 288.12 98.487 287.583 98.938C286.582 99.8339 285.528 100.669 284.427 101.438C283.314 102.298 282.134 103.068 280.897 103.738C280.567 103.911 280.238 104.08 279.908 104.253C279.585 104.419 279.255 104.569 278.917 104.702C278.584 104.831 278.243 104.951 277.895 105.062C277.543 105.173 277.184 105.298 276.812 105.431C276.473 105.563 276.12 105.654 275.76 105.703C275.389 105.756 275.016 105.803 274.645 105.858C273.867 105.976 273.077 106.002 272.293 105.936C271.491 105.931 270.695 105.787 269.941 105.512C269.54 105.407 269.147 105.273 268.765 105.112C268.394 104.957 268.021 104.778 267.65 104.58C266.945 104.176 266.299 103.677 265.731 103.096C265.446 102.806 265.178 102.5 264.931 102.177C264.681 101.858 264.455 101.546 264.248 101.241C264.037 100.929 263.852 100.6 263.694 100.257C263.529 99.91 263.384 99.5545 263.257 99.192C263.012 98.4841 262.827 97.7574 262.701 97.019C262.536 96.3349 262.443 95.6354 262.423 94.932C262.402 94.2287 262.412 93.5183 262.453 92.801C262.494 92.0837 262.566 91.386 262.67 90.708C262.77 90.03 262.909 89.364 263.07 88.717C263.739 86.1006 264.716 83.5729 265.981 81.187C266.268 80.562 266.581 79.97 266.907 79.402C267.233 78.834 267.59 78.276 267.961 77.724C268.332 77.172 268.704 76.633 269.076 76.1C269.46 75.552 269.873 75.0246 270.313 74.52C270.525 74.2359 270.753 73.9644 270.996 73.707C271.243 73.443 271.47 73.194 271.676 72.956C271.924 72.713 272.171 72.48 272.419 72.256C272.667 72.032 272.919 71.802 273.162 71.556C273.699 71.065 274.245 70.605 274.803 70.17C275.368 69.7332 275.957 69.3285 276.568 68.958C277.101 68.6327 277.741 68.2727 278.487 67.878C278.815 67.749 279.156 67.617 279.508 67.485C279.86 67.353 280.221 67.218 280.591 67.085C280.964 66.9495 281.347 66.8439 281.737 66.769C282.135 66.6935 282.54 66.6683 282.944 66.694C283.355 66.68 283.779 66.683 284.213 66.705C284.666 66.7342 285.113 66.8185 285.545 66.956C286.432 67.2102 287.254 67.6503 287.958 68.247C288.692 68.8154 289.285 69.5457 289.691 70.381C290.08 71.1343 290.371 71.934 290.558 72.761C290.68 73.5798 290.742 74.4063 290.745 75.234C290.746 76.0171 290.683 76.799 290.558 77.572C290.475 77.96 290.382 78.338 290.279 78.706C290.176 79.074 290.084 79.431 290.001 79.777C289.753 80.5197 289.474 81.2457 289.164 81.955C288.844 82.6866 288.462 83.3892 288.021 84.055C287.62 84.774 287.142 85.4479 286.597 86.065C286.08 86.7861 285.454 87.4218 284.74 87.949C284.409 88.249 284.04 88.549 283.625 88.849C283.515 88.8921 283.411 88.9492 283.316 89.019L283.129 89.105C283.1 89.1473 283.055 89.1766 283.005 89.187C282.845 89.2819 282.68 89.3681 282.51 89.445C281.878 89.786 281.215 90.0656 280.53 90.28C279.162 90.8004 277.721 91.1067 276.259 91.188L275.146 91.157C274.969 91.1482 274.793 91.1305 274.618 91.104C274.44 91.0776 274.265 91.0399 274.092 90.991C273.404 90.8628 272.737 90.6404 272.11 90.33C271.949 90.272 271.794 90.1994 271.647 90.113C271.504 90.031 271.37 89.9341 271.247 89.824C271.109 89.7582 270.984 89.67 270.875 89.563C270.719 89.4749 270.574 89.3696 270.442 89.249C270.235 89.028 270.031 88.806 269.823 88.585C269.615 88.364 269.41 88.122 269.203 87.86C269.185 87.8459 269.17 87.8281 269.16 87.8077C269.149 87.7873 269.143 87.7649 269.142 87.742C269.141 87.7195 269.135 87.6974 269.125 87.6775C269.114 87.6576 269.099 87.6403 269.081 87.627V88.627C269.079 89.1341 269.11 89.6409 269.174 90.144C269.237 90.617 269.307 91.075 269.392 91.523C269.471 91.9645 269.584 92.3992 269.731 92.823C269.866 93.2161 270.021 93.602 270.196 93.979C270.442 94.6241 270.821 95.2099 271.309 95.698C271.482 95.9298 271.692 96.1323 271.929 96.298C272.148 96.4458 272.375 96.5817 272.609 96.705C272.826 96.8478 273.067 96.9514 273.32 97.011C273.617 97.0816 273.917 97.1347 274.22 97.17C274.566 97.2501 274.919 97.2947 275.274 97.303C275.645 97.3143 276.057 97.33 276.511 97.35C276.718 97.32 276.933 97.301 277.161 97.29C277.389 97.279 277.604 97.257 277.811 97.23C278.272 97.2488 278.733 97.1844 279.172 97.04C280.182 96.8555 281.177 96.592 282.146 96.252C282.639 96.0573 283.133 95.8427 283.63 95.608C284.125 95.371 284.621 95.117 285.115 94.839C285.609 94.561 286.095 94.264 286.571 93.949C287.047 93.634 287.51 93.318 287.964 93.004C288.913 92.332 289.852 91.618 290.781 90.862C291.707 90.108 292.609 89.319 293.472 88.486C293.679 88.291 293.897 88.095 294.124 87.896C294.357 87.6947 294.574 87.4764 294.774 87.243C294.98 87.048 295.198 86.833 295.424 86.591C295.65 86.349 295.867 86.114 296.074 85.875C296.281 85.636 296.591 85.314 297.004 84.903C297.417 84.492 297.725 84.167 297.93 83.93C298.124 83.7022 298.331 83.4858 298.55 83.282L298.798 82.935L299.107 82.58C299.172 82.4738 299.259 82.3824 299.361 82.3117C299.464 82.241 299.58 82.1926 299.703 82.1695C299.825 82.1465 299.951 82.1493 300.072 82.1778C300.194 82.2063 300.308 82.2598 300.407 82.335C300.494 82.4026 300.567 82.487 300.62 82.5832C300.674 82.6795 300.707 82.7856 300.719 82.8951C300.73 83.0046 300.72 83.1154 300.687 83.2207C300.655 83.326 300.602 83.4237 300.531 83.508L300.407 83.708L300.283 83.908L299.974 84.327C299.889 84.464 299.809 84.589 299.726 84.705C299.643 84.821 299.56 84.947 299.479 85.082C299.313 85.355 299.044 85.735 298.674 86.227C298.304 86.719 298.013 87.1 297.807 87.378M271.054 79.302C270.806 79.7979 270.589 80.3086 270.404 80.831C270.219 81.357 270.044 81.8813 269.88 82.404C269.571 83.3665 269.363 84.3585 269.26 85.364L269.321 85.419C269.817 85.6857 270.292 85.9113 270.745 86.096C271.195 86.2983 271.677 86.4215 272.169 86.46C272.218 86.4823 272.27 86.4962 272.324 86.501C272.377 86.5062 272.429 86.5201 272.478 86.542C272.539 86.5286 272.602 86.5286 272.663 86.542C272.724 86.5592 272.788 86.5612 272.85 86.548C272.962 86.5727 273.077 86.5774 273.191 86.562C273.305 86.5482 273.42 86.5536 273.532 86.578C274.43 86.5426 275.313 86.3348 276.132 85.966C276.545 85.785 276.947 85.583 277.341 85.366C277.735 85.149 278.135 84.901 278.547 84.634C278.753 84.482 278.949 84.3297 279.136 84.177C279.321 84.028 279.518 83.877 279.725 83.72C279.761 83.6779 279.803 83.6409 279.849 83.61C279.894 83.5783 279.935 83.5414 279.971 83.5L280.034 83.428L280.095 83.357C280.159 83.3237 280.212 83.2722 280.247 83.209C280.292 83.1345 280.344 83.0645 280.402 83C280.506 82.8798 280.599 82.7518 280.683 82.617C280.783 82.458 280.878 82.311 280.961 82.173C281.216 81.8319 281.405 81.4459 281.517 81.035C281.727 80.6676 281.895 80.2775 282.017 79.872C282.142 79.457 282.245 79.0357 282.326 78.61C282.367 78.396 282.409 78.192 282.452 77.999C282.491 77.8014 282.511 77.6005 282.512 77.399C282.551 77.2114 282.572 77.0205 282.575 76.829V76.265C282.614 76.0895 282.625 75.9088 282.606 75.73C282.584 75.5767 282.574 75.4219 282.575 75.267C282.577 75.1214 282.566 74.9759 282.544 74.832C282.525 74.7304 282.515 74.6273 282.513 74.524C282.475 74.4159 282.455 74.3025 282.453 74.188C282.454 74.0936 282.433 74.0002 282.39 73.916C282.373 73.7441 282.308 73.5803 282.203 73.443C282.116 73.3644 282.033 73.281 281.955 73.193C281.851 73.0889 281.724 73.0108 281.584 72.965C281.258 72.7831 280.902 72.6628 280.532 72.61C280.32 72.5561 280.101 72.5339 279.882 72.544C279.666 72.5566 279.449 72.5566 279.232 72.544C278.77 72.5253 278.308 72.5896 277.869 72.734C276.881 73.0112 275.956 73.4797 275.148 74.113C274.692 74.4344 274.274 74.8057 273.901 75.22C273.532 75.606 273.18 76.008 272.851 76.429C272.158 77.3258 271.555 78.2888 271.051 79.304" fill="white"/>
<path d="M78.314 120.2L76.972 121.18C76.76 120.78 76.496 120.608 76.185 120.667C76.0356 120.694 75.9003 120.772 75.802 120.888C75.6989 121.002 75.6419 121.15 75.642 121.304C75.642 121.579 75.956 121.792 76.581 121.943C77.2055 122.055 77.7988 122.299 78.321 122.659C78.479 122.814 78.6011 123.002 78.6787 123.209C78.7562 123.416 78.7874 123.638 78.77 123.859C78.767 124.557 78.4985 125.228 78.019 125.735C77.5578 126.252 76.9379 126.6 76.257 126.726C75.7543 126.867 75.217 126.813 74.7524 126.575C74.2877 126.337 73.9301 125.932 73.751 125.442L75.137 124.53C75.2541 124.741 75.4025 124.933 75.577 125.1C75.6773 125.174 75.7926 125.226 75.9149 125.251C76.0371 125.276 76.1634 125.275 76.285 125.246C76.5158 125.233 76.732 125.129 76.8863 124.956C77.0405 124.784 77.1203 124.558 77.108 124.327C77.108 124.027 76.898 123.798 76.474 123.627C76.309 123.574 76.146 123.527 75.983 123.476C75.82 123.425 75.653 123.376 75.483 123.327C75.1131 123.236 74.7703 123.059 74.483 122.809C74.3537 122.661 74.2547 122.49 74.1918 122.304C74.1288 122.118 74.103 121.922 74.116 121.726C74.1116 121.113 74.3347 120.521 74.742 120.063C75.1437 119.594 75.6938 119.276 76.301 119.163C76.705 119.064 77.1311 119.115 77.5003 119.307C77.8695 119.498 78.1568 119.817 78.309 120.204" fill="white"/>
<path d="M80.3519 115.624C80.3553 115.325 80.4661 115.038 80.6639 114.814C80.8497 114.579 81.1131 114.418 81.4069 114.359C81.5372 114.329 81.6728 114.329 81.803 114.359C81.9333 114.39 82.0548 114.45 82.1579 114.535C82.2612 114.619 82.3432 114.726 82.3972 114.848C82.4512 114.969 82.4758 115.102 82.4689 115.235C82.4678 115.538 82.3574 115.83 82.1579 116.058C81.9745 116.296 81.7102 116.459 81.4149 116.515C81.2842 116.546 81.1482 116.546 81.0175 116.515C80.8868 116.484 80.7651 116.423 80.662 116.337C80.5589 116.251 80.4772 116.142 80.4234 116.019C80.3696 115.896 80.3451 115.762 80.3519 115.628M82.2219 118.25V125.408L80.5979 125.708V118.552L82.2219 118.25Z" fill="white"/>
<path d="M84.6489 117.79L86.2819 117.484V118.145C86.7565 117.523 87.4372 117.09 88.202 116.925C88.531 116.832 88.878 116.822 89.2118 116.896C89.5456 116.971 89.8557 117.127 90.1139 117.351C90.5782 117.936 90.7911 118.682 90.706 119.424V123.809L89.076 124.115V120.115C89.1274 119.628 89.0264 119.137 88.7869 118.71C88.5983 118.471 88.2559 118.399 87.7599 118.492C87.5235 118.523 87.2973 118.607 87.0983 118.738C86.8994 118.87 86.733 119.045 86.6119 119.25C86.3504 119.86 86.2369 120.524 86.2809 121.186V124.635L84.6479 124.943L84.6489 117.79Z" fill="white"/>
<path d="M98.6021 115.476V117.676C98.3259 117.355 97.9851 117.096 97.6021 116.916C97.278 116.791 96.924 116.765 96.5851 116.841C95.9772 116.954 95.4334 117.29 95.0601 117.783C94.6614 118.279 94.4472 118.898 94.4541 119.534C94.4354 119.818 94.4781 120.103 94.5792 120.369C94.6803 120.636 94.8375 120.877 95.0401 121.077C95.2431 121.256 95.4867 121.382 95.7496 121.445C96.0125 121.509 96.2869 121.507 96.5491 121.441C96.9242 121.374 97.2781 121.219 97.5821 120.989C97.9743 120.652 98.3167 120.262 98.5991 119.829V122.01C98.0133 122.449 97.338 122.754 96.6211 122.903C96.1531 123.019 95.6652 123.028 95.1929 122.932C94.7207 122.835 94.2759 122.634 93.8911 122.344C93.5254 122.048 93.2351 121.669 93.044 121.239C92.8528 120.808 92.7661 120.339 92.7911 119.869C92.7951 118.794 93.1928 117.757 93.9091 116.955C94.5995 116.112 95.5663 115.54 96.6381 115.341C97.2931 115.208 97.9718 115.255 98.6021 115.478" fill="white"/>
<path d="M106.949 117.567L101.909 118.515C101.911 118.759 101.961 118.999 102.058 119.223C102.155 119.446 102.296 119.648 102.473 119.815C102.651 119.956 102.858 120.054 103.08 120.102C103.302 120.149 103.531 120.144 103.751 120.088C104.124 120.026 104.471 119.858 104.751 119.604C105.104 119.23 105.403 118.808 105.638 118.351L107.01 118.872C106.818 119.248 106.594 119.606 106.34 119.943C106.118 120.233 105.864 120.498 105.582 120.731C105.316 120.948 105.022 121.128 104.707 121.266C104.381 121.408 104.039 121.512 103.688 121.574C103.253 121.691 102.797 121.701 102.358 121.605C101.918 121.508 101.508 121.308 101.162 121.02C100.827 120.686 100.569 120.284 100.405 119.841C100.24 119.398 100.173 118.924 100.209 118.453C100.183 117.403 100.508 116.374 101.134 115.531C101.737 114.735 102.62 114.199 103.604 114.031C104.027 113.915 104.471 113.904 104.899 113.999C105.327 114.094 105.725 114.292 106.058 114.576C106.38 114.923 106.626 115.334 106.78 115.781C106.934 116.229 106.993 116.704 106.953 117.176L106.949 117.567ZM105.282 116.529C105.255 116.348 105.188 116.174 105.087 116.021C104.986 115.868 104.853 115.739 104.697 115.643C104.541 115.546 104.366 115.485 104.184 115.463C104.002 115.441 103.818 115.459 103.643 115.515C103.448 115.551 103.26 115.619 103.087 115.715C102.912 115.808 102.753 115.927 102.613 116.068C102.469 116.211 102.347 116.374 102.249 116.552C102.145 116.741 102.068 116.943 102.018 117.152L105.282 116.529Z" fill="white"/>
<path d="M112.078 110.051L110.15 110.412L111.075 108.638L113.762 108.132V119.476L112.079 119.792L112.078 110.051Z" fill="white"/>
<path d="M120.886 118.526L119.652 117.826L122.315 113.626C122.172 113.673 122.048 113.712 121.948 113.741C121.867 113.766 121.784 113.786 121.701 113.802C121.291 113.894 120.865 113.886 120.458 113.78C120.051 113.674 119.676 113.472 119.363 113.191C119.036 112.901 118.778 112.541 118.608 112.138C118.438 111.735 118.36 111.299 118.38 110.862C118.414 109.807 118.798 108.793 119.471 107.98C120.144 107.167 121.068 106.601 122.098 106.371C122.556 106.266 123.033 106.266 123.491 106.37C123.95 106.473 124.379 106.679 124.748 106.971C125.112 107.248 125.404 107.608 125.6 108.021C125.796 108.434 125.89 108.888 125.874 109.345C125.797 110.449 125.417 111.51 124.774 112.411L120.886 118.526ZM120.019 110.426C120.004 110.695 120.052 110.964 120.159 111.212C120.265 111.46 120.428 111.68 120.633 111.855C120.838 112.025 121.08 112.144 121.34 112.205C121.599 112.266 121.869 112.266 122.128 112.205C122.712 112.077 123.236 111.757 123.618 111.297C123.999 110.837 124.217 110.263 124.235 109.665C124.248 109.399 124.199 109.133 124.091 108.889C123.984 108.646 123.821 108.43 123.616 108.26C123.41 108.09 123.168 107.97 122.909 107.91C122.649 107.85 122.379 107.852 122.12 107.914C121.543 108.045 121.025 108.362 120.646 108.815C120.266 109.269 120.046 109.835 120.019 110.426Z" fill="white"/>
<path d="M130.384 116.743L129.15 116.043L131.815 111.843C131.671 111.889 131.547 111.929 131.446 111.956C131.365 111.981 131.282 112.001 131.199 112.017C130.789 112.109 130.363 112.102 129.956 111.996C129.55 111.89 129.174 111.688 128.861 111.408C128.534 111.117 128.276 110.757 128.106 110.354C127.936 109.951 127.858 109.515 127.878 109.078C127.912 108.023 128.296 107.009 128.97 106.196C129.643 105.383 130.568 104.817 131.598 104.587C132.056 104.483 132.532 104.483 132.991 104.587C133.449 104.691 133.878 104.896 134.247 105.187C134.611 105.464 134.903 105.824 135.099 106.237C135.295 106.65 135.389 107.104 135.373 107.561C135.297 108.665 134.916 109.726 134.273 110.627L130.384 116.743ZM129.517 108.643C129.5 108.911 129.545 109.179 129.65 109.426C129.755 109.673 129.917 109.892 130.122 110.066C130.327 110.239 130.57 110.361 130.831 110.424C131.093 110.486 131.365 110.486 131.626 110.424C132.209 110.295 132.733 109.975 133.114 109.516C133.496 109.056 133.714 108.483 133.734 107.886C133.747 107.62 133.697 107.354 133.59 107.11C133.482 106.867 133.319 106.651 133.113 106.482C132.908 106.312 132.666 106.192 132.406 106.132C132.146 106.073 131.876 106.074 131.617 106.137C131.04 106.268 130.522 106.584 130.143 107.038C129.764 107.492 129.544 108.057 129.517 108.648" fill="white"/>
<path d="M139.131 108.809C138.736 108.608 138.408 108.294 138.19 107.908C137.972 107.522 137.872 107.08 137.903 106.637C137.9 105.724 138.231 104.842 138.833 104.156C139.426 103.442 140.252 102.959 141.166 102.792C141.563 102.693 141.977 102.686 142.378 102.771C142.778 102.856 143.154 103.031 143.476 103.283C143.787 103.543 144.032 103.871 144.193 104.243C144.354 104.615 144.425 105.019 144.401 105.423C144.394 105.921 144.282 106.412 144.072 106.863C143.862 107.315 143.558 107.717 143.181 108.042C143.626 108.198 144 108.509 144.235 108.917C144.505 109.374 144.641 109.898 144.626 110.429C144.638 111.401 144.294 112.344 143.659 113.079C143.029 113.834 142.152 114.34 141.183 114.508C140.748 114.619 140.294 114.632 139.853 114.547C139.412 114.462 138.996 114.281 138.633 114.017C138.296 113.751 138.029 113.408 137.853 113.017C137.677 112.625 137.598 112.197 137.622 111.769C137.599 111.188 137.726 110.61 137.99 110.092C138.254 109.573 138.648 109.132 139.132 108.809M139.272 111.401C139.262 111.636 139.305 111.871 139.397 112.087C139.489 112.304 139.629 112.497 139.806 112.652C139.985 112.803 140.197 112.91 140.425 112.964C140.653 113.018 140.891 113.018 141.119 112.964C141.633 112.851 142.095 112.57 142.431 112.164C142.767 111.759 142.957 111.252 142.972 110.726C142.983 110.493 142.941 110.26 142.847 110.046C142.753 109.833 142.611 109.643 142.431 109.494C142.252 109.344 142.04 109.239 141.813 109.185C141.586 109.131 141.349 109.131 141.122 109.184C140.606 109.288 140.143 109.571 139.816 109.984C139.47 110.375 139.277 110.879 139.272 111.401ZM139.481 106.337C139.471 106.55 139.51 106.762 139.595 106.957C139.68 107.152 139.809 107.325 139.972 107.462C140.134 107.597 140.326 107.692 140.531 107.74C140.737 107.788 140.951 107.788 141.156 107.74C141.617 107.637 142.031 107.383 142.333 107.019C142.635 106.655 142.807 106.202 142.823 105.729C142.832 105.519 142.792 105.311 142.707 105.119C142.622 104.927 142.494 104.758 142.333 104.624C142.171 104.489 141.981 104.395 141.777 104.346C141.573 104.298 141.36 104.297 141.156 104.344C140.687 104.434 140.267 104.691 139.972 105.066C139.662 105.417 139.489 105.867 139.482 106.335" fill="white"/>
<path d="M151.807 93.5554L68.3281 109.252L68.5009 110.171L151.98 94.4743L151.807 93.5554Z" fill="white"/>
<path d="M151.807 119.395L68.3281 135.092L68.5009 136.011L151.98 120.314L151.807 119.395Z" fill="white"/>
</g>
</g>
</g>
<defs>
<clipPath id="clip0_19_51">
<rect width="314.279" height="149.603" fill="white"/>
</clipPath>
</defs>
</svg>
