<svg width="186" height="79" viewBox="0 0 186 79" fill="none" xmlns="http://www.w3.org/2000/svg">
<g clip-path="url(#clip0_28_155)">
<path d="M32.64 55.751C32.7066 55.7438 32.7715 55.7256 32.832 55.697C32.8927 55.669 32.9575 55.6507 33.024 55.643C33.1565 55.5893 33.2948 55.5511 33.436 55.529C33.5774 55.5099 33.7159 55.4729 33.848 55.419C34.9379 55.0509 35.9876 54.5731 36.981 53.993C37.4756 53.7139 37.9442 53.3909 38.381 53.028C38.8017 52.6753 39.214 52.324 39.618 51.974C40.3788 51.2167 41.0604 50.3837 41.652 49.488C42.1643 48.6762 42.6056 47.8217 42.971 46.934C43.1518 46.5131 43.2986 46.0783 43.41 45.634C43.521 45.197 43.61 44.77 43.686 44.356C43.721 44.1437 43.7394 43.9291 43.741 43.714V43.079C43.741 42.896 43.732 42.706 43.714 42.505C43.696 42.304 43.667 42.118 43.632 41.937C43.5036 41.1541 43.282 40.3893 42.972 39.659C42.8606 39.4859 42.7604 39.3058 42.672 39.12C42.5777 38.9282 42.4576 38.7502 42.315 38.591C42.205 38.423 42.076 38.249 41.93 38.066C41.784 37.883 41.637 37.712 41.49 37.547C41.4033 37.4716 41.3208 37.3915 41.243 37.307C41.1569 37.2123 41.0555 37.1329 40.943 37.072C40.8563 36.9955 40.7739 36.9144 40.696 36.829C40.6099 36.7349 40.5084 36.6561 40.396 36.596C40.2087 36.4325 40.008 36.285 39.796 36.155C39.576 36.02 39.356 35.894 39.136 35.777C38.1808 35.2468 37.166 34.8319 36.113 34.541C34.9801 34.2474 33.8193 34.0751 32.65 34.027C32.026 34.0403 31.421 34.06 30.835 34.086C30.249 34.112 29.6447 34.1676 29.022 34.253C28.8911 34.2771 28.7564 34.2717 28.6278 34.2371C28.4993 34.2025 28.3801 34.1396 28.279 34.053C28.1798 33.9662 28.1014 33.8582 28.0494 33.7371C27.9975 33.6159 27.9735 33.4847 27.979 33.353C27.9772 33.0627 28.0842 32.7823 28.279 32.567C28.4677 32.3441 28.7325 32.1994 29.022 32.161C29.5707 32.085 30.1203 31.9816 30.671 31.851C31.2217 31.7203 31.7713 31.5796 32.32 31.429C33.3875 31.0694 34.4335 30.6491 35.453 30.17C35.9618 29.9161 36.4572 29.6361 36.937 29.331C37.412 29.031 37.89 28.693 38.366 28.331C39.2549 27.6677 40.0826 26.9261 40.839 26.115C41.5629 25.3591 42.2076 24.5311 42.763 23.644C43.3097 22.8483 43.7877 22.0076 44.192 21.131C44.5579 20.3086 44.852 19.4561 45.071 18.583C45.1443 18.1683 45.2177 17.7726 45.291 17.396C45.3661 17.0054 45.4212 16.6112 45.456 16.215V15.058L45.291 13.922C45.225 13.5508 45.1245 13.1866 44.991 12.834C44.855 12.4886 44.699 12.1514 44.524 11.824C44.1709 11.1195 43.707 10.4763 43.15 9.91898C42.856 9.66498 42.564 9.40098 42.271 9.12998C41.9505 8.83947 41.6006 8.58309 41.227 8.36498C39.6725 7.39288 37.9616 6.69696 36.17 6.30798C35.9448 6.22585 35.7151 6.15673 35.482 6.10098C35.244 6.04165 34.997 5.99265 34.741 5.95398C34.485 5.91698 34.241 5.87598 33.998 5.83598C33.755 5.79598 33.512 5.75698 33.257 5.71898C32.2677 5.59965 31.223 5.52331 30.123 5.48998L28.558 5.48498H26.937L25.287 5.60198C24.7377 5.64265 24.188 5.70065 23.638 5.77598C21.4208 6.04965 19.232 6.51813 17.097 7.17598C14.913 7.80343 12.8372 8.75972 10.941 10.012C10.4319 10.3002 9.94492 10.6257 9.48399 10.986C9.02466 11.3426 8.57566 11.6983 8.13699 12.053C7.94938 12.2675 7.74902 12.4705 7.537 12.661C7.32269 12.851 7.12031 13.0541 6.93099 13.269C6.71767 13.4772 6.51729 13.6983 6.331 13.931C6.147 14.158 5.96399 14.377 5.77999 14.585C5.44524 15.044 5.13385 15.5196 4.84699 16.01C4.55189 16.5127 4.29484 17.0369 4.07799 17.578C3.63361 18.5743 3.35527 19.6367 3.25399 20.723C3.25267 20.8445 3.24298 20.9658 3.225 21.086C3.20643 21.2242 3.19741 21.3635 3.19799 21.503V21.835C3.23739 21.957 3.25632 22.0848 3.25399 22.213C3.25156 22.478 3.26962 22.7428 3.30799 23.005C3.34269 23.2315 3.39791 23.4544 3.47299 23.671C3.66938 24.6016 3.98323 25.5035 4.40699 26.355C4.6229 26.7578 4.86196 27.1478 5.12299 27.523C5.37463 27.8886 5.64988 28.2373 5.94699 28.567C6.20417 28.9396 6.51952 29.2684 6.88099 29.541C7.06299 29.7 7.23799 29.841 7.40299 29.965C7.56799 30.089 7.74099 30.213 7.92399 30.333C8.09294 30.483 8.2773 30.6148 8.47399 30.726C8.65799 30.826 8.83999 30.942 9.02499 31.063C9.24027 31.1425 9.45123 31.2333 9.65699 31.335C9.85699 31.437 10.0493 31.53 10.234 31.614C10.454 31.6926 10.6737 31.7633 10.893 31.826C11.1123 31.8886 11.3327 31.959 11.554 32.037C11.6432 32.0683 11.7349 32.0924 11.828 32.109C11.939 32.13 12.049 32.153 12.159 32.176C12.2629 32.2203 12.375 32.2421 12.488 32.24L12.874 32.298C13.272 32.3724 13.6476 32.5373 13.9717 32.7801C14.2958 33.0229 14.5597 33.3369 14.743 33.698C14.9428 34.0725 15.0608 34.4852 15.0892 34.9088C15.1177 35.3323 15.0559 35.7571 14.908 36.155C14.7636 36.5748 14.55 36.9676 14.276 37.317C14.0027 37.6643 13.678 37.9678 13.313 38.217C12.9567 38.4658 12.5557 38.6434 12.132 38.74C11.7071 38.8356 11.2666 38.8397 10.84 38.752C10.7264 38.7564 10.6134 38.7342 10.51 38.687L10.455 38.639L10.235 38.616L10.125 38.575L10.015 38.537C9.95421 38.4796 9.87753 38.442 9.795 38.429C9.71229 38.4172 9.63535 38.3797 9.575 38.322C9.41552 38.2822 9.25939 38.23 9.108 38.166C8.979 38.11 8.84099 38.056 8.69599 38C8.40199 37.859 8.11799 37.715 7.84399 37.569C7.56999 37.423 7.284 37.26 6.99099 37.08C6.70724 36.9424 6.43904 36.7747 6.19099 36.58C5.95166 36.392 5.70433 36.2053 5.449 36.02C4.93684 35.6513 4.45831 35.238 4.01899 34.785C3.58132 34.3318 3.16871 33.8551 2.78299 33.357C2.40059 32.8632 2.06007 32.3384 1.765 31.788C1.43591 31.2472 1.15996 30.6759 0.940995 30.082C0.790701 29.7999 0.671019 29.5025 0.583994 29.195C0.492661 28.8763 0.410328 28.5563 0.336995 28.235C0.0446305 26.9654 -0.0481484 25.6581 0.061995 24.36C0.0616698 24.0349 0.0800328 23.71 0.116994 23.387C0.153994 23.071 0.208994 22.74 0.281994 22.4C0.325851 22.3318 0.345244 22.2507 0.336995 22.17L0.392994 22.054V21.943C0.387013 21.8941 0.396083 21.8446 0.418994 21.801C0.442498 21.7576 0.451934 21.708 0.445995 21.659L0.500994 21.43C0.564239 21.2731 0.610177 21.1098 0.637994 20.943C0.666072 20.7762 0.712003 20.6129 0.774994 20.456C1.2137 19.2226 1.74661 18.0247 2.36899 16.873C2.66233 16.3176 2.98333 15.7766 3.33199 15.25C3.68066 14.7233 4.05633 14.1936 4.45899 13.661C4.64099 13.4143 4.83299 13.1673 5.03499 12.92C5.23699 12.6726 5.448 12.423 5.66799 12.171C5.88699 11.919 6.108 11.679 6.32799 11.446C6.54799 11.213 6.76699 10.99 6.98699 10.775C7.89692 9.87262 8.87078 9.03712 9.90099 8.27498C11.9385 6.76975 14.1313 5.4871 16.442 4.44898C17.5719 3.92724 18.7277 3.46364 19.905 3.05998C21.0777 2.65998 22.2503 2.28665 23.423 1.93998C24.009 1.74998 24.586 1.58598 25.155 1.45298C25.724 1.31998 26.317 1.17398 26.941 1.01298C27.563 0.890312 28.1677 0.778979 28.755 0.678979C29.3423 0.578979 29.9467 0.486646 30.568 0.401979C31.7773 0.233312 32.996 0.110645 34.224 0.0339788C35.4604 -0.0434592 36.7011 -0.0213881 37.934 0.0999788C39.1775 0.210835 40.4092 0.427282 41.616 0.746979C41.909 0.818979 42.216 0.895979 42.523 0.980979C42.83 1.06598 43.137 1.16498 43.429 1.26998C44.0163 1.48265 44.6213 1.72965 45.244 2.01098C46.4008 2.60374 47.4885 3.32279 48.487 4.15498C49.5026 5.06679 50.39 6.11196 51.125 7.26198C51.8961 8.47956 52.4538 9.81979 52.774 11.225C53.1079 12.6916 53.2195 14.2002 53.105 15.7C53.0294 16.4575 52.9102 17.2101 52.748 17.954C52.5856 18.7033 52.3553 19.4364 52.06 20.144C51.7763 20.8628 51.4459 21.5623 51.071 22.238C50.7052 22.894 50.3019 23.5284 49.863 24.138C48.9744 25.3372 47.9607 26.4384 46.839 27.423C45.7597 28.3288 44.6006 29.1351 43.376 29.832C42.3629 30.4589 41.2961 30.9944 40.188 31.432L40.848 31.507C41.5522 31.5825 42.2502 31.7071 42.937 31.88C43.1203 31.9286 43.285 31.9796 43.431 32.033C43.578 32.086 43.742 32.133 43.931 32.184C44.2879 32.2952 44.6367 32.4309 44.975 32.59C45.3111 32.6955 45.6268 32.8571 45.909 33.068C46.0849 33.1474 46.2524 33.2442 46.409 33.357C46.5501 33.4645 46.6966 33.5646 46.848 33.657C47.4777 34.0922 48.0491 34.6064 48.548 35.187C49.0881 35.7789 49.5502 36.4376 49.923 37.147C50.105 37.527 50.2697 37.8993 50.417 38.264C50.5643 38.6322 50.6749 39.014 50.747 39.404C50.9667 40.215 51.0865 41.0499 51.104 41.89C51.1213 42.7481 51.057 43.606 50.912 44.452C50.8064 45.2957 50.6134 46.1262 50.336 46.93C50.0506 47.7322 49.7029 48.5109 49.296 49.259C48.906 50.0271 48.4553 50.7628 47.948 51.459C47.4546 52.1325 46.9129 52.7692 46.327 53.364C45.2148 54.5436 43.9375 55.5558 42.535 56.369C41.8824 56.7861 41.201 57.1563 40.496 57.477C39.7987 57.7936 39.1023 58.092 38.407 58.372C37.7044 58.6128 36.9885 58.8131 36.263 58.972C35.5657 59.1246 34.869 59.2486 34.173 59.344C33.99 59.368 33.816 59.395 33.652 59.417C33.479 59.4401 33.3041 59.4458 33.13 59.434L32.635 59.502L32.36 59.485L32.085 59.523C31.3886 59.5761 30.6887 59.562 29.995 59.481C28.605 59.3601 27.2563 58.946 26.038 58.266C25.4819 57.8948 24.9496 57.4894 24.444 57.052C23.9654 56.591 23.5416 56.0762 23.181 55.518C22.996 55.25 22.824 54.97 22.658 54.681C22.4935 54.3914 22.3556 54.0875 22.246 53.773L21.916 52.827C21.8548 52.6729 21.8177 52.5103 21.806 52.345C21.7693 52.3143 21.751 52.2253 21.751 52.078L21.696 51.978V51.814C21.6579 51.6846 21.6504 51.5481 21.6742 51.4153C21.698 51.2825 21.7524 51.1571 21.833 51.049C21.9865 50.8329 22.2097 50.6761 22.465 50.605C22.5711 50.5511 22.688 50.522 22.807 50.5198C22.926 50.5175 23.0439 50.5422 23.152 50.592C23.3353 50.674 23.482 50.8207 23.564 51.004L23.619 51.217V51.272L23.674 51.372C23.6722 51.3866 23.6737 51.4015 23.6784 51.4155C23.6831 51.4295 23.6908 51.4423 23.701 51.453C23.7109 51.4634 23.7185 51.4759 23.7231 51.4895C23.7278 51.5032 23.7295 51.5176 23.728 51.532C23.7597 51.5903 23.7871 51.6507 23.81 51.713C23.8327 51.7756 23.8601 51.8365 23.892 51.895C23.9557 52.0115 24.0108 52.1325 24.057 52.257C24.1025 52.3827 24.1577 52.5047 24.222 52.622C24.369 52.859 24.515 53.076 24.663 53.277C24.8156 53.4847 24.9806 53.6831 25.157 53.871C25.7982 54.6418 26.6326 55.2285 27.575 55.571C27.8067 55.6748 28.0457 55.7617 28.29 55.831C28.5424 55.8994 28.7999 55.9473 29.06 55.974C29.3052 56.0125 29.5528 56.0332 29.801 56.036C30.039 56.0413 30.3057 56.0413 30.601 56.036C31.1397 56.0352 31.6759 55.9619 32.195 55.818L32.415 55.787L32.524 55.772L32.58 55.765L32.64 55.751ZM15.596 59.044C15.4315 59.2336 15.2573 59.4145 15.074 59.586C14.8899 59.7556 14.7156 59.9356 14.552 60.125C14.368 60.297 14.1757 60.4636 13.975 60.625C13.775 60.781 13.563 60.948 13.343 61.125C12.477 61.7387 11.536 62.239 10.543 62.614C10.3037 62.7174 10.0553 62.7984 9.801 62.856C9.562 62.906 9.314 62.968 9.059 63.04L8.344 63.14C8.21644 63.16 8.08655 63.16 7.95899 63.14L7.794 63.162L7.73799 63.169L7.68399 63.178L7.628 63.186C7.37199 63.186 7.128 63.181 6.88699 63.176C6.6564 63.1743 6.42644 63.1516 6.19999 63.108C5.7028 63.1003 5.21396 62.9789 4.77099 62.753C4.5344 62.6862 4.30443 62.5978 4.08399 62.489C3.88399 62.3876 3.673 62.279 3.45099 62.163C3.26766 62.0043 3.09366 61.8443 2.92899 61.683C2.76499 61.523 2.58999 61.363 2.40799 61.206C1.80519 60.5244 1.35513 59.7218 1.088 58.852C0.875628 57.9996 0.783071 57.1219 0.812994 56.244C0.890412 55.3649 1.09243 54.5012 1.41299 53.679C1.48599 53.485 1.56899 53.292 1.661 53.093C1.753 52.894 1.85299 52.7 1.96099 52.5C2.1873 52.1308 2.44456 51.7816 2.72999 51.456C2.77293 51.3897 2.82965 51.3335 2.89628 51.2912C2.96291 51.2489 3.03789 51.2214 3.1161 51.2107C3.19431 51.1999 3.27392 51.2062 3.34949 51.229C3.42505 51.2519 3.49481 51.2907 3.55399 51.343C3.64039 51.4094 3.70309 51.5018 3.73281 51.6067C3.76253 51.7115 3.75768 51.8231 3.71899 51.925V51.982C3.64822 52.1302 3.59293 52.2854 3.55399 52.445C3.50976 52.6212 3.45466 52.7946 3.38899 52.964C3.38818 53.0487 3.37914 53.133 3.36199 53.216C3.34495 53.2993 3.33591 53.384 3.33499 53.469C3.28872 53.6139 3.27006 53.7662 3.27999 53.918C3.23939 54.5398 3.29504 55.1641 3.44499 55.769C3.537 56.3012 3.76427 56.8009 4.10499 57.22C4.33273 57.6329 4.67706 57.9696 5.095 58.188C5.2011 58.245 5.31143 58.2938 5.42499 58.334C5.52486 58.3695 5.61788 58.422 5.69999 58.489L6.35999 58.565C6.58069 58.5769 6.80202 58.5645 7.01999 58.528L7.73299 58.428L7.78899 58.421V58.365L7.84399 58.357L7.898 58.35L8.11899 58.319C8.16841 58.2834 8.22402 58.2572 8.28299 58.242C8.34239 58.2265 8.39837 58.2001 8.448 58.164L8.77899 58.008L9.108 57.851C9.292 57.717 9.474 57.581 9.659 57.444C9.85984 57.2913 10.0442 57.118 10.209 56.927C10.2823 56.843 10.374 56.748 10.484 56.642C10.594 56.534 10.684 56.442 10.759 56.355C10.831 56.236 10.905 56.123 10.979 56.021C11.053 55.919 11.125 55.808 11.199 55.688C11.5467 55.19 11.8588 54.668 12.133 54.126C12.205 53.967 12.279 53.82 12.353 53.68C12.427 53.54 12.5 53.394 12.573 53.237C12.646 53.08 12.71 52.937 12.765 52.795C12.82 52.653 12.883 52.495 12.957 52.302C13.177 51.7193 13.397 51.0823 13.617 50.391C13.8702 49.7384 14.0904 49.0736 14.277 48.399C14.4603 47.7323 14.6437 47.054 14.827 46.364C14.937 46.0193 15.037 45.6753 15.127 45.332C15.218 44.987 15.3 44.646 15.374 44.306C15.448 43.966 15.53 43.622 15.621 43.279C15.712 42.936 15.794 42.579 15.868 42.197C15.905 42.009 15.941 41.839 15.978 41.686C16.015 41.533 16.051 41.364 16.088 41.173C16.125 40.982 16.161 40.806 16.198 40.634C16.235 40.462 16.271 40.284 16.308 40.097L16.528 39.018L16.748 37.939L17.627 33.574C17.8103 32.85 17.9753 32.1286 18.122 31.41C18.2687 30.6913 18.4337 29.952 18.617 29.192C18.8003 28.4313 18.9927 27.6786 19.194 26.934C19.3953 26.1893 19.6243 25.4316 19.881 24.661C20.1377 23.8916 20.4043 23.12 20.681 22.346C20.9577 21.572 21.2793 20.7906 21.646 20.002C21.7562 19.8338 21.8483 19.6545 21.921 19.467C22.0204 19.2613 22.1305 19.061 22.251 18.867C22.3159 18.7633 22.3711 18.6538 22.416 18.54C22.453 18.44 22.489 18.357 22.526 18.277C22.6039 18.1866 22.6685 18.0856 22.718 17.977C22.767 17.8681 22.8317 17.7671 22.91 17.677L23.24 17.136C23.3396 16.919 23.4692 16.717 23.625 16.536C23.7298 16.3451 23.8491 16.1625 23.982 15.99C24.11 15.826 24.248 15.641 24.394 15.437C24.5773 15.229 24.733 15.042 24.861 14.876C25.0038 14.6978 25.1599 14.5306 25.328 14.376C25.511 14.167 25.676 13.989 25.823 13.838C25.97 13.687 26.134 13.53 26.318 13.357C27.013 12.7475 27.748 12.1853 28.518 11.674C29.2599 11.2019 30.0525 10.8148 30.881 10.52C31.6651 10.2394 32.4735 10.0325 33.296 9.90198C33.4109 9.88149 33.5288 9.88486 33.6423 9.91187C33.7559 9.93888 33.8626 9.98895 33.956 10.059C34.0469 10.1293 34.1194 10.2206 34.1673 10.3251C34.2152 10.4296 34.2371 10.5442 34.231 10.659C34.2333 10.8166 34.1998 10.9728 34.1332 11.1157C34.0665 11.2585 33.9683 11.3845 33.846 11.484C33.552 11.745 33.269 11.997 32.993 12.235C32.717 12.473 32.434 12.725 32.142 12.986C31.6647 13.4933 31.2063 14.0163 30.767 14.555C30.03 15.5823 29.4039 16.6848 28.899 17.844C28.6419 18.4297 28.4215 19.0309 28.239 19.644C28.055 20.258 27.873 20.89 27.688 21.544C27.503 22.198 27.349 22.859 27.221 23.538C27.093 24.217 26.955 24.898 26.809 25.58C26.699 26.294 26.5803 26.999 26.453 27.695C26.3257 28.391 26.188 29.0993 26.04 29.82C25.8933 30.538 25.756 31.2556 25.628 31.973C25.5 32.6903 25.3443 33.4283 25.161 34.187L24.67 36.402L24.17 38.622C24.1157 38.9904 24.0238 39.3522 23.896 39.702L23.621 40.843C23.5843 41.033 23.5477 41.222 23.511 41.41C23.4723 41.6053 23.4171 41.797 23.346 41.983C23.2748 42.1692 23.22 42.3613 23.182 42.557C23.1424 42.7527 23.0872 42.945 23.017 43.132C22.8317 43.8926 22.6117 44.6393 22.357 45.372C22.2463 45.7553 22.136 46.129 22.026 46.493C21.916 46.857 21.7893 47.2333 21.646 47.622L20.822 49.888C20.6387 50.28 20.4737 50.6703 20.327 51.059C20.1838 51.4396 20.0185 51.8116 19.832 52.173C19.4964 52.9668 19.1109 53.7387 18.678 54.484C18.5017 54.8874 18.2803 55.2695 18.018 55.623C17.8176 56.0277 17.5781 56.4118 17.303 56.77C17.1945 56.967 17.0753 57.158 16.946 57.342C16.817 57.526 16.68 57.72 16.534 57.924C16.35 58.134 16.194 58.324 16.067 58.484C15.94 58.644 15.783 58.835 15.6 59.044" fill="#11361F"/>
<path d="M80.315 28.818C80.38 28.8485 80.4362 28.8949 80.4784 28.9529C80.5205 29.011 80.5472 29.0788 80.556 29.15C80.5832 29.3016 80.5691 29.4578 80.515 29.602C80.4343 29.7837 80.3404 29.9591 80.234 30.127L79.994 30.687C79.914 30.86 79.794 31.106 79.633 31.427C79.472 31.748 79.333 32.007 79.233 32.211C79.045 32.561 78.864 32.9104 78.69 33.259C78.515 33.607 78.336 33.97 78.149 34.348C77.9344 34.7014 77.727 35.0544 77.527 35.407C77.327 35.758 77.119 36.098 76.904 36.425C76.69 36.779 76.4694 37.1344 76.242 37.491C76.015 37.846 75.78 38.191 75.542 38.519C75.408 38.7 75.281 38.874 75.161 39.038L74.777 39.553C74.6437 39.7057 74.4964 39.868 74.335 40.04C74.175 40.21 74.015 40.374 73.854 40.533C73.5155 40.8899 73.1537 41.224 72.771 41.533C72.663 41.601 72.556 41.678 72.449 41.76C72.3352 41.8471 72.2145 41.9247 72.088 41.992C71.8149 42.1593 71.5173 42.2828 71.206 42.358L71.127 42.409L71.086 42.415L70.966 42.432C70.9299 42.4323 70.8949 42.4442 70.866 42.466C70.8372 42.4879 70.8022 42.5001 70.766 42.501L70.323 42.562C70.0039 42.6073 69.6802 42.6113 69.36 42.574C69.0121 42.5286 68.6741 42.4255 68.36 42.269C68.0535 42.1386 67.7802 41.9411 67.56 41.691C67.3072 41.5056 67.1122 41.2521 66.998 40.96C66.8315 40.7317 66.709 40.4743 66.637 40.201C66.5323 39.9787 66.458 39.7432 66.416 39.501C66.376 39.2637 66.3294 39.0274 66.276 38.792L66.156 37.472V37.392C66.023 37.681 65.881 37.969 65.735 38.26C65.589 38.551 65.435 38.843 65.273 39.134C65.1397 39.3694 64.9927 39.6127 64.832 39.864C64.6714 40.1154 64.511 40.3607 64.351 40.6C64.1637 40.8414 63.9764 41.07 63.789 41.286C63.602 41.5 63.401 41.719 63.189 41.937C62.7477 42.4115 62.2328 42.8116 61.664 43.122C61.0788 43.4791 60.4424 43.7448 59.777 43.91C59.6928 43.9179 59.6111 43.9431 59.537 43.984L59.497 43.99L59.456 43.995L59.415 44.001L59.295 44.018L58.815 44.084C58.4412 44.1417 58.0608 44.1414 57.687 44.083C57.2922 44.0596 56.9079 43.9467 56.563 43.753C56.2027 43.5716 55.8768 43.3286 55.6 43.035C55.3246 42.7525 55.0945 42.429 54.918 42.076C54.8359 41.9221 54.7621 41.7639 54.697 41.602C54.631 41.434 54.571 41.274 54.516 41.12C54.4149 40.8067 54.3413 40.4852 54.296 40.159C54.2554 39.8537 54.222 39.5537 54.196 39.259V38.368C54.196 38.068 54.21 37.768 54.237 37.468C54.263 37.193 54.284 36.921 54.297 36.649C54.3112 36.3724 54.3446 36.097 54.397 35.825C54.424 35.687 54.445 35.554 54.457 35.432C54.4743 35.2952 54.5078 35.1609 54.557 35.032C54.611 34.7 54.664 34.423 54.718 34.199C54.772 33.9484 54.8254 33.691 54.878 33.427C54.933 33.162 54.986 32.905 55.039 32.653C55.1197 32.3997 55.1934 32.1397 55.26 31.873C55.326 31.607 55.4 31.348 55.48 31.092C55.534 30.843 55.601 30.592 55.68 30.335C55.759 30.078 55.84 29.827 55.921 29.574C56 29.347 56.087 29.104 56.182 28.848C56.277 28.592 56.362 28.337 56.444 28.083C56.526 27.829 56.61 27.583 56.704 27.338C56.798 27.093 56.885 26.846 56.966 26.592C57.18 26.104 57.38 25.616 57.566 25.13C57.752 24.644 57.954 24.159 58.166 23.669C58.2521 23.4287 58.3599 23.1968 58.488 22.976C58.5783 22.7242 58.6859 22.479 58.81 22.242C58.8554 22.117 58.9088 21.9951 58.97 21.877C59.0305 21.7574 59.0842 21.6346 59.131 21.509L59.331 21.157L59.41 20.985L59.491 20.772C59.8635 20.0127 60.4973 19.413 61.276 19.083C61.6294 18.9161 62.0138 18.8253 62.4045 18.8163C62.7952 18.8073 63.1834 18.8805 63.544 19.031C63.8805 19.1639 64.1817 19.3725 64.4245 19.6406C64.6673 19.9087 64.8451 20.2291 64.944 20.577C65.0634 20.9547 65.1072 21.3523 65.0729 21.7469C65.0386 22.1416 64.9268 22.5256 64.744 22.877L64.704 22.924L64.423 23.53L64.101 24.222L63.78 24.875L63.458 25.526C63.244 25.989 63.043 26.435 62.858 26.866C62.673 27.297 62.469 27.744 62.258 28.206C61.858 29.0987 61.47 29.99 61.094 30.88C60.718 31.77 60.3704 32.67 60.051 33.58C59.972 33.807 59.897 34.026 59.831 34.239C59.765 34.452 59.69 34.671 59.61 34.899C59.5608 34.999 59.5271 35.1059 59.51 35.216C59.4924 35.3267 59.4587 35.4341 59.41 35.535C59.3613 35.6356 59.3276 35.7427 59.31 35.853C59.2919 35.9632 59.2582 36.0703 59.21 36.171C59.156 36.394 59.11 36.61 59.071 36.817C59.032 37.024 58.983 37.229 58.93 37.425C58.8796 37.6312 58.8399 37.8398 58.811 38.05C58.783 38.243 58.756 38.437 58.73 38.628C58.6753 38.9363 58.6753 39.2518 58.73 39.56C58.7249 39.6811 58.7387 39.8022 58.771 39.919V40.119C58.7976 40.1671 58.8117 40.2211 58.812 40.276C58.8542 40.3448 58.9084 40.4055 58.972 40.455C59.0063 40.4958 59.0494 40.528 59.0982 40.5494C59.1469 40.5707 59.1999 40.5805 59.253 40.578C59.2845 40.5928 59.3184 40.6016 59.353 40.604C59.3875 40.6077 59.4212 40.6165 59.453 40.63L59.494 40.624H59.534L59.574 40.618V40.659L59.694 40.643C60.024 40.6521 60.3523 40.5925 60.658 40.468C61.0205 40.3674 61.3601 40.1976 61.658 39.968C61.818 39.868 61.985 39.747 62.158 39.615C62.3339 39.4813 62.5009 39.3363 62.658 39.181C62.819 39.022 62.98 38.859 63.139 38.687C63.3037 38.5118 63.4517 38.3217 63.581 38.119C63.8824 37.7444 64.1638 37.3542 64.424 36.95C64.6907 36.534 64.9447 36.1204 65.186 35.709C65.426 35.27 65.648 34.828 65.848 34.381C66.048 33.934 66.256 33.481 66.47 33.018C66.47 32.992 66.477 32.976 66.491 32.974C66.505 32.972 66.51 32.958 66.51 32.93C66.563 32.654 66.61 32.391 66.65 32.141C66.69 31.891 66.738 31.629 66.79 31.352C66.9234 30.5227 67.0837 29.744 67.271 29.016C67.3517 28.6274 67.4387 28.244 67.532 27.866C67.626 27.487 67.726 27.104 67.832 26.71C67.938 26.316 68.046 25.93 68.153 25.551C68.26 25.172 68.367 24.786 68.475 24.392L69.198 22.104C69.251 21.934 69.311 21.758 69.378 21.573C69.445 21.388 69.504 21.197 69.559 21L69.759 20.4C69.8114 20.3157 69.8455 20.2213 69.859 20.123C69.8727 20.0247 69.9068 19.9304 69.959 19.846C70.2378 19.0946 70.7677 18.4626 71.459 18.057C71.7735 17.8534 72.1271 17.7181 72.4971 17.6597C72.8671 17.6013 73.2452 17.6212 73.607 17.718C73.9489 17.8031 74.2671 17.9641 74.5381 18.1892C74.809 18.4143 75.0257 18.6976 75.172 19.018C75.3309 19.3552 75.4165 19.7222 75.4232 20.0949C75.43 20.4675 75.3576 20.8374 75.211 21.18C75.1883 21.2036 75.1745 21.2344 75.172 21.267L75.131 21.273L74.931 21.787L74.731 22.301C74.651 22.501 74.577 22.688 74.51 22.859C74.443 23.03 74.383 23.2 74.329 23.37C74.1957 23.712 74.0557 24.0627 73.909 24.422C73.7624 24.7814 73.622 25.1317 73.488 25.473C73.353 25.841 73.227 26.204 73.105 26.558C72.983 26.912 72.859 27.258 72.724 27.604C72.5907 27.9734 72.4704 28.3344 72.363 28.687C72.2557 29.0397 72.1354 29.3874 72.002 29.73C71.8687 30.0994 71.755 30.4594 71.661 30.81C71.5669 31.1628 71.453 31.51 71.32 31.85C71.213 32.216 71.12 32.574 71.039 32.922C70.958 33.27 70.878 33.614 70.799 33.949C70.6924 34.3144 70.6054 34.664 70.538 34.998C70.4707 35.332 70.4104 35.6654 70.357 35.998L70.237 36.987C70.237 37.122 70.23 37.266 70.216 37.416C70.202 37.566 70.197 37.708 70.197 37.843C70.2232 37.968 70.2369 38.0953 70.238 38.223C70.237 38.337 70.2508 38.4506 70.279 38.561C70.3047 38.6381 70.3178 38.7188 70.318 38.8C70.3191 38.8146 70.3232 38.8288 70.3303 38.8416C70.3374 38.8544 70.3472 38.8654 70.359 38.874V38.915C70.385 38.938 70.385 38.952 70.359 38.956V38.997C70.4082 39.023 70.4655 39.0291 70.519 39.014C70.519 39.041 70.546 39.052 70.6 39.044L70.679 39.033L70.72 39.027L70.92 39C70.9686 38.9678 71.0235 38.9463 71.081 38.937C71.1447 38.9242 71.2016 38.8887 71.241 38.837C71.348 38.768 71.462 38.699 71.582 38.627C71.714 38.5493 71.8416 38.4641 71.964 38.372C72.097 38.246 72.226 38.132 72.346 38.036C72.4833 37.9209 72.6108 37.7944 72.727 37.658C72.861 37.532 72.994 37.411 73.127 37.298C73.2706 37.1754 73.4044 37.0416 73.527 36.898C73.7684 36.6214 74.016 36.3437 74.27 36.065C74.523 35.786 74.77 35.496 75.013 35.192C75.256 34.888 75.494 34.585 75.735 34.281L76.458 33.371C76.672 33.043 76.899 32.729 77.14 32.424C77.381 32.119 77.608 31.806 77.823 31.478C78.0023 31.2562 78.1578 31.0162 78.287 30.762C78.4154 30.5092 78.5699 30.2706 78.748 30.05L79.07 29.56C79.1302 29.4895 79.184 29.4139 79.231 29.334C79.284 29.246 79.337 29.157 79.391 29.069C79.432 28.9888 79.4892 28.918 79.5591 28.8612C79.629 28.8044 79.7101 28.7629 79.797 28.7392C79.8839 28.7156 79.9748 28.7104 80.0638 28.724C80.1529 28.7375 80.2391 28.7696 80.315 28.818Z" fill="#11361F"/>
<path d="M99.915 26.0259C100.262 26.1659 100.344 26.4119 100.156 26.7619V26.8029C99.8347 27.4422 99.5137 28.0756 99.193 28.7029C98.8724 29.3302 98.551 29.9496 98.229 30.5609C97.882 31.2019 97.529 31.8319 97.187 32.4469C96.845 33.0619 96.478 33.6809 96.103 34.2979C96.049 34.3872 96.0024 34.4686 95.963 34.5419C95.9235 34.6133 95.8765 34.6803 95.823 34.7419C95.769 34.8309 95.716 34.9129 95.662 34.9859C95.608 35.0589 95.555 35.1429 95.502 35.2309C95.395 35.3829 95.294 35.5309 95.202 35.6789C95.0994 35.8381 94.9851 35.9895 94.86 36.1319C94.7541 36.2815 94.6406 36.4257 94.52 36.5639C94.4 36.7019 94.272 36.8479 94.138 37.0029C93.9029 37.3274 93.6185 37.6132 93.295 37.8499C92.9969 38.1737 92.6438 38.4422 92.252 38.6429C92.0392 38.7731 91.8098 38.874 91.57 38.9429C91.3133 39.0325 91.0415 39.0706 90.77 39.0549C90.4988 39.0454 90.2299 39.001 89.97 38.9229C89.7123 38.8667 89.4743 38.7424 89.281 38.5629C89.0945 38.4262 88.9199 38.274 88.759 38.1079C88.7108 38.0139 88.6503 37.9268 88.579 37.8489C88.5078 37.7709 88.4472 37.6838 88.399 37.5899C88.195 37.2556 88.0334 36.8971 87.918 36.5229C87.864 36.3409 87.811 36.1669 87.757 35.9979C87.703 35.8289 87.649 35.6409 87.596 35.4329C87.5448 35.2591 87.5113 35.0805 87.496 34.8999C87.483 34.7269 87.462 34.5469 87.436 34.3619L87.316 33.2839C87.2368 31.8327 87.2769 30.3775 87.436 28.9329C87.544 28.1076 87.7047 27.2206 87.918 26.2719C87.3646 26.4294 86.8009 26.5484 86.231 26.6279C85.3598 26.8027 84.4726 26.8855 83.584 26.8749C82.9116 26.8452 82.2414 26.7761 81.577 26.6679C81.553 26.6946 81.5328 26.7246 81.517 26.7569C81.5014 26.7896 81.4812 26.8199 81.457 26.8469C81.3208 27.2253 81.1462 27.5889 80.936 27.9319C80.8593 28.1246 80.7718 28.3129 80.674 28.4959C80.5807 28.6712 80.4807 28.8472 80.374 29.0239C80.295 29.1959 80.207 29.3699 80.113 29.5459C80.019 29.7219 79.92 29.8969 79.813 30.0739C79.76 30.1629 79.707 30.2509 79.652 30.3389C79.597 30.4269 79.546 30.5159 79.492 30.6059C79.3969 30.79 79.2893 30.9674 79.17 31.1369C79.1443 31.1932 79.1055 31.2426 79.0568 31.2809C79.008 31.3192 78.9509 31.3452 78.89 31.3569C78.7715 31.3907 78.6455 31.3872 78.529 31.3469C78.4362 31.2755 78.3699 31.175 78.3408 31.0616C78.3116 30.9482 78.3212 30.8282 78.368 30.7209C78.4717 30.5517 78.5655 30.3768 78.649 30.1969C78.729 30.0229 78.809 29.8499 78.89 29.6769C78.971 29.5039 79.056 29.3289 79.151 29.1539C79.246 28.9789 79.331 28.8049 79.413 28.6319C79.492 28.4319 79.573 28.2439 79.652 28.0709C79.731 27.8979 79.813 27.7249 79.893 27.5519C80.0537 27.1786 80.201 26.8206 80.335 26.4779C80.3582 26.4545 80.3723 26.4237 80.375 26.3909C80.028 26.2509 79.675 26.0969 79.332 25.9279C78.9769 25.7546 78.6416 25.5434 78.332 25.2979C77.9233 25.0225 77.5693 24.6736 77.288 24.2689C76.9591 23.8388 76.7142 23.3506 76.566 22.8299C76.4051 22.2694 76.3638 21.6813 76.445 21.1039C76.5023 20.4641 76.6938 19.8437 77.007 19.2829C77.1124 19.1582 77.2064 19.0243 77.288 18.8829C77.3381 18.8245 77.3923 18.7697 77.45 18.7189C77.5067 18.6669 77.5605 18.6118 77.611 18.5539C77.7108 18.4377 77.818 18.3281 77.932 18.2259C78.0387 18.1292 78.159 18.0312 78.293 17.9319C78.516 17.773 78.7587 17.6439 79.015 17.5479L79.738 17.2849L80.099 17.2349L80.259 17.2129L80.3 17.2069L80.34 17.2019L80.42 17.1919L80.741 17.1459C80.8608 17.1315 80.9816 17.1282 81.102 17.1359C81.2089 17.1484 81.3165 17.1537 81.424 17.1519C81.546 17.1529 81.6674 17.1697 81.785 17.2019C81.9009 17.2327 82.0145 17.2715 82.125 17.3179L82.467 17.4729C82.5696 17.5361 82.6639 17.6117 82.748 17.6979C82.828 17.7809 82.908 17.8719 82.988 17.9679C83.0635 18.0579 83.1246 18.1591 83.169 18.2679C83.209 18.3679 83.256 18.4849 83.309 18.6129C83.3608 18.7093 83.3947 18.8144 83.409 18.9229C83.4222 19.0292 83.4426 19.1344 83.47 19.2379C83.468 19.3525 83.4743 19.4672 83.489 19.5809C83.5028 19.6803 83.5094 19.7805 83.509 19.8809C83.5102 19.9972 83.5035 20.1135 83.489 20.2289C83.4753 20.33 83.4689 20.4319 83.47 20.5339C83.4441 20.6349 83.4303 20.7386 83.429 20.8429C83.4274 20.9475 83.4137 21.0515 83.388 21.1529C83.3614 21.2649 83.3214 21.4596 83.268 21.7369L84.068 21.6249C85.3214 21.4392 86.5479 21.1035 87.721 20.6249C88.0487 20.5251 88.3703 20.4063 88.684 20.2689C89.0047 20.1296 89.3257 19.9962 89.647 19.8689C89.968 19.7169 90.282 19.5689 90.591 19.4139C90.9 19.2589 91.226 19.1139 91.574 18.9529L92.496 18.6219C92.8107 18.4926 93.1499 18.4339 93.4897 18.4498C93.8296 18.4657 94.1618 18.5558 94.463 18.7139C94.7611 18.8652 95.0207 19.0825 95.2222 19.3491C95.4237 19.6158 95.5618 19.9249 95.626 20.2529C95.7328 20.7501 95.6981 21.2673 95.526 21.7459C95.3601 22.2298 95.0778 22.6656 94.704 23.0149C94.3161 23.4057 93.9544 23.8216 93.621 24.2599C93.4604 24.4979 93.2997 24.7429 93.139 24.9949C92.978 25.2469 92.832 25.5039 92.697 25.7649C92.1032 26.8871 91.6048 28.0572 91.207 29.2629C91.126 29.5709 91.046 29.8729 90.966 30.1629C90.886 30.4529 90.805 30.7629 90.726 31.0629C90.699 31.2019 90.672 31.3539 90.646 31.5209C90.62 31.6879 90.592 31.8389 90.566 31.9769C90.5374 32.127 90.5174 32.2785 90.506 32.4309C90.494 32.5832 90.4736 32.7348 90.445 32.8849C90.393 33.1821 90.3666 33.4832 90.366 33.7849V34.6769C90.3926 34.8086 90.406 34.9426 90.406 35.0769C90.4061 35.2112 90.4195 35.3452 90.446 35.4769C90.4734 35.7197 90.5409 35.9563 90.646 36.1769C90.7003 36.3399 90.7814 36.4926 90.886 36.6289C90.9165 36.6849 90.9576 36.7345 91.007 36.7749C91.033 36.7969 91.053 36.8099 91.067 36.8079C91.081 36.8059 91.1 36.8169 91.126 36.8389C91.1534 36.8357 91.1812 36.8391 91.207 36.8489C91.2322 36.8583 91.2594 36.8614 91.286 36.8579C91.3347 36.8515 91.3823 36.8381 91.427 36.8179C91.4712 36.7968 91.5185 36.783 91.567 36.7769C91.6797 36.7332 91.7873 36.6775 91.888 36.6109C91.995 36.5429 92.114 36.4729 92.249 36.3979C92.5155 36.2367 92.7585 36.0395 92.971 35.8119C93.2167 35.6157 93.4449 35.3986 93.653 35.1629L94.336 34.3789C94.393 34.3152 94.4464 34.2484 94.496 34.1789C94.551 34.1049 94.604 34.0369 94.657 33.9789C94.7542 33.8351 94.8618 33.6988 94.979 33.5709C95.8079 32.4667 96.5584 31.3059 97.225 30.0969C97.4124 29.8016 97.5864 29.5072 97.747 29.2139C97.9077 28.9206 98.068 28.6149 98.228 28.2969C98.3887 27.9776 98.549 27.6649 98.709 27.3589C98.871 27.0529 99.017 26.7419 99.152 26.4269C99.1808 26.3537 99.224 26.2869 99.2789 26.2306C99.3339 26.1743 99.3995 26.1295 99.472 26.0989C99.6071 26.0256 99.764 26.0036 99.914 26.0369M79.328 20.0169C79.3763 20.1886 79.4582 20.3491 79.569 20.4889C79.6763 20.6262 79.7972 20.7521 79.93 20.8649L80.411 21.1649C80.5072 21.1996 80.601 21.2403 80.692 21.2869C80.7825 21.3348 80.8764 21.376 80.973 21.4099C81.1371 21.4972 81.3124 21.5615 81.494 21.6009C81.692 21.6452 81.8923 21.6786 82.094 21.7009C82.147 21.4239 82.188 21.2289 82.214 21.1179C82.2132 21.0222 82.2199 20.9265 82.234 20.8319C82.2468 20.7505 82.2532 20.6683 82.253 20.5859C82.2809 20.4986 82.2947 20.4075 82.294 20.3159V20.0519C82.3096 19.754 82.2548 19.4566 82.134 19.1839C82.0777 19.0774 82.0107 18.9768 81.934 18.8839C81.8633 18.8153 81.7819 18.7585 81.693 18.7159C81.4493 18.628 81.1862 18.6083 80.932 18.6589C80.8642 18.67 80.7973 18.6863 80.732 18.7079C80.6536 18.7318 80.5733 18.7495 80.492 18.7609V18.8019L80.451 18.8079L80.411 18.8129L80.37 18.8179C80.3385 18.8255 80.3105 18.8439 80.291 18.8699C80.2488 18.8749 80.2078 18.8874 80.17 18.9069C80.147 18.9244 80.1197 18.9354 80.091 18.9389C79.8519 19.0656 79.6463 19.2473 79.491 19.4689C79.4154 19.5507 79.3727 19.6575 79.371 19.7689C79.3405 19.8479 79.3265 19.9323 79.33 20.0169" fill="#11361F"/>
<path d="M108.242 45.7388C108.056 46.1158 107.867 46.4868 107.68 46.8508C107.493 47.2148 107.292 47.5858 107.08 47.9678C106.868 48.3498 106.644 48.7228 106.417 49.0928C106.19 49.4628 105.943 49.8278 105.675 50.1928C105.545 50.3951 105.404 50.5907 105.254 50.7788C105.107 50.9598 104.966 51.1418 104.833 51.3238C104.672 51.5072 104.512 51.6915 104.352 51.8768C104.192 52.0622 104.018 52.2485 103.83 52.4358C103.643 52.5965 103.449 52.7655 103.249 52.9428C103.049 53.1178 102.841 53.2888 102.626 53.4548L102.547 53.5058L102.466 53.5988C102.43 53.6251 102.389 53.6444 102.346 53.6558C102.314 53.6629 102.286 53.6814 102.267 53.7078C102.213 53.7683 102.144 53.8129 102.067 53.8368C101.989 53.8592 101.92 53.9037 101.867 53.9648C101.733 54.0378 101.598 54.1038 101.467 54.1648C101.336 54.2258 101.199 54.2888 101.067 54.3648C100.767 54.4648 100.492 54.5458 100.224 54.6248C99.9493 54.7031 99.6664 54.7491 99.3811 54.7618C98.8212 54.844 98.2512 54.8274 97.6971 54.7128C97.1418 54.6182 96.6101 54.4172 96.1311 54.1208C95.6219 53.8121 95.195 53.3845 94.8871 52.8748C94.7022 52.6349 94.5536 52.369 94.4461 52.0858C94.3406 51.8074 94.2596 51.5203 94.2041 51.2278C94.1227 50.6468 94.1365 50.0564 94.2451 49.4798C94.3069 48.9457 94.4415 48.4225 94.6451 47.9248C94.8278 47.4495 95.0419 46.9868 95.2861 46.5398C95.3361 46.4315 95.3967 46.3283 95.4671 46.2318C95.5373 46.1348 95.5977 46.031 95.6471 45.9218C95.7199 45.8226 95.7867 45.7191 95.8471 45.6118L95.9261 45.4798L95.9671 45.3918L96.0071 45.3458L96.0471 45.3398C96.1271 45.2218 96.2021 45.1168 96.2691 45.0248C96.3361 44.9328 96.4081 44.8308 96.4891 44.7118C96.5691 44.6188 96.6501 44.5278 96.7291 44.4348C96.803 44.3495 96.8839 44.2706 96.9711 44.1988C97.2757 43.8407 97.6102 43.5092 97.9711 43.2078C98.1321 43.0508 98.2921 42.9078 98.4521 42.7768L98.9331 42.3858C99.2537 42.0978 99.5817 41.8295 99.9171 41.5808C100.252 41.3322 100.58 41.0905 100.899 40.8558C101.221 40.5938 101.547 40.3558 101.882 40.1318C102.217 39.9078 102.545 39.6798 102.865 39.4468C103.507 39.0062 104.162 38.5642 104.831 38.1208L106.638 36.8968C106.691 36.6968 106.751 36.5018 106.818 36.3048C106.885 36.1078 106.944 35.9048 106.998 35.7128C107.452 34.2175 107.852 32.7705 108.198 31.3718C108.303 31.0681 108.39 30.7586 108.459 30.4448C108.525 30.1388 108.599 29.8308 108.68 29.5228C108.6 29.6958 108.512 29.8648 108.419 30.0228C108.326 30.1808 108.225 30.3408 108.119 30.4898C107.868 30.9263 107.586 31.3447 107.276 31.7418C107.116 31.9248 106.955 32.1178 106.795 32.3148C106.624 32.5244 106.436 32.7197 106.233 32.8988C105.833 33.2941 105.389 33.6414 104.909 33.9338C104.775 34.0068 104.641 34.0728 104.509 34.1338C104.377 34.1948 104.242 34.2588 104.109 34.3338C103.983 34.3987 103.848 34.4445 103.709 34.4698C103.667 34.4736 103.626 34.4862 103.589 34.5068C103.552 34.5283 103.511 34.5416 103.468 34.5458L103.348 34.5608L103.308 34.5668L103.268 34.5728C103.112 34.6214 102.95 34.6506 102.786 34.6598C102.625 34.6698 102.464 34.6708 102.305 34.6668C102.171 34.6578 102.018 34.6388 101.843 34.6088C101.668 34.5788 101.503 34.5488 101.343 34.5158C101.21 34.4538 101.068 34.3858 100.922 34.3158C100.776 34.2436 100.636 34.1617 100.501 34.0708C100.246 33.8754 100.017 33.649 99.8181 33.3968C99.6397 33.1667 99.4915 32.9146 99.3771 32.6468C99.3231 32.5198 99.2771 32.3978 99.2371 32.2818C99.1971 32.1658 99.1491 32.0458 99.0971 31.9178C98.9521 31.4145 98.858 30.8979 98.8161 30.3758C98.7894 30.1354 98.7761 29.8937 98.7761 29.6518V28.9228C98.7761 28.6798 98.7821 28.4348 98.7961 28.1908C98.8101 27.9468 98.8301 27.7138 98.8561 27.4908C98.9087 27.0242 98.9821 26.5545 99.0761 26.0818C99.1701 25.6092 99.2837 25.1342 99.4171 24.6568C99.5511 24.1788 99.6851 23.7158 99.8171 23.2648C99.9491 22.8138 100.117 22.3648 100.299 21.9018C100.461 21.4402 100.649 20.9878 100.861 20.5468C101.075 20.0982 101.289 19.6562 101.503 19.2208C101.997 18.2809 102.575 17.387 103.228 16.5498C103.549 16.1538 103.91 15.7388 104.311 15.3048C104.694 14.8739 105.125 14.4878 105.595 14.1538C105.836 13.9583 106.09 13.7809 106.357 13.6228C106.624 13.4642 106.905 13.2975 107.2 13.1228C107.784 12.832 108.405 12.6231 109.046 12.5018C109.694 12.3832 110.353 12.3319 111.012 12.3488C111.611 12.4122 112.202 12.5335 112.777 12.7108C113.044 12.8088 113.305 12.9145 113.56 13.0278C113.801 13.1342 114.035 13.2568 114.26 13.3948C114.394 13.4848 114.507 13.5638 114.602 13.6308C114.697 13.6978 114.795 13.7658 114.902 13.8308C115.016 13.9002 115.124 13.9798 115.223 14.0688L115.343 14.1748L115.503 14.2748C115.776 14.4938 115.997 14.7708 116.15 15.0858C116.303 15.4008 116.383 15.7458 116.386 16.0958C116.41 16.8568 116.153 17.5998 115.663 18.1828C115.17 18.7721 114.49 19.1742 113.736 19.3218C113.394 19.4 113.039 19.3976 112.698 19.315C112.357 19.2324 112.039 19.0718 111.771 18.8458L111.61 18.7068L111.569 18.6328L111.53 18.5968L111.449 18.5258L111.289 18.3878C111.235 18.3418 111.181 18.2948 111.128 18.2478L110.967 18.1088C110.86 18.0438 110.759 17.9758 110.667 17.9088C110.472 17.7987 110.272 17.6985 110.067 17.6088C109.976 17.5854 109.888 17.5519 109.805 17.5088C109.698 17.4968 109.605 17.4898 109.523 17.4858C109.429 17.485 109.336 17.4913 109.243 17.5048C109.037 17.5106 108.834 17.5529 108.643 17.6298C108.407 17.7245 108.179 17.8372 107.961 17.9668C107.697 18.1262 107.448 18.3104 107.218 18.5168C106.963 18.7415 106.716 18.9782 106.476 19.2268C105.951 19.7849 105.482 20.3935 105.076 21.0438C104.861 21.3718 104.661 21.7052 104.476 22.0438C104.291 22.3825 104.103 22.7395 103.914 23.1148C103.727 23.4648 103.553 23.8268 103.393 24.2008C103.232 24.5738 103.085 24.9458 102.951 25.3158C102.818 25.7118 102.698 26.0932 102.591 26.4598C102.483 26.8258 102.391 27.2028 102.309 27.5938C102.152 28.3097 102.072 29.0401 102.069 29.7728V30.2598C102.068 30.4215 102.095 30.5821 102.148 30.7348C102.176 30.9776 102.243 31.2141 102.348 31.4348C102.379 31.5117 102.436 31.5754 102.509 31.6148C102.52 31.651 102.541 31.6833 102.569 31.7081C102.598 31.7329 102.633 31.7491 102.67 31.7548C102.697 31.778 102.729 31.7947 102.764 31.8037C102.799 31.8127 102.835 31.8138 102.87 31.8068C102.972 31.8466 103.083 31.8596 103.191 31.8448L103.232 31.8388L103.273 31.8338L103.313 31.8278L103.393 31.8168L103.553 31.7948C103.623 31.7603 103.697 31.7363 103.774 31.7238C103.837 31.7054 103.894 31.6729 103.942 31.6288C104.075 31.5575 104.216 31.4775 104.363 31.3888C104.51 31.3008 104.663 31.2048 104.824 31.1018C104.957 31.0018 105.099 30.8878 105.245 30.7598C105.394 30.6285 105.535 30.4875 105.666 30.3378L106.066 29.8748C106.2 29.7218 106.334 29.5698 106.466 29.4138C106.991 28.7449 107.473 28.0435 107.91 27.3138C108.124 26.9332 108.331 26.5595 108.532 26.1928C108.733 25.8262 108.94 25.4398 109.154 25.0338C109.261 24.8338 109.362 24.6338 109.454 24.4458C109.546 24.2578 109.636 24.0618 109.716 23.8608C109.769 23.7468 109.816 23.6438 109.856 23.5608C109.896 23.4778 109.943 23.3748 109.997 23.2608L110.116 22.9608L110.196 22.8288L110.236 22.6608L110.317 22.4878C110.501 21.7375 110.941 21.0746 111.56 20.6128C112.147 20.1356 112.894 19.9012 113.648 19.9578C114.002 19.9693 114.349 20.0646 114.659 20.2361C114.97 20.4075 115.235 20.65 115.433 20.9438C115.639 21.2435 115.779 21.5829 115.845 21.9402C115.91 22.2975 115.9 22.6647 115.815 23.0178C115.816 23.0237 115.815 23.0296 115.813 23.0352C115.812 23.0408 115.809 23.046 115.805 23.0505C115.801 23.0549 115.796 23.0585 115.791 23.0609C115.786 23.0634 115.78 23.0647 115.774 23.0648L115.654 23.6488L115.534 24.2318C115.48 24.4318 115.434 24.6178 115.394 24.7988C115.354 24.9798 115.307 25.1688 115.254 25.3658C115.147 25.7598 115.047 26.1452 114.954 26.5218C114.861 26.8985 114.761 27.2835 114.654 27.6768C114.439 28.4102 114.239 29.1198 114.054 29.8058C113.869 30.4918 113.669 31.2022 113.454 31.9368C113.581 31.8157 113.714 31.7022 113.854 31.5968C113.994 31.4913 114.127 31.3778 114.254 31.2568C114.548 31.0002 114.842 30.7428 115.136 30.4848L116.019 29.7148C116.308 29.4635 116.583 29.1964 116.842 28.9148C117.095 28.6362 117.356 28.3565 117.624 28.0758C118.157 27.5152 118.666 26.9312 119.149 26.3238C119.397 26.04 119.625 25.7393 119.831 25.4238C120.048 25.1518 120.249 24.8666 120.431 24.5698C120.698 24.1548 120.886 23.8698 120.993 23.7218V23.6808C121.07 23.5651 121.183 23.4782 121.315 23.4338C121.447 23.3894 121.59 23.3984 121.715 23.4588C121.77 23.4866 121.818 23.5256 121.856 23.5733C121.894 23.6211 121.922 23.6764 121.937 23.7356C121.952 23.7949 121.954 23.8567 121.944 23.9169C121.933 23.9771 121.91 24.0344 121.875 24.0848C121.767 24.3109 121.646 24.5309 121.514 24.7438C121.354 25.0105 121.194 25.2828 121.033 25.5608C120.873 25.8388 120.712 26.1058 120.552 26.3558C120.392 26.6058 120.258 26.8218 120.152 26.9988C119.938 27.3528 119.71 27.6952 119.469 28.0258L118.747 29.0178C118.479 29.3518 118.219 29.6718 117.964 29.9768C117.709 30.2818 117.436 30.5918 117.142 30.9028C116.609 31.5175 116.06 32.1068 115.496 32.6708C114.963 33.2042 114.421 33.7182 113.872 34.2128C113.323 34.7075 112.781 35.2075 112.247 35.7128L111.886 36.7358C111.753 37.1358 111.619 37.5122 111.486 37.8648C111.353 38.2218 111.218 38.5978 111.086 38.9948C110.791 39.7948 110.496 40.5518 110.203 41.2658C109.909 42.0092 109.602 42.7538 109.281 43.4998C108.96 44.2458 108.614 44.9922 108.242 45.7388ZM103.989 44.1848C104.31 43.4908 104.591 42.8035 104.832 42.1228C104.884 42.0348 104.925 41.9404 104.953 41.8418C104.979 41.7432 105.02 41.6488 105.073 41.5618C104.975 41.6227 104.882 41.6895 104.792 41.7618C104.702 41.8337 104.608 41.9005 104.51 41.9618C104.216 42.2185 103.922 42.4688 103.628 42.7128C103.334 42.9568 103.04 43.2072 102.746 43.4638C102.13 43.9812 101.555 44.4812 101.021 44.9638C100.754 45.2172 100.507 45.4738 100.279 45.7338C100.051 45.9938 99.8297 46.2478 99.6151 46.4958L99.4541 46.6798C99.4011 46.7408 99.3471 46.8008 99.2941 46.8638C99.1998 46.9632 99.1312 47.084 99.0941 47.2158L98.9331 47.3988C98.9174 47.438 98.8973 47.4753 98.8731 47.5098C98.8486 47.5435 98.8284 47.5802 98.8131 47.6188C98.7603 47.7565 98.6932 47.8882 98.6131 48.0118C98.5064 48.2418 98.3991 48.4998 98.2911 48.7858C98.243 48.9082 98.2095 49.0357 98.1911 49.1658C98.1796 49.2647 98.1596 49.3625 98.1311 49.4578C98.1231 49.6186 98.1365 49.7797 98.1711 49.9368C98.1668 49.9986 98.1811 50.0602 98.2121 50.1138C98.2415 50.1552 98.2679 50.1986 98.2911 50.2438C98.3625 50.3122 98.4437 50.3695 98.5321 50.4138C98.6558 50.4858 98.7912 50.5356 98.9321 50.5608C99.0929 50.5701 99.2543 50.5611 99.4131 50.5338C99.5922 50.5025 99.7673 50.4512 99.9351 50.3808L100.175 50.2248C100.221 50.2206 100.263 50.2008 100.296 50.1688L100.336 50.1218L100.377 50.1158V50.0748C100.481 50.0079 100.576 49.9268 100.658 49.8338C100.746 49.7343 100.839 49.6401 100.938 49.5518C101.152 49.3329 101.347 49.0957 101.52 48.8428C101.694 48.5895 101.875 48.3148 102.063 48.0188C102.249 47.7188 102.424 47.4188 102.585 47.1188C102.746 46.8188 102.918 46.4978 103.106 46.1748C103.267 45.8555 103.42 45.5305 103.567 45.1998C103.714 44.8692 103.854 44.5322 103.988 44.1888" fill="#11361F"/>
<path d="M143.168 23.4618L142.445 24.4538L141.722 25.4458C141.214 26.0832 140.692 26.7165 140.157 27.3458C139.622 27.9752 139.047 28.5885 138.433 29.1858C138.133 29.4968 137.833 29.7948 137.533 30.0808C137.233 30.3668 136.898 30.6558 136.551 30.9478C135.902 31.5285 135.219 32.0701 134.505 32.5698C133.783 33.1274 133.018 33.6263 132.217 34.0618L131.575 34.3958C131.366 34.5035 131.152 34.6007 130.933 34.6868C130.718 34.7708 130.498 34.8488 130.271 34.9198C130.044 34.9908 129.809 35.0728 129.571 35.1598C129.351 35.245 129.122 35.3038 128.888 35.3348C128.648 35.3695 128.407 35.4028 128.165 35.4348C127.661 35.5112 127.149 35.5283 126.641 35.4858C126.121 35.4824 125.605 35.3894 125.116 35.2108C124.856 35.1434 124.601 35.0568 124.353 34.9518C124.113 34.8512 123.872 34.7362 123.63 34.6068C123.173 34.3446 122.755 34.0209 122.386 33.6448C122.201 33.4576 122.027 33.2592 121.865 33.0508C121.704 32.8428 121.557 32.6418 121.423 32.4428C121.286 32.2403 121.166 32.0269 121.063 31.8048C120.957 31.58 120.863 31.3497 120.781 31.1148C120.622 30.6559 120.501 30.1846 120.42 29.7058C120.314 29.2621 120.254 28.8088 120.24 28.3528C120.227 27.8968 120.233 27.4365 120.26 26.9718C120.287 26.5072 120.333 26.0552 120.4 25.6158C120.467 25.1748 120.555 24.7438 120.661 24.3238C121.095 22.628 121.728 20.9896 122.547 19.4428C122.734 19.0428 122.934 18.6538 123.147 18.2858C123.36 17.9178 123.589 17.5558 123.829 17.1978C124.069 16.8398 124.31 16.4908 124.552 16.1458C124.801 15.7911 125.068 15.4496 125.352 15.1228C125.489 14.9384 125.637 14.7621 125.795 14.5948C125.956 14.4238 126.102 14.2618 126.237 14.1078C126.397 13.9508 126.558 13.7998 126.717 13.6558C126.876 13.5118 127.039 13.3618 127.198 13.2038C127.546 12.8865 127.901 12.5865 128.262 12.3038C128.628 12.0204 129.01 11.7577 129.406 11.5168C129.754 11.3068 130.169 11.0735 130.65 10.8168C130.864 10.7338 131.085 10.6478 131.313 10.5628C131.541 10.4778 131.774 10.3908 132.013 10.3028C132.255 10.2168 132.504 10.15 132.756 10.1028C133.014 10.0542 133.276 10.0377 133.538 10.0538C133.805 10.0448 134.08 10.0478 134.36 10.0608C134.654 10.0797 134.944 10.1348 135.224 10.2248C135.799 10.3891 136.331 10.6741 136.787 11.0608C137.263 11.4296 137.648 11.9027 137.912 12.4438C138.163 12.9325 138.352 13.451 138.473 13.9868C138.552 14.5166 138.592 15.0513 138.594 15.5868C138.594 16.0943 138.554 16.6009 138.473 17.1018C138.42 17.3528 138.359 17.6018 138.293 17.8378C138.227 18.0738 138.166 18.3068 138.113 18.5308C137.951 19.0122 137.77 19.4828 137.571 19.9428C137.364 20.4168 137.115 20.8718 136.829 21.3028C136.569 21.768 136.259 22.2039 135.906 22.6028C135.572 23.07 135.167 23.4822 134.706 23.8248C134.491 24.0162 134.25 24.2115 133.983 24.4108C133.912 24.4374 133.844 24.4741 133.783 24.5198L133.662 24.5768C133.642 24.603 133.614 24.6214 133.582 24.6288C133.478 24.6899 133.371 24.7456 133.261 24.7958C132.851 25.0168 132.421 25.1983 131.977 25.3378C131.09 25.6741 130.156 25.8721 129.209 25.9248L128.487 25.9048C128.373 25.8989 128.258 25.8872 128.145 25.8698C128.03 25.8528 127.917 25.8284 127.805 25.7968C127.358 25.7147 126.926 25.5703 126.519 25.3678C126.415 25.3305 126.315 25.2836 126.219 25.2278C126.126 25.1747 126.038 25.112 125.958 25.0408C125.869 24.9985 125.787 24.9413 125.717 24.8718C125.616 24.8159 125.522 24.7488 125.436 24.6718C125.302 24.5268 125.168 24.3838 125.036 24.2408C124.904 24.0978 124.768 23.9408 124.636 23.7698C124.624 23.7608 124.615 23.7493 124.608 23.7362C124.601 23.7231 124.598 23.7086 124.597 23.6938C124.596 23.6793 124.592 23.6651 124.585 23.6523C124.578 23.6395 124.568 23.6284 124.556 23.6198V24.2668C124.555 24.5958 124.575 24.9245 124.617 25.2508C124.657 25.5558 124.703 25.8508 124.757 26.1438C124.809 26.429 124.882 26.7099 124.977 26.9838C125.064 27.2385 125.164 27.4885 125.277 27.7328C125.436 28.1513 125.682 28.5313 125.999 28.8478C126.112 28.9975 126.247 29.129 126.399 29.2378C126.532 29.3272 126.679 29.4148 126.84 29.5008C126.981 29.5944 127.137 29.6621 127.302 29.7008C127.494 29.7465 127.688 29.7799 127.884 29.8008C128.108 29.853 128.336 29.8821 128.566 29.8878C128.807 29.8948 129.074 29.9048 129.366 29.9188C129.5 29.8998 129.641 29.8868 129.787 29.8798C129.933 29.8728 130.075 29.8598 130.208 29.8408C130.507 29.8535 130.807 29.8119 131.091 29.7178C131.746 29.5982 132.39 29.4273 133.018 29.2068C133.339 29.0815 133.66 28.9428 133.981 28.7908C134.302 28.6388 134.623 28.4722 134.943 28.2908C135.265 28.1118 135.578 27.9178 135.887 27.7138C136.196 27.5098 136.496 27.3058 136.787 27.1008C137.403 26.6655 138.012 26.2032 138.614 25.7138C139.216 25.2245 139.798 24.7108 140.359 24.1728C140.493 24.0478 140.634 23.9198 140.781 23.7898C140.931 23.6589 141.072 23.5175 141.202 23.3668C141.334 23.2418 141.476 23.1008 141.623 22.9448C141.77 22.7888 141.91 22.6358 142.044 22.4808C142.178 22.3258 142.378 22.1188 142.644 21.8508C142.91 21.5828 143.11 21.3748 143.244 21.2198C143.369 21.072 143.502 20.9321 143.644 20.8008L143.804 20.5748L144.004 20.3448C144.046 20.2761 144.103 20.2169 144.169 20.1711C144.236 20.1254 144.311 20.094 144.39 20.079C144.47 20.0641 144.551 20.0658 144.63 20.0842C144.709 20.1026 144.783 20.1372 144.847 20.1858C144.904 20.2295 144.951 20.2842 144.985 20.3466C145.02 20.409 145.042 20.4777 145.049 20.5488C145.057 20.6198 145.05 20.6916 145.029 20.7598C145.008 20.828 144.973 20.8913 144.927 20.9458L144.847 21.0768L144.767 21.2088L144.567 21.4808C144.513 21.5698 144.46 21.6508 144.407 21.7258C144.354 21.8008 144.299 21.8828 144.246 21.9698C144.138 22.1468 143.965 22.3938 143.724 22.7118C143.483 23.0298 143.296 23.2778 143.163 23.4578M125.826 18.2128C125.665 18.5342 125.525 18.8651 125.405 19.2038C125.285 19.5448 125.17 19.8848 125.064 20.2238C124.865 20.848 124.731 21.4911 124.664 22.1428L124.705 22.1788C125.026 22.3508 125.334 22.4968 125.628 22.6188C125.92 22.7494 126.232 22.8289 126.551 22.8538C126.582 22.8687 126.616 22.8775 126.651 22.8798C126.685 22.8836 126.719 22.8923 126.751 22.9058C126.791 22.8972 126.832 22.8972 126.871 22.9058C126.91 22.9174 126.951 22.9191 126.991 22.9108C127.064 22.926 127.138 22.9287 127.212 22.9188C127.286 22.9102 127.36 22.9136 127.433 22.9288C128.015 22.9043 128.588 22.7685 129.119 22.5288C129.386 22.4108 129.647 22.2808 129.902 22.1358C130.157 21.9908 130.417 21.8358 130.685 21.6618C130.818 21.5632 130.946 21.4632 131.067 21.3618C131.187 21.2618 131.314 21.1618 131.448 21.0618C131.471 21.0343 131.498 21.0101 131.528 20.9898C131.558 20.9697 131.585 20.9459 131.608 20.9188L131.648 20.8728L131.689 20.8258C131.731 20.8027 131.766 20.768 131.789 20.7258C131.818 20.6775 131.851 20.6322 131.889 20.5908C131.956 20.5131 132.016 20.4306 132.07 20.3438C132.136 20.2438 132.196 20.1438 132.25 20.0548C132.416 19.8339 132.539 19.5835 132.611 19.3168C132.747 19.0786 132.855 18.8256 132.933 18.5628C133.013 18.2948 133.079 18.0228 133.133 17.7458C133.159 17.6068 133.186 17.4738 133.213 17.3458C133.24 17.2172 133.253 17.0862 133.253 16.9548C133.277 16.8333 133.291 16.7098 133.293 16.5858V16.2208C133.318 16.107 133.325 15.9898 133.313 15.8738C133.299 15.7745 133.292 15.6742 133.293 15.5738C133.294 15.4795 133.288 15.3852 133.274 15.2918C133.262 15.2258 133.255 15.1589 133.254 15.0918C133.229 15.0219 133.215 14.9482 133.214 14.8738C133.215 14.8127 133.201 14.7523 133.173 14.6978C133.162 14.5867 133.12 14.4808 133.053 14.3918C132.996 14.3413 132.942 14.2875 132.891 14.2308C132.825 14.1624 132.743 14.1113 132.652 14.0818C132.441 13.9639 132.209 13.8862 131.969 13.8528C131.832 13.8168 131.69 13.8023 131.548 13.8098C131.408 13.817 131.267 13.817 131.127 13.8098C130.828 13.7974 130.529 13.8387 130.245 13.9318C129.604 14.1118 129.004 14.4155 128.48 14.8258C128.187 15.0353 127.919 15.2768 127.68 15.5458C127.44 15.7958 127.213 16.0568 126.998 16.3308C126.55 16.9119 126.16 17.5359 125.835 18.1938" fill="#11361F"/>
<path d="M164.632 17.1459C164.979 17.2869 165.06 17.5319 164.873 17.8829V17.9229C164.552 18.5629 164.231 19.1962 163.91 19.8229C163.589 20.4496 163.268 21.0689 162.945 21.6809C162.599 22.3229 162.245 22.9529 161.903 23.5669C161.561 24.1809 161.194 24.8019 160.819 25.4189C160.766 25.5089 160.719 25.5889 160.679 25.6629C160.64 25.7345 160.594 25.8016 160.54 25.8629C160.485 25.9529 160.433 26.0339 160.379 26.1079C160.325 26.1819 160.271 26.2649 160.219 26.3519C160.111 26.5039 160.011 26.6519 159.919 26.7999C159.817 26.9595 159.703 27.111 159.577 27.2529C159.469 27.4039 159.356 27.5469 159.236 27.6859C159.116 27.8249 158.989 27.9699 158.855 28.1239C158.62 28.4482 158.335 28.7339 158.012 28.9709C157.714 29.2948 157.36 29.5632 156.968 29.7639C156.755 29.8938 156.526 29.9947 156.286 30.0639C156.029 30.1533 155.757 30.191 155.486 30.1749C155.215 30.1662 154.946 30.1222 154.686 30.0439C154.432 29.9889 154.196 29.8682 154.003 29.6939C153.817 29.5575 153.642 29.4053 153.482 29.2389C153.434 29.1455 153.373 29.0587 153.302 28.9809C153.231 28.9028 153.171 28.8157 153.122 28.7219C152.917 28.3873 152.755 28.0286 152.639 27.6539C152.586 27.4726 152.533 27.2979 152.478 27.1299C152.425 26.9609 152.371 26.7729 152.318 26.5639C152.266 26.3902 152.233 26.2116 152.218 26.0309C152.206 25.8579 152.185 25.6779 152.159 25.4939L152.039 24.4159C151.96 22.9647 152 21.5095 152.159 20.0649C152.266 19.2396 152.426 18.3522 152.64 17.4029C152.088 17.5614 151.525 17.6804 150.955 17.7589C150.084 17.9342 149.196 18.017 148.307 18.0059C147.635 17.9767 146.965 17.9076 146.301 17.7989C146.277 17.826 146.257 17.8559 146.24 17.8879C146.225 17.921 146.205 17.9516 146.181 17.9789C146.045 18.3575 145.87 18.7211 145.659 19.0639C145.582 19.2565 145.495 19.4448 145.398 19.6279C145.305 19.8032 145.205 19.9792 145.098 20.1559C145.018 20.3279 144.93 20.5019 144.837 20.6769C144.744 20.8519 144.643 21.0279 144.537 21.2049C144.484 21.2949 144.43 21.3819 144.376 21.4709C144.322 21.5599 144.27 21.6479 144.215 21.7369C144.121 21.9215 144.014 22.099 143.894 22.2679C143.869 22.3247 143.83 22.3744 143.781 22.4129C143.732 22.4514 143.674 22.4775 143.613 22.4889C143.495 22.5221 143.369 22.5187 143.252 22.4789C143.159 22.4073 143.093 22.3069 143.064 22.1934C143.035 22.08 143.045 21.9601 143.092 21.8529C143.195 21.6833 143.289 21.508 143.372 21.3279L143.613 20.8089C143.693 20.6339 143.779 20.4599 143.874 20.2849C143.969 20.1099 144.055 19.9369 144.136 19.7639C144.215 19.5639 144.295 19.3769 144.376 19.2029C144.457 19.0299 144.537 18.8559 144.617 18.6829C144.778 18.3099 144.924 17.9509 145.058 17.6089C145.082 17.5866 145.096 17.5563 145.099 17.5239C144.752 17.3829 144.399 17.2239 144.056 17.0609C143.701 16.8871 143.366 16.6755 143.056 16.4299C142.648 16.1545 142.294 15.8056 142.013 15.4009C141.683 14.9716 141.438 14.4831 141.291 13.9619C141.129 13.4016 141.088 12.8133 141.17 12.2359C141.227 11.5964 141.419 10.9762 141.732 10.4159C141.837 10.2907 141.931 10.1569 142.013 10.0159C142.063 9.95786 142.117 9.90339 142.174 9.8529C142.231 9.80082 142.285 9.74539 142.335 9.6869C142.435 9.57093 142.542 9.46138 142.656 9.3589C142.764 9.2589 142.884 9.1649 143.018 9.0659C143.24 8.90586 143.483 8.77668 143.74 8.6819L144.463 8.4179L144.823 8.3689L144.984 8.3469L145.024 8.3409L145.064 8.3349L145.144 8.3249L145.466 8.2799C145.586 8.26448 145.707 8.26113 145.827 8.2699C145.934 8.28238 146.041 8.28772 146.148 8.2859C146.27 8.28692 146.391 8.30372 146.509 8.3359C146.625 8.36584 146.739 8.40428 146.85 8.4509C146.944 8.4929 147.057 8.5439 147.191 8.6059C147.294 8.66946 147.388 8.74499 147.473 8.8309C147.553 8.9149 147.633 9.0059 147.713 9.1009C147.788 9.19112 147.849 9.29229 147.893 9.4009C147.934 9.50357 147.98 9.61857 148.033 9.7459C148.085 9.84244 148.119 9.94743 148.133 10.0559C148.146 10.1626 148.166 10.2682 148.194 10.3719C148.192 10.4862 148.198 10.6004 148.212 10.7139C148.227 10.8132 148.234 10.9135 148.233 11.0139C148.234 11.1303 148.227 11.2466 148.212 11.3619C148.199 11.4634 148.193 11.5656 148.194 11.6679C148.167 11.7688 148.153 11.8726 148.152 11.9769C148.151 12.0812 148.137 12.185 148.111 12.2859C148.086 12.3989 148.045 12.5929 147.992 12.8699L148.792 12.7589C150.045 12.5732 151.271 12.2375 152.444 11.7589C152.772 11.6588 153.094 11.5396 153.408 11.4019C153.729 11.2632 154.05 11.1299 154.371 11.0019C154.692 10.8499 155.005 10.7019 155.314 10.5469C155.623 10.3919 155.948 10.2469 156.296 10.0859L157.219 9.7549C157.534 9.62551 157.873 9.5666 158.212 9.58233C158.552 9.59805 158.884 9.68802 159.185 9.8459C159.483 9.99711 159.743 10.2143 159.945 10.481C160.147 10.7477 160.285 11.0568 160.349 11.3849C160.455 11.8822 160.421 12.3992 160.249 12.8779C160.083 13.3619 159.801 13.7979 159.427 14.1479C159.039 14.5384 158.677 14.9539 158.343 15.3919C158.183 15.6309 158.022 15.8749 157.862 16.1279C157.702 16.3809 157.555 16.6369 157.42 16.8979C156.828 18.017 156.332 19.1838 155.935 20.3859C155.855 20.6949 155.775 20.9969 155.695 21.2859C155.615 21.5749 155.533 21.8859 155.454 22.1859C155.427 22.3249 155.401 22.4769 155.374 22.6429C155.347 22.8089 155.32 22.9619 155.295 23.0989C155.266 23.2493 155.246 23.4012 155.234 23.5539C155.222 23.7059 155.202 23.8571 155.174 24.0069C155.122 24.304 155.095 24.6052 155.095 24.9069V25.7979C155.121 25.9297 155.135 26.0636 155.135 26.1979C155.135 26.3322 155.148 26.4662 155.175 26.5979C155.203 26.8407 155.27 27.0772 155.375 27.2979C155.43 27.461 155.512 27.614 155.616 27.7509C155.646 27.8068 155.687 27.8563 155.736 27.8969C155.762 27.9189 155.783 27.9309 155.796 27.9289C155.809 27.9269 155.83 27.9389 155.856 27.9609C155.883 27.9567 155.911 27.9601 155.936 27.9709C155.962 27.9805 155.989 27.9833 156.016 27.9789C156.064 27.973 156.112 27.9598 156.156 27.9399C156.2 27.9185 156.247 27.9046 156.296 27.8989C156.409 27.8544 156.517 27.7985 156.618 27.7319C156.724 27.6639 156.844 27.5939 156.978 27.5189C157.245 27.3586 157.488 27.1613 157.7 26.9329C157.947 26.7332 158.176 26.5116 158.383 26.2709L159.065 25.4859C159.123 25.4225 159.176 25.3557 159.226 25.2859C159.28 25.2109 159.334 25.1439 159.387 25.0799C159.484 24.936 159.592 24.7997 159.709 24.6719C160.538 23.5678 161.288 22.4074 161.955 21.1989C162.142 20.9036 162.316 20.6092 162.477 20.3159C162.638 20.0226 162.798 19.7166 162.957 19.3979C163.119 19.0789 163.279 18.7659 163.439 18.4609C163.599 18.1559 163.747 17.8439 163.881 17.5279C163.94 17.3804 164.056 17.2624 164.202 17.1999C164.337 17.1275 164.494 17.1055 164.644 17.1379M144.045 11.1379C144.093 11.3095 144.175 11.4699 144.285 11.6099C144.393 11.7464 144.515 11.872 144.647 11.9849L145.127 12.2849C145.223 12.3195 145.317 12.3606 145.408 12.4079C145.499 12.4549 145.593 12.4957 145.69 12.5299C145.854 12.6185 146.029 12.6828 146.211 12.7209C146.409 12.7652 146.609 12.7986 146.811 12.8209C146.863 12.5439 146.905 12.3489 146.931 12.2369C146.93 12.1412 146.937 12.0457 146.95 11.9509C146.963 11.8696 146.97 11.7873 146.97 11.7049C146.998 11.6179 147.011 11.5271 147.011 11.4359V11.1719C147.026 10.8736 146.971 10.576 146.85 10.3029C146.794 10.1965 146.727 10.096 146.65 10.0029C146.579 9.93519 146.497 9.87857 146.409 9.8349C146.165 9.74742 145.901 9.72806 145.647 9.7789C145.579 9.78964 145.512 9.80569 145.447 9.8269C145.368 9.85127 145.288 9.86933 145.206 9.8809V9.9219L145.166 9.9269L145.125 9.9319L145.085 9.9379C145.053 9.94492 145.025 9.96341 145.005 9.9899C144.963 9.99427 144.922 10.0068 144.884 10.0269C144.861 10.0441 144.834 10.0552 144.805 10.0589C144.566 10.1856 144.361 10.3668 144.205 10.5879C144.129 10.6697 144.087 10.7765 144.085 10.8879C144.056 10.9675 144.042 11.0531 144.045 11.1379Z" fill="#11361F"/>
<path d="M138.809 55.6171C138.512 56.1145 138.172 56.5855 137.795 57.0251C137.442 57.4965 137.064 57.9551 136.661 58.4011C136.244 58.8593 135.802 59.2934 135.336 59.7011C135.109 59.8958 134.876 60.0905 134.636 60.2851C134.397 60.4851 134.129 60.6851 133.836 60.8851C133.301 61.2686 132.717 61.5793 132.1 61.8091C131.489 62.0941 130.838 62.2833 130.17 62.3701L129.929 62.4041L129.205 63.6731C128.613 64.7023 127.952 65.6899 127.226 66.6291C126.844 67.132 126.433 67.6119 125.995 68.0661C125.56 68.5161 125.102 68.9535 124.62 69.3781L123.847 69.9721C123.589 70.1721 123.317 70.3721 123.029 70.5721C122.866 70.6595 122.721 70.7365 122.594 70.8031C122.467 70.8698 122.322 70.9465 122.159 71.0331C121.873 71.2263 121.566 71.3841 121.242 71.5031C121.098 71.5831 120.944 71.6449 120.784 71.6871C120.639 71.7238 120.487 71.7695 120.326 71.8241C120.164 71.8791 120.004 71.9241 119.845 71.9641C119.686 72.0041 119.522 72.0491 119.361 72.1041L119.12 72.1381L118.976 72.1571L118.927 72.1641L118.877 72.1711C118.722 72.2279 118.561 72.2665 118.397 72.2861C118.228 72.277 118.058 72.2844 117.89 72.3081C117.706 72.3326 117.52 72.342 117.335 72.3361C116.618 72.3358 115.903 72.2383 115.212 72.0461C114.859 71.9343 114.519 71.7854 114.198 71.6021C113.88 71.4224 113.573 71.2219 113.281 71.0021C112.707 70.5696 112.23 70.0219 111.881 69.3941C111.703 69.0929 111.542 68.7821 111.399 68.4631C111.265 68.1544 111.152 67.8366 111.062 67.5121C110.856 66.8981 110.711 66.2654 110.628 65.6231C110.563 65.3156 110.53 65.0024 110.528 64.6881C110.528 64.3728 110.512 64.0577 110.479 63.7441C110.478 62.5233 110.575 61.3043 110.77 60.0991C110.865 59.4991 110.978 58.9071 111.107 58.3231C111.236 57.7391 111.381 57.1591 111.541 56.5831C111.862 55.4665 112.247 54.3241 112.698 53.1561C113.144 51.9992 113.661 50.8704 114.244 49.7761C114.526 49.1959 114.839 48.6317 115.183 48.0861C115.521 47.5528 115.899 46.9968 116.317 46.4181C116.509 46.1329 116.719 45.86 116.945 45.6011C117.169 45.3425 117.41 45.0815 117.669 44.8181C118.174 44.2466 118.723 43.7144 119.309 43.2261C119.952 42.663 120.665 42.1866 121.432 41.8091C121.621 41.6882 121.822 41.5877 122.032 41.5091C122.243 41.4321 122.459 41.3451 122.685 41.2471L123.409 41.0011L123.793 40.9471C123.821 40.9451 123.847 40.933 123.867 40.9131C123.902 40.8867 123.944 40.872 123.988 40.8711L124.088 40.8571L124.134 40.8511C124.788 40.7158 125.467 40.7738 126.088 41.0181C126.662 41.2428 127.157 41.6317 127.512 42.1361C128.078 41.9554 128.66 41.8253 129.249 41.7471C129.442 41.7531 129.635 41.7471 129.828 41.7401C130.037 41.7313 130.247 41.743 130.454 41.7751C130.853 41.858 131.241 41.9837 131.613 42.1501C131.978 42.337 132.318 42.5677 132.627 42.8371C132.874 43.1128 133.099 43.407 133.301 43.7171C133.488 44.0023 133.642 44.308 133.759 44.6281C133.871 44.9329 133.96 45.2458 134.025 45.5641C134.092 45.8795 134.14 46.1815 134.171 46.4701C134.204 46.775 134.22 47.0815 134.219 47.3881C134.251 47.9656 134.244 48.5447 134.197 49.1211C134.147 49.6965 134.074 50.2665 133.978 50.8311C133.797 51.949 133.555 53.0563 133.254 54.1481C133.093 54.7235 132.933 55.2735 132.772 55.7981C132.611 56.3228 132.418 56.8608 132.193 57.4121C132.129 57.6121 132.056 57.8121 131.977 58.0031C131.898 58.1941 131.823 58.3901 131.759 58.5931C131.92 58.5381 132.08 58.4931 132.242 58.4531C132.41 58.4109 132.572 58.3478 132.724 58.2651C132.915 58.1721 133.117 58.0731 133.324 57.9651C133.531 57.8571 133.752 57.7351 133.975 57.6061C134.403 57.3467 134.816 57.0611 135.209 56.7511C135.609 56.4358 136.003 56.1051 136.391 55.7591C136.584 55.5711 136.771 55.3821 136.946 55.1941C137.121 55.0061 137.308 54.8191 137.502 54.6301C137.698 54.4364 137.884 54.2318 138.057 54.0171C138.233 53.7971 138.402 53.5961 138.564 53.4101C138.699 53.2419 138.885 53.122 139.094 53.0681C139.188 53.0469 139.285 53.0491 139.378 53.0746C139.47 53.1001 139.555 53.148 139.625 53.2141C139.699 53.266 139.762 53.3323 139.809 53.409C139.857 53.4858 139.888 53.5714 139.902 53.6606C139.915 53.7499 139.911 53.841 139.888 53.9284C139.865 54.0158 139.825 54.0977 139.77 54.1691C139.608 54.4185 139.447 54.6601 139.288 54.8941C139.129 55.1281 138.968 55.3695 138.806 55.6181M126.019 63.5341C126.349 63.1536 126.655 62.7528 126.935 62.3341C126.942 62.3342 126.949 62.3328 126.955 62.3299C126.962 62.3271 126.967 62.3229 126.972 62.3177C126.977 62.3125 126.98 62.3064 126.982 62.2997C126.984 62.2931 126.985 62.2861 126.984 62.2791C126.844 62.244 126.707 62.1982 126.574 62.1421C126.442 62.0865 126.305 62.0407 126.166 62.0051C125.843 61.8881 125.537 61.7591 125.247 61.6201C124.966 61.4868 124.692 61.3379 124.427 61.1741C123.409 60.4506 122.528 59.5503 121.827 58.5161C121.719 58.4095 121.622 58.2923 121.538 58.1661L121.489 58.0281L121.441 58.0341V57.9341C121.412 57.9097 121.387 57.8798 121.369 57.8461C121.35 57.8131 121.326 57.7834 121.298 57.7581C121.232 57.6041 121.159 57.4531 121.079 57.3011C120.999 57.1491 120.927 57.0011 120.862 56.8441C120.608 56.2422 120.414 55.6164 120.283 54.9761C120.149 54.3117 120.085 53.635 120.092 52.9571V52.3771C120.062 52.4088 120.037 52.4449 120.018 52.4841C120 52.5237 119.976 52.5601 119.946 52.5921C119.406 53.4041 118.922 54.2529 118.5 55.1321C117.634 56.8366 116.954 58.6297 116.473 60.4801C116.373 60.9481 116.287 61.3991 116.207 61.8331C116.125 62.2752 116.069 62.7216 116.039 63.1701C115.937 63.9451 115.953 64.7309 116.086 65.5011C116.126 65.8244 116.207 66.1413 116.327 66.4441C116.392 66.5641 116.454 66.6781 116.52 66.7821C116.586 66.8861 116.648 66.9821 116.713 67.0721L116.978 67.3031C117.071 67.3805 117.177 67.4402 117.292 67.4791C117.554 67.5888 117.828 67.6654 118.109 67.7071C118.283 67.7449 118.462 67.753 118.639 67.7311C118.719 67.716 118.802 67.7212 118.879 67.7461L119.025 67.7261L119.171 67.7051L119.751 67.6251C119.849 67.6122 119.945 67.5905 120.039 67.5601C120.134 67.5322 120.231 67.5109 120.329 67.4961C121.168 67.271 121.967 66.9131 122.693 66.4361C123.494 65.9045 124.252 65.3103 124.959 64.6591C125.152 64.4711 125.339 64.2821 125.515 64.0951C125.691 63.9081 125.861 63.7221 126.022 63.5371M129.207 45.8001C128.904 45.8687 128.621 46.0053 128.378 46.1995C128.135 46.3937 127.94 46.6404 127.807 46.9211C127.7 47.0573 127.603 47.2014 127.517 47.3521C127.486 47.4211 127.452 47.5001 127.417 47.5841C127.388 47.6635 127.355 47.7413 127.317 47.8171C127.168 48.155 127.07 48.5133 127.028 48.8801C126.964 49.2471 126.899 49.5971 126.836 49.9301C126.77 50.2747 126.721 50.6225 126.69 50.9721C126.657 51.1531 126.633 51.3357 126.618 51.5191C126.601 51.7191 126.594 51.8961 126.594 52.0571C126.562 52.2269 126.555 52.4002 126.571 52.5721C126.586 52.7491 126.594 52.9341 126.594 53.1291C126.627 53.2937 126.644 53.4612 126.643 53.6291C126.645 53.8158 126.679 54.0007 126.743 54.1761C126.75 54.3385 126.784 54.4986 126.843 54.6501V54.7971C126.843 54.8301 126.858 54.8441 126.893 54.8391V54.9391C126.918 54.9818 126.933 55.0291 126.939 55.0781C126.945 55.1279 126.961 55.1758 126.988 55.2181C127.201 55.9133 127.509 56.5754 127.905 57.1851C127.995 57.3267 128.1 57.4584 128.218 57.5781C128.332 57.6941 128.45 57.8221 128.579 57.9671C128.697 58.0762 128.827 58.1724 128.965 58.2541C129.039 58.3039 129.121 58.342 129.207 58.3671C129.307 58.0941 129.407 57.8281 129.521 57.5671C129.635 57.3061 129.738 57.0431 129.834 56.7671C129.993 56.2921 130.147 55.8061 130.292 55.3161C130.437 54.8261 130.574 54.3281 130.702 53.8231C130.831 53.3454 130.928 52.8597 130.992 52.3691C131.055 51.8691 131.121 51.3771 131.184 50.8811C131.216 50.4018 131.224 49.9212 131.208 49.4411C131.192 48.982 131.152 48.5241 131.088 48.0691C131.058 47.6632 130.96 47.2653 130.797 46.8921C130.703 46.5734 130.539 46.2799 130.316 46.0331C130.23 45.9529 130.132 45.8855 130.027 45.8331C130.002 45.7928 129.965 45.7608 129.922 45.7409C129.879 45.721 129.831 45.7141 129.784 45.7211C129.752 45.7265 129.719 45.7231 129.689 45.7111C129.641 45.6979 129.591 45.6962 129.543 45.7061C129.426 45.7225 129.313 45.7562 129.206 45.8061" fill="#11361F"/>
<path d="M162.564 47.3191C162.644 47.3924 162.698 47.4888 162.719 47.5947C162.741 47.7006 162.729 47.8107 162.684 47.9091C162.609 48.0635 162.542 48.2217 162.484 48.3831L162.244 48.8621C162.198 48.9875 162.145 49.1097 162.083 49.2281C162.003 49.3881 161.915 49.5551 161.822 49.7281C161.729 49.9011 161.634 50.0721 161.54 50.2281C161.468 50.3451 161.408 50.4686 161.36 50.5971C161.229 50.9088 161.081 51.2135 160.919 51.5101C160.759 51.8021 160.597 52.1101 160.438 52.4281C160.251 52.7521 160.077 53.0581 159.916 53.3521C159.755 53.6461 159.58 53.9381 159.395 54.2341C159.292 54.3762 159.198 54.5241 159.113 54.6771C159.028 54.8308 158.934 54.9794 158.832 55.1221C158.725 55.2728 158.625 55.4221 158.532 55.5701C158.439 55.7181 158.339 55.8671 158.232 56.0171C158.017 56.3171 157.81 56.6091 157.61 56.8931C157.41 57.1771 157.189 57.4711 156.947 57.7751C156.466 58.3848 155.929 58.9477 155.342 59.4561C155.182 59.6141 155.021 59.7561 154.862 59.8881C154.703 60.0201 154.526 60.1511 154.34 60.2881C154.152 60.3961 153.951 60.5111 153.74 60.6351C153.522 60.7612 153.294 60.8679 153.057 60.9541C152.924 60.9981 152.79 61.0451 152.657 61.0901C152.527 61.1358 152.393 61.1693 152.257 61.1901L151.816 61.2511C151.736 61.262 151.656 61.2664 151.575 61.2641C151.495 61.2641 151.4 61.2541 151.294 61.2431C151.208 61.2266 151.121 61.2182 151.033 61.2181C150.942 61.2185 150.852 61.1965 150.771 61.1541C150.665 61.1141 150.564 61.0811 150.471 61.0541C150.378 61.0271 150.278 60.9931 150.171 60.9541C150.002 60.8399 149.842 60.7136 149.691 60.5761C149.605 60.5276 149.53 60.4619 149.47 60.3831C149.404 60.2991 149.343 60.2191 149.29 60.1461C149.103 59.8783 148.954 59.5854 148.848 59.2761C148.801 59.142 148.76 59.0055 148.727 58.8671C148.702 58.7491 148.674 58.6251 148.647 58.4931C148.598 58.2566 148.571 58.0158 148.568 57.7741V57.1271C148.594 56.9232 148.608 56.7178 148.609 56.5121C148.609 56.3211 148.622 56.1303 148.648 55.9411C148.675 55.7481 148.703 55.5611 148.728 55.3811C148.753 55.2011 148.782 55.0301 148.809 54.8641C148.862 54.4795 148.922 54.1198 148.989 53.7851C149.055 53.4521 149.129 53.1171 149.21 52.7851L149.691 50.7741C149.851 50.1301 150.018 49.4851 150.191 48.8391C150.364 48.1931 150.531 47.5488 150.691 46.9061C150.771 46.5981 150.845 46.2911 150.912 45.9841C150.979 45.6771 151.053 45.3701 151.134 45.0611C151.215 44.7521 151.288 44.4531 151.354 44.1611C151.42 43.8691 151.481 43.5831 151.534 43.3051C151.561 43.1671 151.601 42.9851 151.655 42.7611C151.619 42.7621 151.584 42.7744 151.555 42.7961C151.539 42.8122 151.517 42.8221 151.494 42.8241C151.366 42.8811 151.246 42.9522 151.134 43.0361C151.007 43.1039 150.886 43.1822 150.772 43.2701C150.659 43.3574 150.538 43.4347 150.412 43.5011C150.17 43.6701 149.931 43.8531 149.689 44.0491C149.443 44.2494 149.215 44.4709 149.007 44.7111C148.893 44.8137 148.785 44.9236 148.685 45.0401C148.578 45.1621 148.47 45.2851 148.364 45.4081C148.258 45.5311 148.156 45.6521 148.064 45.7731C147.972 45.8941 147.871 46.0171 147.764 46.1391C147.388 46.6511 147.022 47.1801 146.664 47.7311C146.306 48.2821 145.947 48.8371 145.6 49.3981C145.442 49.7014 145.269 49.9961 145.08 50.2811L144.838 50.7201C144.758 50.8671 144.678 51.0121 144.597 51.1581C144.464 51.4481 144.317 51.7321 144.156 52.0101C143.991 52.2982 143.844 52.5961 143.715 52.9021C143.42 53.5108 143.132 54.1181 142.851 54.7241C142.57 55.3301 142.31 55.9338 142.069 56.5351C141.936 56.8518 141.815 57.1591 141.708 57.4571C141.601 57.7571 141.48 58.0641 141.348 58.3771C141.293 58.5221 141.24 58.6771 141.186 58.8461C141.132 59.0151 141.08 59.1721 141.026 59.3131C140.97 59.4651 140.922 59.6204 140.885 59.7781C140.848 59.9362 140.802 60.0918 140.746 60.2441C140.74 60.2441 140.734 60.2453 140.729 60.2476C140.724 60.25 140.719 60.2535 140.715 60.2579C140.712 60.2623 140.709 60.2674 140.707 60.273C140.706 60.2786 140.705 60.2844 140.706 60.2901L140.626 60.7051C140.5 61.4887 140.094 62.1997 139.482 62.7051C138.903 63.2199 138.148 63.4917 137.374 63.4641C137.022 63.4645 136.675 63.3808 136.362 63.2201C136.049 63.0594 135.779 62.8263 135.574 62.5401C135.361 62.2414 135.211 61.9019 135.135 61.5427C135.059 61.1836 135.058 60.8127 135.132 60.4531C135.129 60.369 135.142 60.285 135.172 60.2061L140.472 40.0601C140.598 39.5397 140.912 39.0845 141.355 38.7831C141.769 38.4748 142.286 38.3373 142.799 38.3991C143.023 38.4252 143.24 38.4989 143.433 38.6153C143.627 38.7317 143.794 38.8882 143.922 39.0741C144.055 39.2636 144.148 39.4779 144.196 39.7041C144.245 39.9303 144.247 40.164 144.203 40.3911L142.117 52.2301C142.223 51.9455 142.33 51.6601 142.437 51.3741C142.545 51.0901 142.651 50.7921 142.758 50.4741C142.813 50.3331 142.873 50.1741 142.94 50.0041C143.007 49.8341 143.065 49.6761 143.12 49.5341C143.174 49.3641 143.24 49.1986 143.32 49.0391C143.4 48.8801 143.467 48.7149 143.52 48.5451C143.787 47.9141 144.063 47.2821 144.342 46.6451C144.621 46.0081 144.924 45.3751 145.242 44.7361C145.303 44.5781 145.377 44.4252 145.463 44.2791C145.556 44.1181 145.642 43.9501 145.724 43.7791L146.205 42.8211C146.392 42.4971 146.571 42.1691 146.746 41.8341C146.921 41.4991 147.113 41.1551 147.328 40.8001C147.435 40.6511 147.542 40.4881 147.649 40.3101C147.756 40.1321 147.864 39.9561 147.97 39.7801C148.103 39.6261 148.237 39.4595 148.37 39.2801C148.504 39.1001 148.637 38.9331 148.77 38.7801C149.074 38.4352 149.396 38.1064 149.734 37.7951C150.078 37.4521 150.466 37.1575 150.889 36.9191C151.103 36.7831 151.324 36.6501 151.553 36.5241C151.777 36.3985 152.011 36.2911 152.253 36.2031C152.387 36.1571 152.515 36.1121 152.634 36.0691L153.016 35.9351C153.153 35.9199 153.288 35.8862 153.416 35.8351L153.616 35.8081L153.695 35.7971L153.816 35.7801L153.895 35.7691L153.975 35.7581L154.137 35.7361C154.243 35.7183 154.351 35.7166 154.458 35.7311C154.584 35.7134 154.712 35.7097 154.839 35.7201C154.959 35.7301 155.086 35.7391 155.22 35.7471C155.497 35.7942 155.766 35.8794 156.02 36.0001C156.29 36.1089 156.545 36.2499 156.781 36.4201C156.904 36.5003 157.019 36.5932 157.123 36.6971C157.217 36.7921 157.316 36.8851 157.423 36.9791C157.503 37.1031 157.577 37.2141 157.645 37.3131C157.715 37.4207 157.775 37.5341 157.825 37.6521C157.95 37.8317 158.045 38.0307 158.105 38.2411C158.159 38.4411 158.213 38.6261 158.266 38.8061C158.34 39.1196 158.381 39.4401 158.387 39.7621C158.44 40.0295 158.44 40.3047 158.387 40.5721C158.39 41.0263 158.349 41.4797 158.266 41.9261C158.214 42.1184 158.174 42.3138 158.146 42.5111C158.119 42.7079 158.079 42.9026 158.026 43.0941C157.972 43.2941 157.918 43.4741 157.866 43.6431C157.814 43.8121 157.758 43.9961 157.704 44.1931L157.383 45.2101C157.276 45.5501 157.155 45.8771 157.023 46.1921C156.888 46.5351 156.761 46.8641 156.64 47.1771C156.519 47.4901 156.393 47.8061 156.259 48.1211C155.991 48.7821 155.73 49.4111 155.476 50.0141C155.222 50.6171 154.976 51.2141 154.734 51.8141L154.012 53.6141C153.797 54.1568 153.583 54.7401 153.369 55.3641C153.241 55.6984 153.167 56.0507 153.148 56.4081C153.162 56.5951 153.242 56.6711 153.389 56.6371C153.612 56.5679 153.822 56.464 154.012 56.3291C154.278 56.1561 154.573 55.9811 154.893 55.8001C155.022 55.706 155.143 55.6013 155.254 55.4871C155.361 55.3781 155.468 55.2751 155.576 55.1801L156.299 54.4721C156.753 54.0055 157.194 53.5251 157.622 53.0311C158.05 52.5371 158.479 52.0318 158.908 51.5151C159.121 51.2701 159.328 51.0151 159.528 50.7391C159.728 50.4631 159.937 50.1961 160.151 49.9251C160.343 49.6768 160.517 49.4151 160.672 49.1421C160.914 48.7421 161.087 48.4701 161.194 48.3201L161.516 47.9111L161.796 47.5111L161.837 47.5051C161.861 47.4354 161.903 47.3728 161.957 47.3229C162.012 47.2731 162.078 47.2376 162.15 47.2197C162.221 47.2017 162.296 47.2019 162.368 47.2201C162.44 47.2384 162.506 47.2741 162.56 47.3241" fill="#11361F"/>
<path d="M184.112 47.596L183.389 48.588L182.666 49.58C182.158 50.2174 181.636 50.8507 181.101 51.48C180.566 52.1094 179.991 52.723 179.377 53.321C179.077 53.632 178.777 53.93 178.477 54.216C178.177 54.502 177.842 54.791 177.494 55.083C176.845 55.6633 176.161 56.204 175.446 56.702C174.725 57.2605 173.96 57.7598 173.158 58.195L172.517 58.529C172.308 58.6367 172.094 58.7339 171.875 58.82C171.66 58.9034 171.439 58.981 171.212 59.053C170.984 59.125 170.751 59.206 170.512 59.292C170.292 59.3774 170.064 59.4365 169.83 59.468C169.59 59.503 169.348 59.535 169.107 59.568C168.602 59.6444 168.091 59.6615 167.582 59.619C167.062 59.6154 166.546 59.5224 166.057 59.344C165.797 59.2761 165.543 59.1896 165.295 59.085C165.055 58.985 164.813 58.868 164.572 58.74C164.115 58.4783 163.696 58.1545 163.328 57.778C163.142 57.589 162.968 57.3886 162.807 57.178C162.645 56.971 162.499 56.769 162.364 56.571C162.227 56.3685 162.107 56.1551 162.005 55.933C161.899 55.7082 161.804 55.4779 161.722 55.243C161.564 54.784 161.443 54.3128 161.362 53.834C161.255 53.3905 161.195 52.937 161.182 52.481C161.169 52.025 161.175 51.5647 161.201 51.1C161.227 50.6354 161.274 50.183 161.341 49.743C161.408 49.303 161.496 48.872 161.602 48.452C162.036 46.756 162.669 45.1175 163.489 43.571C163.675 43.166 163.875 42.782 164.089 42.414C164.303 42.046 164.532 41.684 164.772 41.326C165.012 40.968 165.253 40.619 165.495 40.274C165.744 39.9189 166.011 39.5771 166.295 39.25C166.432 39.0658 166.58 38.8899 166.738 38.723C166.898 38.552 167.045 38.39 167.179 38.236C167.34 38.078 167.5 37.928 167.66 37.784C167.82 37.64 167.982 37.49 168.141 37.332C168.489 37.013 168.841 36.715 169.205 36.432C169.571 36.1487 169.953 35.8863 170.349 35.646C170.696 35.4354 171.111 35.202 171.593 34.946C171.806 34.863 172.027 34.777 172.255 34.692C172.483 34.607 172.717 34.519 172.955 34.432C173.197 34.3458 173.446 34.2789 173.698 34.232C173.956 34.1829 174.219 34.1664 174.481 34.183C174.748 34.174 175.023 34.176 175.303 34.19C175.596 34.2091 175.886 34.2638 176.166 34.353C176.741 34.5179 177.274 34.8032 177.73 35.19C178.206 35.5583 178.591 36.0316 178.854 36.573C179.106 37.0614 179.295 37.5799 179.416 38.116C179.495 38.6458 179.535 39.1805 179.537 39.716C179.537 40.2238 179.497 40.7308 179.416 41.232C179.362 41.4834 179.302 41.7284 179.235 41.967C179.168 42.2057 179.108 42.437 179.055 42.661C178.894 43.1424 178.714 43.613 178.513 44.073C178.306 44.5468 178.058 45.0018 177.772 45.433C177.512 45.8981 177.202 46.3339 176.849 46.733C176.515 47.2001 176.11 47.612 175.649 47.954C175.434 48.145 175.194 48.342 174.926 48.54C174.855 48.5679 174.788 48.6049 174.726 48.65L174.605 48.706C174.586 48.7331 174.557 48.752 174.525 48.759C174.421 48.8205 174.314 48.8762 174.204 48.926C173.795 49.1469 173.365 49.3281 172.921 49.467C172.034 49.8041 171.1 50.0024 170.153 50.055L169.431 50.035C169.317 50.0291 169.202 50.0174 169.089 50C168.974 49.983 168.86 49.9586 168.748 49.927C168.302 49.8437 167.87 49.6993 167.464 49.498C167.36 49.4606 167.26 49.4138 167.164 49.358C167.07 49.3051 166.983 49.2424 166.902 49.171C166.813 49.1284 166.732 49.0713 166.661 49.002C166.56 48.946 166.466 48.8789 166.38 48.802L165.98 48.371C165.846 48.226 165.712 48.071 165.58 47.901C165.568 47.8921 165.558 47.8807 165.552 47.8675C165.545 47.8544 165.541 47.8399 165.54 47.825C165.539 47.8105 165.535 47.7964 165.528 47.7836C165.521 47.7708 165.512 47.7597 165.5 47.751V48.402C165.499 48.7306 165.519 49.059 165.56 49.385C165.601 49.691 165.647 49.985 165.701 50.279C165.752 50.5643 165.826 50.8452 165.921 51.119C166.008 51.3737 166.108 51.6237 166.221 51.868C166.38 52.2865 166.626 52.6665 166.943 52.983C167.055 53.1331 167.19 53.2644 167.343 53.372C167.485 53.4679 167.632 53.556 167.784 53.636C167.925 53.7292 168.081 53.7969 168.245 53.836C168.437 53.8807 168.631 53.9141 168.827 53.936C169.051 53.9882 169.28 54.0174 169.51 54.023C169.75 54.0304 170.017 54.0407 170.31 54.054C170.444 54.035 170.584 54.022 170.731 54.015C170.878 54.008 171.018 53.994 171.152 53.976C171.451 53.9881 171.75 53.9465 172.034 53.853C172.689 53.7334 173.334 53.5625 173.962 53.342C174.281 53.216 174.602 53.077 174.924 52.925C175.245 52.771 175.566 52.606 175.887 52.425C176.208 52.244 176.522 52.052 176.831 51.848C177.14 51.644 177.44 51.439 177.731 51.235C178.346 50.7997 178.954 50.337 179.557 49.847C180.157 49.358 180.742 48.847 181.302 48.307C181.436 48.181 181.578 48.054 181.724 47.924C181.875 47.7936 182.015 47.6522 182.145 47.501C182.278 47.375 182.42 47.235 182.566 47.079C182.712 46.923 182.853 46.77 182.987 46.615C183.121 46.46 183.322 46.252 183.587 45.985C183.852 45.718 184.054 45.508 184.187 45.354C184.312 45.2064 184.446 45.0662 184.587 44.934L184.748 44.709L184.948 44.479C184.99 44.4101 185.047 44.3509 185.113 44.305C185.18 44.2591 185.255 44.2277 185.334 44.2127C185.414 44.1978 185.495 44.1996 185.574 44.218C185.653 44.2365 185.727 44.2713 185.791 44.32C185.847 44.3638 185.894 44.4185 185.929 44.4809C185.964 44.5433 185.985 44.612 185.993 44.683C186 44.754 185.993 44.8257 185.972 44.8939C185.952 44.9622 185.917 45.0255 185.871 45.08L185.791 45.211L185.711 45.343L185.511 45.615C185.456 45.704 185.404 45.785 185.35 45.86C185.296 45.935 185.242 46.017 185.19 46.104C185.082 46.281 184.908 46.527 184.668 46.846C184.428 47.165 184.239 47.412 184.106 47.592M166.769 42.347C166.609 42.6685 166.468 42.9994 166.348 43.338C166.228 43.6787 166.115 44.0187 166.008 44.358C165.809 44.9821 165.675 45.6252 165.608 46.277L165.648 46.313C165.969 46.4837 166.277 46.63 166.571 46.752C166.863 46.8832 167.175 46.963 167.494 46.988C167.526 47.0022 167.56 47.011 167.594 47.014C167.629 47.0172 167.662 47.026 167.694 47.04C167.734 47.0313 167.775 47.0313 167.814 47.04C167.854 47.0499 167.895 47.0499 167.935 47.04C168.008 47.056 168.082 47.059 168.156 47.049C168.23 47.0399 168.304 47.0433 168.377 47.059C168.959 47.0348 169.531 46.899 170.061 46.659C170.329 46.542 170.589 46.411 170.845 46.267C171.101 46.123 171.36 45.967 171.627 45.793C171.76 45.6944 171.888 45.5944 172.009 45.493C172.129 45.393 172.256 45.293 172.391 45.193C172.414 45.1659 172.441 45.142 172.471 45.122C172.5 45.1016 172.527 45.0778 172.55 45.051L172.591 45.004L172.631 44.958C172.674 44.9355 172.709 44.9007 172.731 44.858C172.76 44.8099 172.793 44.7647 172.831 44.723C172.898 44.6452 172.959 44.5623 173.013 44.475C173.078 44.375 173.139 44.275 173.193 44.187C173.358 43.9658 173.48 43.7154 173.553 43.449C173.689 43.2108 173.797 42.9578 173.875 42.695C173.956 42.426 174.023 42.153 174.075 41.877C174.101 41.739 174.129 41.606 174.156 41.477C174.18 41.2234 174.206 40.9701 174.235 40.717V40.352C174.26 40.2382 174.267 40.121 174.255 40.005C174.241 39.9057 174.234 39.8054 174.235 39.705C174.236 39.6106 174.229 39.5163 174.215 39.423C174.203 39.357 174.196 39.2901 174.195 39.223C174.171 39.1529 174.157 39.0793 174.156 39.005C174.157 38.9439 174.143 38.8835 174.115 38.829C174.104 38.7178 174.062 38.6119 173.994 38.523C173.937 38.4721 173.884 38.418 173.833 38.361C173.766 38.2935 173.684 38.2428 173.593 38.213C173.382 38.0951 173.151 38.0172 172.911 37.983C172.774 37.948 172.632 37.9335 172.49 37.94C172.35 37.9482 172.209 37.9482 172.069 37.94C171.77 37.9279 171.471 37.9696 171.186 38.063C170.545 38.2427 169.946 38.5464 169.422 38.957C169.128 39.1663 168.858 39.4078 168.617 39.677C168.378 39.927 168.15 40.188 167.936 40.461C167.488 41.0426 167.098 41.6669 166.772 42.325" fill="#11361F"/>
<path d="M43.3351 68.7509L42.4651 69.3859C42.3281 69.1249 42.1571 69.0159 41.9551 69.0529C41.8583 69.0708 41.7706 69.1217 41.7071 69.1969C41.6414 69.2714 41.6057 69.3676 41.6071 69.4669C41.6071 69.6449 41.8071 69.7839 42.2161 69.8809C42.6209 69.9532 43.0055 70.1114 43.3441 70.3449C43.4467 70.4455 43.5259 70.5674 43.5762 70.7021C43.6265 70.8367 43.6466 70.9807 43.6351 71.1239C43.6331 71.5764 43.459 72.0112 43.1481 72.3399C42.8496 72.6757 42.4478 72.9026 42.0061 72.9849C41.6802 73.0762 41.3319 73.0411 41.0308 72.8867C40.7297 72.7322 40.498 72.4698 40.3821 72.1519L41.2821 71.5609C41.358 71.6975 41.4541 71.8219 41.5671 71.9299C41.6321 71.9782 41.7068 72.0116 41.7861 72.028C41.8654 72.0445 41.9473 72.0434 42.0261 72.0249C42.1005 72.0207 42.1734 72.0018 42.2406 71.9694C42.3077 71.9369 42.3678 71.8915 42.4173 71.8357C42.4668 71.78 42.5049 71.715 42.5292 71.6445C42.5535 71.574 42.5637 71.4993 42.5591 71.4249C42.5591 71.2339 42.4231 71.0819 42.1481 70.9689C42.0411 70.9339 41.9351 70.9019 41.8291 70.8689C41.7231 70.8359 41.6151 70.8049 41.5051 70.7689C41.2665 70.7097 41.0454 70.5945 40.8601 70.4329C40.6912 70.2403 40.6057 69.9885 40.6221 69.7329C40.6189 69.3356 40.7636 68.9514 41.0281 68.6549C41.2885 68.3505 41.6453 68.1444 42.0391 68.0709C42.3007 68.0075 42.5765 68.0409 42.8155 68.165C43.0544 68.2891 43.2404 68.4954 43.3391 68.7459" fill="#11361F"/>
<path d="M44.6561 65.7852C44.6576 65.5919 44.7286 65.4055 44.8561 65.2602C44.9755 65.106 45.1461 64.9997 45.3371 64.9602C45.4215 64.9404 45.5094 64.9404 45.5939 64.9601C45.6784 64.9799 45.7572 65.0189 45.8241 65.0742C45.8905 65.1286 45.9432 65.1978 45.9779 65.2764C46.0127 65.3549 46.0285 65.4404 46.0241 65.5262C46.0236 65.7221 45.9526 65.9113 45.8241 66.0592C45.7057 66.2145 45.5346 66.3212 45.3431 66.3592C45.2583 66.3792 45.1701 66.3791 45.0854 66.3591C45.0006 66.3391 44.9217 66.2997 44.8549 66.2439C44.788 66.1881 44.7351 66.1175 44.7002 66.0377C44.6654 65.9579 44.6496 65.8711 44.6541 65.7842M45.8661 67.4842V72.1242L44.8141 72.3242V67.6832L45.8661 67.4842Z" fill="#11361F"/>
<path d="M47.4421 67.189L48.5011 66.989V67.417C48.8089 67.0137 49.2503 66.7332 49.7461 66.626C49.9595 66.5654 50.1846 66.5589 50.4011 66.6071C50.6176 66.6553 50.8186 66.7566 50.9861 66.902C51.2871 67.2815 51.4252 67.7648 51.3701 68.246V71.089L50.3141 71.289V68.696C50.3476 68.3803 50.2823 68.062 50.1271 67.785C50.0051 67.6304 49.7831 67.5834 49.4611 67.644C49.3079 67.664 49.1612 67.7188 49.0323 67.804C48.9033 67.8893 48.7956 68.0028 48.7171 68.136C48.5474 68.5315 48.4737 68.9616 48.5021 69.391V71.629L47.4431 71.829L47.4421 67.189Z" fill="#11361F"/>
<path d="M56.487 65.6878V67.1128C56.3087 66.905 56.0886 66.737 55.841 66.6198C55.6308 66.5383 55.401 66.5213 55.181 66.5708C54.7872 66.6444 54.4349 66.8623 54.193 67.1818C53.9346 67.5032 53.7957 67.9044 53.8 68.3168C53.788 68.501 53.8157 68.6856 53.8812 68.8582C53.9468 69.0307 54.0487 69.1871 54.18 69.3168C54.3117 69.4326 54.4695 69.5145 54.6399 69.5557C54.8103 69.5968 54.9881 69.5958 55.158 69.5528C55.4013 69.5093 55.6309 69.4089 55.828 69.2598C56.0826 69.0417 56.3048 68.7885 56.488 68.5078V69.9218C56.1084 70.2067 55.6707 70.4043 55.206 70.5008C54.9025 70.5766 54.5859 70.5836 54.2793 70.5213C53.9727 70.459 53.6839 70.329 53.434 70.1408C53.1982 69.9487 53.011 69.7038 52.8877 69.4257C52.7643 69.1477 52.7082 68.8446 52.724 68.5408C52.7255 67.8442 52.982 67.1723 53.445 66.6518C53.8927 66.1052 54.5193 65.7346 55.214 65.6058C55.6386 65.5198 56.0786 65.5505 56.487 65.6948" fill="#11361F"/>
<path d="M61.898 67.0439L58.631 67.6589C58.6321 67.8164 58.6651 67.9721 58.7278 68.1166C58.7905 68.2611 58.8817 68.3915 58.996 68.4999C59.1111 68.5914 59.2459 68.6551 59.3897 68.6858C59.5335 68.7165 59.6825 68.7135 59.825 68.6769C60.0673 68.6373 60.2929 68.5286 60.475 68.3639C60.7041 68.1218 60.8977 67.8484 61.05 67.5519L61.94 67.8899C61.8155 68.1335 61.6699 68.3657 61.505 68.5839C61.3608 68.7723 61.1958 68.9437 61.013 69.0949C60.8405 69.2357 60.6498 69.3524 60.446 69.4419C60.2343 69.5343 60.0124 69.6014 59.785 69.6419C59.5032 69.7176 59.2073 69.7245 58.9222 69.6621C58.6372 69.5996 58.3713 69.4695 58.147 69.2829C57.9301 69.0665 57.7625 68.8058 57.6558 68.5186C57.5492 68.2313 57.5059 67.9244 57.529 67.6189C57.512 66.9383 57.7232 66.2716 58.129 65.7249C58.5197 65.2096 59.0917 64.8621 59.729 64.7529C60.0029 64.6775 60.291 64.6702 60.5683 64.7318C60.8457 64.7933 61.1037 64.9217 61.32 65.1059C61.5292 65.3311 61.689 65.5977 61.7889 65.8884C61.8888 66.1792 61.9266 66.4876 61.9 66.7939L61.898 67.0439ZM60.817 66.3709C60.7993 66.2533 60.7562 66.141 60.6907 66.0417C60.6252 65.9424 60.5389 65.8585 60.4377 65.796C60.3366 65.7334 60.2231 65.6935 60.105 65.6792C59.9869 65.6648 59.8672 65.6763 59.754 65.7129C59.628 65.7358 59.5064 65.7786 59.394 65.8399C59.2808 65.9005 59.1773 65.9777 59.087 66.0689C58.994 66.1616 58.9145 66.267 58.851 66.3819C58.784 66.5033 58.7335 66.6331 58.701 66.7679L60.817 66.3709Z" fill="#11361F"/>
<path d="M65.22 62.1722L63.97 62.4062L64.57 61.2562L66.312 60.9282V68.2822L65.221 68.4822L65.22 62.1722Z" fill="#11361F"/>
<path d="M70.9331 67.6658L70.1331 67.2108L71.8591 64.4898C71.7661 64.5208 71.6861 64.5458 71.6211 64.5638C71.5685 64.58 71.5151 64.5933 71.4611 64.6038C71.1948 64.6628 70.9183 64.6573 70.6546 64.5877C70.3909 64.5181 70.1476 64.3865 69.9451 64.2038C69.7345 64.0157 69.5685 63.783 69.4592 63.5226C69.3499 63.2623 69.3 62.9809 69.3131 62.6988C69.3352 62.0151 69.5839 61.3581 70.0202 60.8311C70.4564 60.3041 71.0555 59.9371 71.7231 59.7878C72.0205 59.7203 72.3293 59.7205 72.6267 59.7883C72.9241 59.8562 73.2024 59.99 73.4411 60.1798C73.677 60.3592 73.8665 60.5926 73.9935 60.8604C74.1205 61.1282 74.1814 61.4226 74.1711 61.7188C74.1224 62.4343 73.8767 63.1224 73.4611 63.7068L70.9331 67.6658ZM70.3711 62.4178C70.3619 62.5925 70.3933 62.767 70.4627 62.9276C70.532 63.0883 70.6376 63.2307 70.7711 63.3438C70.9042 63.4537 71.0609 63.5314 71.229 63.5707C71.3971 63.6101 71.572 63.6101 71.7401 63.5708C72.1187 63.4877 72.4587 63.2805 72.7062 62.9821C72.9536 62.6837 73.0944 62.3113 73.1061 61.9238C73.1145 61.7511 73.0826 61.5788 73.0128 61.4205C72.943 61.2623 72.8372 61.1225 72.7039 61.0124C72.5706 60.9022 72.4135 60.8246 72.2449 60.7858C72.0764 60.747 71.9011 60.748 71.7331 60.7888C71.3589 60.8735 71.0229 61.0788 70.7768 61.3731C70.5307 61.6675 70.3881 62.0345 70.3711 62.4178Z" fill="#11361F"/>
<path d="M77.089 66.5099L76.289 66.0549L78.021 63.3349C77.927 63.3649 77.847 63.3909 77.782 63.4079C77.7294 63.424 77.676 63.4374 77.622 63.4479C77.3561 63.5076 77.0798 63.5029 76.8161 63.4342C76.5524 63.3655 76.3089 63.2347 76.106 63.0529C75.8942 62.8644 75.7271 62.6311 75.6169 62.3698C75.5067 62.1086 75.4562 61.8261 75.469 61.5429C75.4911 60.859 75.74 60.2019 76.1765 59.6749C76.6129 59.1479 77.2122 58.781 77.88 58.6319C78.1763 58.5648 78.4839 58.5648 78.7802 58.6317C79.0766 58.6987 79.3543 58.8309 79.593 59.0189C79.8289 59.1983 80.0184 59.4317 80.1454 59.6995C80.2725 59.9673 80.3333 60.2617 80.323 60.5579C80.2748 61.2735 80.029 61.9617 79.613 62.5459L77.089 66.5099ZM76.527 61.2619C76.5154 61.4358 76.5448 61.6101 76.6128 61.7705C76.6809 61.931 76.7857 62.0733 76.9188 62.1859C77.0519 62.2985 77.2096 62.3782 77.3791 62.4187C77.5487 62.4591 77.7254 62.4592 77.895 62.4189C78.2736 62.3351 78.6134 62.1276 78.861 61.8292C79.1085 61.5308 79.2496 61.1584 79.262 60.7709C79.2702 60.5983 79.2382 60.4262 79.1684 60.2682C79.0985 60.1102 78.9928 59.9707 78.8597 59.8606C78.7265 59.7506 78.5696 59.6731 78.4013 59.6342C78.2329 59.5954 78.0579 59.5963 77.89 59.6369C77.5159 59.721 77.1798 59.9259 76.9337 60.2199C76.6876 60.514 76.545 60.8808 76.528 61.2639" fill="#11361F"/>
<path d="M82.759 61.3671C82.5021 61.2371 82.2891 61.0342 82.1468 60.7837C82.0045 60.5333 81.9392 60.2465 81.959 59.9591C81.9563 59.3679 82.1697 58.7961 82.559 58.3511C82.9437 57.8881 83.4789 57.5752 84.071 57.4671C84.3289 57.4027 84.598 57.398 84.8579 57.4533C85.1179 57.5085 85.3618 57.6224 85.571 57.7861C85.7726 57.9543 85.9318 58.1674 86.036 58.4083C86.1402 58.6492 86.1865 58.9111 86.171 59.1731C86.167 59.4963 86.0944 59.815 85.958 60.1081C85.8217 60.4011 85.6247 60.6619 85.38 60.8731C85.6682 60.9744 85.9105 61.1755 86.063 61.4401C86.2381 61.7364 86.3258 62.0762 86.316 62.4201C86.324 63.0502 86.101 63.6613 85.689 64.1381C85.2807 64.6272 84.7119 64.9554 84.084 65.0641C83.802 65.1358 83.5077 65.1443 83.2219 65.0892C82.9362 65.034 82.6662 64.9166 82.431 64.7451C82.2128 64.5726 82.0393 64.35 81.9253 64.0962C81.8113 63.8424 81.7601 63.5649 81.776 63.2871C81.761 62.9102 81.8431 62.5357 82.0146 62.1996C82.186 61.8636 82.441 61.5772 82.755 61.3681M82.849 63.0461C82.8425 63.1986 82.8701 63.3506 82.93 63.4909C82.9899 63.6313 83.0804 63.7564 83.195 63.8571C83.3115 63.9545 83.4491 64.0234 83.5968 64.0581C83.7446 64.0928 83.8984 64.0925 84.046 64.0571C84.379 63.9839 84.6779 63.8016 84.8953 63.5391C85.1127 63.2765 85.2362 62.9489 85.246 62.6081C85.2537 62.4568 85.226 62.3058 85.1652 62.167C85.1044 62.0282 85.0121 61.9055 84.8957 61.8085C84.7793 61.7115 84.642 61.6429 84.4945 61.6081C84.3471 61.5734 84.1935 61.5734 84.046 61.6081C83.7114 61.6748 83.4113 61.858 83.199 62.1251C82.9758 62.3791 82.8515 62.705 82.849 63.0431M82.984 59.7611C82.9767 59.8988 83.0012 60.0363 83.0554 60.1631C83.1097 60.2898 83.1924 60.4024 83.297 60.4921C83.4023 60.5793 83.5263 60.641 83.6594 60.6722C83.7925 60.7034 83.931 60.7034 84.064 60.6721C84.3626 60.6055 84.6307 60.4418 84.8263 60.2066C85.0219 59.9713 85.134 59.6779 85.145 59.3721C85.1512 59.2361 85.1257 59.1004 85.0707 58.9758C85.0157 58.8512 84.9326 58.741 84.8279 58.6539C84.7232 58.5667 84.5998 58.5049 84.4673 58.4734C84.3348 58.4419 84.1968 58.4415 84.064 58.4721C83.7618 58.5317 83.4911 58.6977 83.301 58.9401C83.1003 59.1674 82.9875 59.459 82.983 59.7621" fill="#11361F"/>
<path d="M90.9767 51.4786L36.8621 61.6538L36.974 62.2494L91.0887 52.0742L90.9767 51.4786Z" fill="#11361F"/>
<path d="M90.9767 68.2296L36.8621 78.4048L36.974 79.0003L91.0887 68.8252L90.9767 68.2296Z" fill="#11361F"/>
</g>
<defs>
<clipPath id="clip0_28_155">
<rect width="186" height="79" fill="white"/>
</clipPath>
</defs>
</svg>
